<?xml version="1.0" standalone="no"?>
<!DOCTYPE svg PUBLIC "-//W3C//DTD SVG 20010904//EN"
 "http://www.w3.org/TR/2001/REC-SVG-20010904/DTD/svg10.dtd">
<svg version="1.0" xmlns="http://www.w3.org/2000/svg"
 width="2103.000000pt" height="2103.000000pt" viewBox="0 0 2103.000000 2103.000000"
 preserveAspectRatio="xMidYMid meet">
<metadata>
Created by potrace 1.16, written by Peter Selinger 2001-2019
</metadata>
<g transform="translate(0.000000,2103.000000) scale(0.100000,-0.100000)"
fill="#ffffff" stroke="none">
<path d="M13846 19968 c-8 -18 -24 -55 -34 -83 -11 -27 -32 -77 -46 -110 -15
-33 -32 -71 -38 -85 -5 -14 -16 -38 -23 -55 -7 -16 -17 -41 -23 -55 -39 -94
-112 -277 -112 -283 0 -3 -11 -30 -25 -59 -13 -29 -38 -88 -54 -130 -17 -42
-39 -96 -49 -120 -11 -24 -30 -68 -42 -98 -12 -30 -30 -73 -40 -95 -10 -22
-30 -71 -45 -110 -15 -38 -38 -94 -51 -123 -13 -29 -24 -57 -24 -62 0 -6 -4
-18 -10 -28 -13 -24 -60 -131 -60 -138 0 -3 -12 -31 -26 -62 -15 -31 -37 -84
-49 -118 -13 -33 -37 -92 -53 -130 -17 -38 -56 -132 -87 -209 -73 -181 -125
-305 -137 -329 -5 -10 -25 -60 -45 -110 -19 -50 -43 -109 -53 -131 -10 -22
-28 -65 -40 -95 -12 -30 -34 -84 -50 -120 -71 -167 -200 -479 -200 -486 0 -3
-11 -30 -25 -60 -14 -30 -25 -57 -25 -60 0 -3 -7 -20 -15 -37 -8 -18 -23 -55
-34 -83 -11 -28 -29 -71 -39 -95 -11 -24 -52 -123 -92 -219 -40 -96 -131 -314
-202 -485 -71 -170 -136 -330 -145 -354 -16 -47 -54 -135 -79 -184 -8 -16 -14
-32 -14 -37 0 -5 -14 -39 -31 -77 -35 -78 -30 -67 -99 -238 -29 -71 -58 -143
-65 -160 -8 -16 -23 -51 -34 -77 -12 -26 -21 -50 -21 -54 0 -3 -12 -31 -26
-62 -14 -31 -51 -118 -81 -192 -30 -74 -61 -148 -68 -165 -15 -36 -21 -50 -75
-180 -22 -55 -45 -109 -50 -120 -5 -11 -18 -43 -29 -71 -11 -28 -29 -71 -39
-95 -11 -24 -39 -91 -62 -149 -23 -58 -48 -119 -56 -137 -8 -17 -14 -34 -14
-37 0 -3 -11 -30 -25 -60 -14 -30 -25 -57 -25 -60 0 -6 -10 -30 -55 -131 -7
-16 -20 -48 -29 -70 -10 -22 -21 -48 -26 -57 -6 -10 -10 -22 -10 -28 0 -5 -12
-35 -26 -67 -69 -155 -86 -197 -131 -311 -35 -91 -48 -92 -83 -7 -7 17 -16 38
-21 47 -5 10 -9 25 -9 34 0 8 -7 22 -15 30 -8 9 -15 24 -15 35 0 10 -4 19 -10
19 -5 0 -10 6 -10 14 0 8 -8 29 -17 48 -31 61 -33 68 -33 87 0 10 -7 21 -15
25 -8 3 -15 17 -15 31 0 14 -4 25 -10 25 -5 0 -10 11 -10 24 0 13 -7 29 -15
36 -8 7 -15 23 -15 36 0 13 -4 24 -9 24 -5 0 -12 13 -16 30 -4 16 -11 32 -16
35 -5 4 -9 15 -9 26 0 10 -4 19 -9 19 -5 0 -12 13 -16 30 -4 16 -11 32 -16 35
-5 4 -9 19 -9 36 0 16 -4 29 -8 29 -5 0 -16 19 -26 43 -24 57 -46 106 -63 139
-7 14 -13 33 -13 42 0 9 -4 16 -10 16 -5 0 -10 8 -10 17 0 10 -12 43 -26 73
-15 30 -34 71 -42 90 -8 19 -19 43 -23 52 -5 10 -9 27 -9 38 0 11 -4 20 -8 20
-10 0 -42 71 -42 93 0 10 -4 17 -10 17 -5 0 -13 12 -16 28 -4 15 -18 47 -31
71 -12 24 -23 52 -23 62 0 11 -4 19 -9 19 -5 0 -12 13 -16 30 -4 16 -11 32
-16 35 -5 4 -9 17 -9 31 0 13 -4 24 -10 24 -5 0 -13 12 -16 28 -4 15 -18 47
-31 71 -12 24 -23 52 -23 62 0 11 -4 19 -10 19 -5 0 -10 8 -10 18 0 10 -7 27
-15 38 -8 10 -15 29 -15 42 0 12 -4 22 -10 22 -5 0 -10 9 -10 19 0 11 -7 26
-15 35 -8 8 -15 21 -15 29 0 8 -11 35 -25 61 -14 26 -25 55 -25 65 0 10 -7 24
-15 31 -8 7 -15 21 -15 31 0 10 -4 21 -10 24 -5 3 -10 14 -10 24 0 10 -7 24
-15 31 -8 7 -15 21 -15 31 0 19 -3 27 -34 86 -9 17 -16 38 -16 47 0 9 -4 16
-10 16 -5 0 -10 7 -10 16 0 9 -6 28 -14 42 -8 15 -22 45 -31 67 -31 76 -37 90
-51 117 -8 14 -14 33 -14 42 0 9 -4 16 -10 16 -5 0 -10 8 -10 19 0 10 -7 24
-15 31 -8 7 -15 21 -15 31 0 18 -8 37 -32 79 -4 8 -11 22 -14 30 -8 20 -35 81
-45 102 -5 10 -9 26 -9 37 0 10 -7 24 -15 31 -8 7 -15 19 -15 26 0 13 -9 34
-32 74 -4 8 -11 22 -14 30 -3 8 -13 31 -21 50 -8 19 -18 44 -23 55 -4 11 -20
47 -35 80 -26 57 -36 79 -65 150 -21 50 -42 99 -51 117 -5 10 -9 24 -9 32 0 7
-7 19 -15 26 -8 7 -15 21 -15 31 0 18 -8 37 -32 79 -4 8 -11 22 -14 30 -3 8
-17 39 -30 68 -13 29 -24 56 -24 60 0 4 -12 32 -26 62 -15 30 -32 69 -39 85
-7 17 -24 55 -38 85 -14 30 -33 77 -43 103 -9 26 -21 50 -25 53 -5 3 -9 12 -9
19 0 8 -12 40 -26 72 -14 32 -37 83 -51 113 -13 30 -31 71 -40 90 -8 19 -19
43 -24 52 -5 10 -9 27 -9 38 0 11 -4 20 -8 20 -5 0 -16 19 -26 43 -9 23 -23
56 -30 72 -12 27 -30 69 -56 130 -11 26 -39 94 -52 125 -6 14 -14 32 -19 40
-5 8 -12 22 -15 30 -25 65 -55 135 -64 152 -6 10 -10 24 -10 32 0 7 -7 19 -15
26 -8 7 -15 23 -15 36 0 13 -4 24 -10 24 -5 0 -10 11 -10 24 0 13 -7 29 -15
36 -8 7 -15 18 -15 25 0 8 -6 26 -14 42 -15 29 -61 132 -76 168 -5 11 -21 47
-35 80 -15 33 -34 76 -42 95 -8 19 -21 49 -28 65 -23 51 -56 128 -72 165 -30
73 -41 97 -67 150 -14 30 -26 61 -26 68 0 7 -4 20 -9 30 -16 30 -76 164 -95
212 -3 8 -10 22 -15 30 -5 8 -20 42 -34 75 -14 33 -37 86 -51 117 -14 31 -26
63 -26 70 0 8 -4 18 -8 24 -5 5 -19 34 -32 64 -12 30 -31 75 -42 100 -11 25
-25 59 -32 75 -7 17 -26 57 -41 90 -15 33 -31 69 -35 80 -28 74 -47 105 -63
105 -49 0 -347 -298 -449 -450 -10 -14 -36 -52 -59 -85 -67 -97 -154 -263
-183 -347 -8 -26 -20 -56 -25 -65 -26 -47 -93 -282 -120 -423 -54 -279 -54
-814 0 -1100 27 -147 81 -374 113 -480 13 -41 31 -102 41 -135 10 -33 33 -95
52 -138 18 -43 33 -83 33 -88 0 -5 11 -32 25 -61 14 -28 25 -55 25 -60 0 -4
11 -31 24 -60 21 -44 58 -132 95 -223 5 -11 23 -54 41 -95 17 -41 35 -84 40
-95 4 -11 21 -51 38 -90 17 -38 41 -97 53 -130 12 -33 25 -64 29 -70 3 -5 15
-32 25 -60 10 -27 33 -83 52 -123 18 -39 33 -75 33 -78 0 -3 7 -22 16 -42 8
-21 21 -50 28 -67 7 -16 18 -41 24 -55 6 -14 30 -72 53 -130 23 -58 49 -123
59 -145 10 -22 28 -65 40 -95 13 -30 27 -59 32 -64 4 -6 8 -16 8 -22 0 -7 14
-43 31 -81 16 -37 34 -77 39 -88 28 -67 38 -94 50 -125 8 -19 20 -44 27 -55 7
-11 13 -25 13 -33 0 -7 11 -37 24 -65 36 -78 56 -124 56 -131 0 -3 12 -31 26
-63 34 -78 45 -104 54 -128 15 -40 53 -131 70 -170 10 -22 23 -56 30 -75 7
-19 26 -63 42 -98 15 -35 28 -69 28 -76 0 -6 4 -16 9 -21 4 -6 34 -73 66 -150
32 -76 61 -146 65 -155 5 -8 18 -40 30 -70 12 -30 31 -75 42 -100 26 -61 31
-72 73 -175 21 -49 46 -109 56 -132 11 -23 19 -44 19 -47 0 -7 47 -114 60
-138 6 -10 10 -22 10 -28 0 -5 11 -33 24 -62 13 -29 43 -100 66 -158 23 -58
51 -125 62 -149 10 -24 28 -67 39 -95 11 -28 24 -60 28 -71 5 -11 20 -45 34
-75 14 -30 55 -129 92 -220 36 -91 73 -178 80 -195 7 -16 20 -46 28 -65 9 -19
27 -61 41 -92 14 -31 26 -59 26 -62 0 -4 8 -25 19 -49 10 -23 29 -67 41 -97
76 -185 461 -1103 479 -1142 11 -26 21 -49 21 -53 0 -3 9 -24 19 -48 11 -23
52 -120 91 -215 l71 -173 -32 -57 c-18 -31 -41 -73 -52 -92 -53 -94 -84 -153
-128 -240 -97 -197 -149 -307 -178 -382 -17 -43 -35 -86 -40 -95 -5 -10 -22
-49 -36 -88 -15 -38 -38 -96 -51 -128 -13 -32 -24 -63 -24 -69 0 -5 -6 -24
-14 -41 -8 -18 -22 -54 -31 -82 -8 -27 -19 -59 -24 -70 -9 -20 -47 -142 -75
-240 -7 -27 -23 -81 -34 -120 -12 -38 -42 -155 -67 -260 -76 -316 -87 -366
-120 -540 -14 -77 -30 -158 -35 -180 -6 -22 -19 -94 -31 -160 -25 -148 -33
-193 -48 -275 -7 -36 -17 -90 -22 -120 -68 -386 -149 -613 -252 -706 -27 -24
-57 -44 -66 -44 -9 0 -22 -5 -28 -11 -18 -18 -205 -1 -278 26 -46 16 -91 41
-113 63 -12 12 -28 22 -35 22 -17 0 -154 68 -162 80 -3 5 -15 10 -26 10 -10 0
-19 5 -19 10 0 6 -13 10 -29 10 -17 0 -32 4 -35 9 -3 5 -20 11 -38 14 -18 3
-53 10 -78 16 -220 48 -477 65 -770 51 -177 -9 -239 -16 -395 -48 -196 -41
-517 -192 -715 -336 -108 -79 -318 -278 -381 -361 -13 -16 -26 -32 -29 -35
-18 -16 -77 -100 -137 -196 -62 -97 -173 -309 -173 -329 0 -4 -6 -21 -14 -38
-20 -43 -61 -169 -79 -242 -31 -123 -37 -157 -53 -297 -14 -125 -15 -170 -4
-356 6 -118 18 -238 26 -268 8 -30 14 -65 14 -77 0 -12 14 -67 29 -122 127
-439 353 -797 696 -1100 134 -118 392 -277 570 -350 85 -35 254 -86 348 -105
278 -56 654 -64 897 -19 30 6 80 15 110 20 75 14 158 37 300 83 296 96 653
314 875 533 211 208 301 328 445 588 28 52 91 204 116 284 52 163 70 269 110
636 11 108 5 679 -11 968 -25 441 -22 1187 5 1237 5 9 8 54 9 100 0 47 5 101
11 120 5 19 10 55 10 81 0 25 7 54 15 65 8 10 15 39 15 64 0 25 7 56 15 70 8
14 14 40 15 58 0 18 4 40 9 50 6 9 17 44 26 77 9 33 21 74 26 90 6 17 13 40
16 53 3 12 9 22 14 22 5 0 9 11 9 25 0 14 4 33 9 43 5 9 15 33 23 52 70 167
172 343 301 515 54 71 271 297 337 350 134 108 179 143 206 160 17 11 51 33
75 49 24 16 71 45 104 64 33 19 75 43 93 53 18 11 39 19 47 19 8 0 15 4 15 9
0 45 161 -36 445 -226 171 -114 257 -185 400 -328 179 -179 327 -380 431 -585
47 -95 104 -217 104 -226 0 -3 6 -20 14 -37 42 -95 103 -310 131 -462 9 -49
20 -110 25 -135 5 -25 14 -103 19 -175 6 -71 16 -184 22 -250 13 -144 12 -559
-1 -705 -5 -58 -9 -186 -10 -286 0 -108 -5 -194 -11 -214 -19 -54 25 -566 66
-775 9 -44 19 -102 23 -130 5 -27 13 -60 20 -72 7 -12 12 -31 12 -42 0 -11 6
-35 14 -53 8 -18 26 -73 41 -123 15 -49 31 -99 35 -110 4 -11 15 -40 25 -65
10 -25 21 -54 25 -65 18 -48 146 -297 157 -307 7 -6 13 -15 13 -20 0 -33 192
-289 305 -408 123 -128 320 -286 451 -361 143 -82 373 -185 472 -210 17 -5 49
-14 70 -20 418 -118 908 -114 1351 13 387 110 687 277 941 522 100 97 208 231
256 316 10 19 21 37 24 40 14 12 90 172 114 237 48 135 73 208 84 248 34 125
42 157 56 225 8 41 21 111 28 155 17 103 17 468 1 550 -7 33 -17 94 -23 135
-6 41 -16 89 -22 105 -6 17 -13 49 -15 73 -3 23 -9 42 -14 42 -5 0 -9 13 -9
28 0 16 -7 37 -15 48 -8 10 -14 28 -15 39 0 37 -97 254 -164 370 -244 422
-581 724 -1003 899 -168 70 -363 119 -578 147 -106 13 -493 7 -575 -10 -30 -6
-80 -16 -110 -23 -30 -6 -86 -20 -125 -30 -38 -11 -79 -22 -90 -25 -11 -2 -29
-8 -40 -13 -11 -5 -29 -11 -40 -13 -11 -3 -78 -26 -150 -52 -286 -103 -351
-125 -382 -125 -17 0 -35 -4 -38 -10 -8 -13 -212 -13 -220 0 -3 6 -14 10 -24
10 -66 0 -181 124 -181 195 0 12 -7 28 -15 35 -8 7 -15 28 -15 46 0 19 -4 34
-10 34 -5 0 -10 22 -10 49 0 31 -5 53 -15 61 -8 7 -15 25 -15 41 0 15 -5 40
-11 56 -9 23 -42 177 -66 303 -4 24 -27 136 -60 295 -8 39 -17 87 -20 108 -3
20 -9 40 -14 43 -5 3 -9 14 -9 26 0 28 -30 159 -41 180 -5 10 -9 34 -9 53 0
19 -4 43 -9 53 -18 36 -41 121 -41 150 0 17 -4 34 -10 37 -5 3 -10 14 -10 23
0 9 -7 30 -15 46 -8 15 -15 45 -15 65 0 20 -7 45 -15 55 -8 11 -15 30 -15 42
0 13 -4 26 -10 29 -5 3 -10 20 -10 36 0 17 -7 37 -15 45 -8 9 -15 31 -15 49 0
19 -4 37 -10 40 -5 3 -10 19 -10 35 0 15 -7 30 -15 34 -8 3 -15 14 -15 24 0
16 -73 229 -124 362 -42 110 -69 177 -77 195 -5 11 -29 72 -53 136 -25 64 -54
138 -66 165 -12 27 -28 63 -35 79 -20 46 -73 160 -121 262 -24 51 -44 98 -45
105 0 7 -9 27 -19 43 -29 47 -80 156 -80 171 0 8 -4 14 -10 14 -5 0 -10 22
-10 49 0 28 5 53 10 56 6 3 10 15 10 25 0 10 6 31 14 47 8 15 19 42 26 58 7
17 18 43 26 58 8 16 14 35 14 43 0 8 4 22 9 32 5 9 17 37 26 62 10 25 24 61
32 80 26 63 30 74 43 115 7 22 18 54 25 70 7 17 20 50 30 75 34 87 46 115 55
132 6 10 10 25 10 33 0 8 4 23 9 33 5 9 24 53 41 97 17 44 35 88 40 97 6 10
10 24 10 32 0 8 6 27 14 43 8 15 19 42 26 58 7 17 18 43 26 58 8 16 14 37 14
47 0 10 5 22 10 25 6 3 10 13 10 22 0 8 7 31 16 51 9 21 20 46 24 57 21 53 43
112 50 130 4 11 15 37 24 58 9 21 16 44 16 51 0 8 7 19 15 26 8 7 15 23 15 36
0 12 5 26 10 29 6 3 10 16 10 29 0 12 7 31 15 42 8 10 15 28 15 40 0 11 3 24
7 28 7 6 20 41 49 126 14 41 33 86 55 132 5 10 9 23 9 29 0 6 7 27 16 47 9 21
23 53 31 72 8 19 18 43 23 52 6 10 10 24 10 32 0 8 6 27 14 43 8 15 18 39 24
53 5 14 17 42 26 63 9 21 16 44 16 52 0 9 4 23 9 33 5 9 17 37 26 62 30 78 46
114 55 132 6 10 10 22 10 28 0 6 11 33 25 62 14 28 25 59 25 68 0 9 7 25 15
36 8 10 15 27 15 36 0 9 8 31 17 50 31 61 33 68 33 88 0 11 5 20 10 20 6 0 10
9 10 21 0 12 7 37 16 57 9 21 23 53 32 72 8 19 19 43 23 52 5 10 9 27 9 37 0
11 5 23 10 26 6 3 10 13 10 22 0 15 21 67 46 115 8 14 14 33 14 42 0 8 11 36
25 62 14 26 25 55 25 65 0 10 5 21 10 24 6 3 10 16 10 28 0 13 6 31 13 42 7
11 21 45 31 75 10 30 23 59 27 65 5 5 9 18 9 30 0 11 7 29 15 39 8 11 15 30
15 43 0 13 4 23 9 23 5 0 12 13 16 30 4 16 11 32 16 35 5 4 9 15 9 25 0 10 8
33 17 52 30 60 33 68 33 82 0 8 8 29 17 48 31 61 33 68 33 87 0 10 7 24 15 31
8 7 15 23 15 36 0 12 5 26 10 29 6 3 10 16 10 28 0 12 7 31 15 41 8 11 15 28
15 38 0 18 3 25 33 86 9 19 17 40 17 48 0 14 3 22 33 82 9 19 17 40 17 48 0
14 3 22 33 82 9 19 17 39 17 46 0 12 19 59 41 98 5 10 9 23 9 29 0 11 22 67
41 101 5 10 9 26 9 36 0 10 7 27 15 38 8 10 15 28 15 39 0 11 7 29 15 39 8 11
15 28 15 38 0 10 5 18 10 18 6 0 10 11 10 24 0 12 11 44 25 70 14 26 25 55 25
64 0 9 7 26 15 36 8 11 15 28 15 38 0 10 4 26 9 36 4 9 16 35 26 57 9 22 21
48 26 57 5 10 9 26 9 36 0 10 7 27 15 38 8 10 15 29 15 40 0 12 7 27 15 34 8
7 15 25 15 41 0 16 5 29 10 29 6 0 10 11 10 24 0 14 5 28 10 31 6 3 10 15 10
25 0 10 6 31 14 47 20 38 41 90 57 138 7 22 19 47 25 55 7 8 14 29 16 45 1 17
8 29 13 28 6 -1 12 13 13 30 2 17 7 36 12 41 6 6 10 19 10 29 0 10 6 31 14 45
7 15 18 38 24 52 5 14 17 41 26 62 9 20 16 43 16 51 0 9 5 19 10 22 6 3 10 17
10 29 0 13 7 29 15 36 8 7 15 23 15 36 0 13 5 24 10 24 6 0 10 10 10 23 0 13
7 32 15 43 8 10 15 29 15 41 0 12 4 24 9 27 5 3 12 22 15 41 4 19 11 35 16 35
5 0 10 15 12 33 2 19 8 31 16 29 7 -1 12 9 12 28 0 30 2 36 34 97 9 17 16 43
16 56 0 14 5 29 10 32 6 3 10 21 10 40 0 19 4 36 9 39 4 3 11 22 14 43 3 21
13 70 22 108 76 340 80 378 79 735 0 263 -4 341 -17 410 -10 47 -22 110 -28
140 -19 101 -73 285 -105 360 -9 19 -19 44 -24 55 -19 47 -81 181 -90 195 -5
8 -19 35 -31 60 -23 48 -99 163 -111 168 -5 2 -8 8 -8 14 0 8 -89 128 -110
148 -3 3 -22 27 -44 53 -80 100 -309 317 -334 317 -6 0 -18 -15 -26 -32z
m-3088 -9827 c9 -5 51 -21 92 -37 41 -15 77 -30 80 -33 3 -4 25 -19 50 -35 25
-16 51 -38 59 -48 7 -11 26 -33 42 -49 16 -16 29 -36 29 -44 0 -8 5 -15 10
-15 6 0 10 -8 10 -19 0 -10 7 -24 15 -31 9 -7 15 -29 15 -51 0 -21 5 -41 10
-44 6 -3 10 -30 10 -60 0 -30 -4 -57 -10 -60 -5 -3 -10 -21 -10 -39 0 -19 -7
-39 -15 -46 -8 -7 -15 -19 -15 -28 0 -8 -11 -30 -25 -48 -14 -18 -25 -36 -25
-41 -1 -4 -19 -24 -42 -43 -22 -19 -51 -45 -64 -57 -13 -13 -30 -23 -38 -23
-8 0 -17 -4 -21 -9 -8 -14 -65 -41 -86 -41 -10 0 -20 -4 -23 -9 -6 -9 -99 -23
-151 -22 -53 1 -130 13 -139 22 -6 5 -18 9 -28 9 -23 0 -113 47 -153 80 -81
68 -145 144 -145 174 0 8 -7 16 -15 20 -9 3 -15 19 -15 41 0 19 -4 35 -10 35
-6 0 -10 35 -10 84 0 47 5 88 10 91 6 3 10 19 10 34 0 16 7 34 15 41 8 7 15
21 15 31 0 11 5 19 10 19 6 0 10 6 10 13 0 7 11 24 25 39 14 15 25 32 25 38 0
5 5 10 11 10 7 0 21 11 33 24 19 22 45 39 117 77 47 24 58 29 90 34 18 3 39
10 48 15 21 12 176 13 199 1z m3822 -4841 c192 -24 311 -48 429 -86 262 -86
455 -198 622 -363 91 -89 209 -245 209 -276 0 -7 4 -15 8 -17 10 -4 63 -134
82 -198 7 -25 16 -54 20 -65 4 -11 15 -49 25 -85 9 -36 20 -78 25 -95 32 -105
34 -442 4 -580 -28 -125 -59 -235 -75 -267 -5 -10 -9 -23 -9 -28 0 -20 -81
-181 -124 -249 -96 -150 -234 -295 -358 -379 -82 -55 -255 -140 -328 -161
-181 -51 -284 -64 -495 -64 -190 0 -263 9 -415 50 -30 8 -68 18 -85 23 -100
27 -303 120 -405 186 -113 72 -326 250 -369 307 -7 10 -27 33 -44 50 -30 31
-177 232 -177 242 0 3 -10 22 -23 43 -19 31 -65 129 -97 207 -28 68 -55 169
-75 278 -26 135 -13 367 26 502 27 94 33 109 152 365 29 63 126 192 196 260
105 104 197 170 326 234 180 89 320 127 605 165 94 12 252 13 350 1z m-7240
-75 c245 -40 496 -142 670 -273 200 -150 352 -365 430 -607 12 -38 26 -80 31
-93 5 -13 9 -40 9 -62 0 -21 4 -41 9 -44 16 -11 22 -78 22 -254 -1 -196 -15
-286 -71 -454 -48 -144 -115 -270 -254 -478 -43 -65 -260 -279 -351 -346 -148
-109 -308 -194 -465 -247 -170 -57 -271 -72 -475 -72 -217 0 -352 22 -569 91
-188 60 -404 200 -550 357 -42 45 -146 182 -146 192 0 3 -15 29 -33 58 -18 29
-43 77 -56 107 -13 30 -31 73 -41 95 -18 39 -54 163 -79 270 -32 139 -32 442
0 579 62 265 146 436 308 626 246 289 614 490 1006 551 194 30 433 32 605 4z"/>
</g>
</svg>
