<?xml version="1.0" standalone="no"?>
<!DOCTYPE svg PUBLIC "-//W3C//DTD SVG 20010904//EN"
 "http://www.w3.org/TR/2001/REC-SVG-20010904/DTD/svg10.dtd">
<svg version="1.0" xmlns="http://www.w3.org/2000/svg"
 width="3929.000000pt" height="300.000000pt" viewBox="0 0 3929.000000 300.000000"
 preserveAspectRatio="xMidYMid meet">

<g transform="translate(0.000000,300.000000) scale(0.100000,-0.100000)"
fill="#000000" stroke="none">
<path d="M19869 2945 c-43 -23 -51 -58 -65 -280 -16 -245 -38 -480 -60 -651
l-16 -121 -202 -6 c-339 -11 -494 -35 -667 -102 -148 -57 -133 -61 -126 31 12
143 9 789 -3 835 -7 24 -27 58 -46 77 -32 32 -38 34 -85 30 -58 -6 -92 -33
-110 -86 -13 -39 0 -101 26 -122 13 -10 15 -53 15 -268 0 -141 -5 -353 -11
-471 l-11 -215 -35 -31 c-32 -28 -35 -35 -35 -84 1 -39 7 -63 21 -82 12 -16
21 -43 21 -61 0 -41 -39 -382 -76 -663 -16 -126 -24 -225 -20 -247 20 -107
133 -131 181 -38 17 33 52 254 84 530 19 160 51 480 51 506 0 17 148 91 246
123 150 49 397 81 622 81 l114 0 -7 -42 c-43 -267 -185 -783 -292 -1058 -37
-96 -44 -123 -40 -164 4 -41 11 -55 41 -83 79 -73 124 -36 204 170 154 393
265 790 321 1152 69 441 101 789 101 1093 0 191 -7 219 -60 247 -35 18 -47 18
-81 0z"/>
<path d="M31435 2928 c-88 -31 -316 -150 -330 -171 -23 -35 -32 -77 -25 -112
5 -25 0 -38 -31 -75 -234 -287 -390 -733 -406 -1155 -10 -296 48 -504 184
-655 92 -103 204 -155 372 -172 360 -38 672 166 870 567 123 248 202 556 218
845 10 200 -33 386 -138 590 -83 163 -169 260 -280 317 -52 27 -60 28 -229 30
-106 1 -187 -2 -205 -9z m340 -273 c126 -56 254 -267 300 -494 27 -133 17
-360 -23 -511 -52 -195 -106 -307 -228 -472 -136 -182 -268 -275 -454 -319
-122 -28 -197 -23 -285 20 -110 54 -189 169 -221 321 -23 109 -14 329 19 470
47 195 143 432 239 587 57 94 210 259 266 287 31 16 36 16 109 -9 41 -14 85
-25 97 -25 53 0 93 67 83 141 -5 38 -4 39 21 33 15 -3 50 -16 77 -29z"/>
<path d="M33510 2907 c-169 -76 -247 -117 -275 -147 -27 -28 -30 -38 -31 -95
0 -56 -4 -67 -32 -99 -134 -153 -277 -454 -346 -731 -57 -230 -77 -517 -47
-688 51 -294 206 -487 437 -543 105 -26 288 -24 387 4 280 79 504 313 650 677
146 367 197 800 123 1050 -83 279 -232 502 -382 572 -56 27 -67 28 -234 31
l-175 2 -75 -33z m393 -252 c180 -85 331 -442 314 -739 -18 -306 -119 -559
-318 -799 -119 -143 -222 -210 -389 -253 -167 -43 -294 -19 -388 75 -189 189
-200 572 -27 1008 110 276 246 479 388 577 l55 38 81 -26 c106 -34 123 -33
155 5 21 25 26 41 26 89 l0 58 33 -7 c18 -5 49 -16 70 -26z"/>
<path d="M15295 2886 c-68 -32 -123 -82 -201 -182 -121 -154 -224 -335 -424
-739 -109 -220 -213 -419 -232 -443 -40 -50 -85 -82 -113 -81 -39 1 -118 121
-205 309 -67 146 -82 189 -125 363 -55 225 -103 335 -176 403 -42 39 -82 51
-177 53 -59 1 -80 -2 -107 -19 -56 -35 -77 -129 -41 -184 9 -14 16 -36 16 -50
0 -13 -22 -130 -49 -258 -100 -470 -171 -829 -190 -965 -42 -290 -54 -612 -27
-678 27 -64 109 -82 153 -32 31 34 43 83 43 176 0 240 30 444 147 1026 53 259
103 507 112 553 8 45 18 82 21 82 10 0 77 -191 119 -341 93 -335 161 -482 280
-604 71 -73 115 -89 229 -83 73 3 96 9 134 30 75 45 98 81 313 498 84 162 187
356 230 430 77 134 222 358 270 415 l25 30 0 -60 c0 -220 -72 -799 -110 -880
-5 -11 -30 -115 -55 -230 -25 -116 -83 -355 -130 -530 -150 -565 -177 -774
-109 -854 51 -60 110 -49 161 32 34 54 46 109 34 154 -14 51 10 168 128 608
211 789 256 1063 297 1777 9 142 -31 245 -109 282 -47 22 -73 20 -132 -8z"/>
<path d="M22744 2885 c-53 -26 -156 -124 -220 -209 -102 -134 -202 -312 -389
-691 -120 -242 -220 -432 -244 -462 -40 -51 -84 -83 -115 -83 -29 0 -107 114
-175 255 -81 166 -115 256 -142 379 -38 177 -100 340 -156 413 -44 57 -84 75
-183 80 -99 4 -132 -6 -169 -53 -25 -32 -28 -106 -6 -144 20 -35 18 -80 -6
-190 -48 -221 -181 -873 -199 -980 -47 -274 -75 -691 -51 -763 17 -52 66 -91
105 -83 40 8 74 42 86 85 5 20 14 124 20 231 5 107 19 256 30 330 26 177 232
1205 243 1217 9 8 68 -162 122 -350 93 -319 159 -465 262 -577 76 -82 129
-103 250 -98 83 4 97 7 135 34 62 43 114 123 253 391 268 518 382 717 506 883
l71 95 -6 -165 c-8 -245 -61 -646 -101 -770 -8 -25 -35 -137 -60 -250 -25
-113 -65 -281 -90 -375 -151 -567 -176 -687 -177 -845 0 -52 4 -107 10 -122
12 -30 65 -68 94 -68 29 0 84 57 108 111 18 43 21 63 15 118 -8 83 9 168 109
539 200 744 275 1140 296 1567 5 94 14 194 20 224 22 104 -12 253 -72 308 -52
48 -103 54 -174 18z"/>
<path d="M4760 2851 c-63 -22 -129 -41 -147 -41 -20 0 -44 -10 -65 -28 -18
-15 -46 -34 -62 -42 -62 -32 -85 -123 -47 -187 11 -17 30 -34 42 -38 22 -7 22
-9 15 -144 -8 -176 -10 -186 -110 -651 -96 -444 -127 -610 -150 -787 -23 -180
-41 -434 -32 -467 20 -78 106 -110 164 -61 37 31 49 79 56 230 9 174 54 433
127 736 l30 127 47 -15 c53 -17 228 -20 277 -5 26 8 47 0 175 -64 188 -94 319
-174 570 -349 113 -78 277 -190 365 -248 88 -57 168 -114 178 -125 10 -11 32
-26 48 -32 l29 -12 -19 -27 c-31 -44 -35 -75 -13 -123 24 -54 44 -71 88 -72
27 -1 36 -6 40 -24 9 -33 61 -72 96 -72 38 0 95 55 104 99 4 17 10 33 14 36
10 6 192 33 275 40 39 3 80 13 92 21 64 41 69 141 12 201 l-34 35 -133 -4
-134 -3 6 26 c14 69 36 280 46 424 5 88 10 399 10 691 l0 532 68 7 c37 4 79
13 94 21 41 21 61 68 55 128 -4 42 -10 55 -42 84 -43 40 -13 40 -349 0 -166
-19 -192 -25 -217 -45 -51 -43 -51 -143 1 -195 26 -25 35 -28 98 -28 l69 0 6
-102 c4 -57 10 -263 13 -458 7 -364 -2 -603 -31 -821 -14 -102 -50 -298 -57
-304 -2 -1 -12 -5 -24 -9 -20 -6 -20 -3 -16 47 9 114 -67 193 -297 311 -162
82 -220 119 -452 287 -80 58 -196 137 -257 175 l-110 69 91 47 c331 175 409
237 484 383 55 106 70 188 54 286 -17 101 -56 178 -153 294 l-83 100 -145 73
c-183 91 -234 103 -465 109 l-180 4 -115 -40z m433 -226 c283 -49 458 -188
474 -374 4 -55 3 -58 -49 -131 -30 -41 -81 -97 -114 -123 -74 -60 -264 -154
-410 -202 l-111 -37 -85 31 c-48 16 -119 36 -158 45 -40 8 -73 16 -75 18 -2 2
3 35 10 73 29 152 47 318 52 492 7 208 -6 186 117 208 98 18 247 18 349 0z"/>
<path d="M7897 2869 c-31 -18 -44 -62 -51 -169 -10 -151 -26 -252 -43 -272
-21 -24 -34 -90 -24 -125 11 -37 -52 -296 -186 -760 l-86 -303 -32 0 c-43 0
-82 -33 -94 -78 -19 -69 -15 -413 5 -510 6 -30 51 -72 77 -72 11 0 46 -25 78
-55 70 -67 174 -119 272 -135 95 -17 278 -8 392 19 290 66 510 189 729 406
172 170 247 346 225 528 -18 146 -90 254 -216 320 -83 43 -130 57 -347 102
-109 22 -193 46 -235 66 l-66 30 25 20 c61 49 140 94 321 182 294 144 428 240
514 369 48 73 55 122 25 183 -18 38 -33 51 -81 75 -114 58 -219 82 -384 87
-221 8 -401 -26 -584 -108 -35 -16 -65 -29 -67 -29 -2 0 -4 29 -4 65 0 77 -17
123 -55 153 -29 23 -78 28 -108 11z m912 -365 c33 -4 61 -11 61 -15 0 -15
-115 -87 -294 -184 -424 -229 -536 -327 -536 -468 0 -71 22 -118 83 -174 85
-79 245 -138 442 -164 161 -21 320 -81 369 -139 60 -72 15 -183 -133 -330
-258 -256 -572 -400 -870 -400 -142 0 -217 31 -293 121 l-38 45 39 140 c21 76
82 285 135 464 107 359 174 610 212 800 24 121 26 126 65 162 74 68 212 118
379 137 93 11 297 13 379 5z"/>
<path d="M27345 2861 c-51 -31 -63 -53 -85 -151 -35 -158 -95 -373 -174 -618
-82 -255 -146 -495 -171 -640 -9 -52 -20 -175 -25 -274 -5 -99 -10 -182 -13
-184 -4 -4 -387 635 -475 791 -70 126 -141 286 -196 443 -25 73 -58 158 -73
189 -33 68 -106 151 -139 159 -19 5 -24 13 -24 38 0 75 -81 140 -143 115 -46
-19 -64 -73 -71 -219 -8 -151 -37 -357 -76 -540 -28 -133 -179 -822 -240
-1095 -36 -162 -34 -189 17 -246 39 -43 65 -49 112 -25 66 35 133 279 160 586
15 162 42 303 116 610 35 146 72 313 81 372 13 78 21 104 30 97 11 -9 44 -93
100 -254 43 -124 420 -853 545 -1054 69 -110 190 -276 261 -355 38 -43 48 -49
85 -50 45 -1 75 19 98 64 8 16 19 117 29 265 31 454 75 675 236 1169 91 280
167 581 177 699 5 56 4 59 -32 92 -41 39 -67 43 -110 16z"/>
<path d="M16462 2823 c-28 -14 -66 -41 -83 -59 -27 -28 -32 -41 -32 -77 1 -48
23 -101 49 -115 15 -8 15 -18 4 -98 -35 -253 -119 -582 -262 -1024 -40 -123
-253 -680 -285 -745 -14 -27 -51 -88 -83 -135 -91 -135 -140 -248 -140 -322 0
-71 61 -125 131 -115 74 10 147 54 409 248 121 89 224 139 375 183 231 66 263
69 770 75 504 7 490 5 520 67 28 59 12 121 -41 163 -26 21 -36 21 -455 21
-462 0 -567 -8 -769 -56 -216 -51 -328 -103 -479 -222 -29 -24 -55 -41 -57
-39 -2 2 10 28 26 59 16 30 70 174 119 319 48 145 117 344 151 441 l62 177 37
-1 c47 -2 384 39 486 58 98 19 220 65 273 104 46 33 58 69 49 146 -6 56 -38
94 -80 94 -17 0 -58 -15 -91 -34 -34 -19 -86 -41 -116 -50 -48 -14 -460 -67
-468 -60 -2 1 24 112 56 246 33 133 64 263 69 286 l8 44 130 34 c337 88 333
87 465 88 115 1 131 -1 191 -27 87 -36 120 -35 153 3 64 76 48 178 -33 219
-65 33 -158 51 -273 51 -136 0 -223 -12 -431 -61 -92 -21 -170 -39 -172 -39
-3 0 -5 17 -5 38 0 20 -9 56 -19 79 -32 70 -75 80 -159 36z"/>
<path d="M3154 2796 c-48 -21 -78 -72 -80 -131 -1 -36 -9 -63 -27 -92 -34 -53
-47 -84 -123 -296 -102 -283 -163 -441 -315 -813 -209 -515 -289 -729 -289
-775 0 -48 20 -90 56 -118 38 -30 59 -26 103 16 31 31 60 88 152 300 l113 262
22 -20 c27 -25 82 -29 119 -9 31 16 55 58 55 93 0 19 9 28 38 40 50 20 173 37
267 37 l73 0 12 -52 c18 -86 48 -295 60 -418 16 -165 26 -205 62 -235 52 -44
116 -26 144 41 28 66 9 308 -50 635 -14 79 -22 153 -19 177 4 29 0 50 -16 79
-26 48 -45 183 -71 520 -25 317 -41 405 -96 532 -13 29 -24 68 -24 85 -1 55
-34 113 -79 135 -47 24 -46 24 -87 7z m50 -646 c9 -69 20 -183 26 -255 6 -71
18 -170 25 -220 24 -146 37 -131 -127 -138 -81 -3 -164 -12 -190 -20 -27 -8
-48 -12 -48 -7 0 4 18 56 41 116 22 60 74 204 115 319 64 180 132 341 140 332
2 -1 10 -59 18 -127z"/>
<path d="M10672 2790 c-48 -29 -74 -77 -69 -126 3 -26 -1 -48 -10 -60 -33 -43
-74 -139 -141 -324 -103 -287 -149 -406 -314 -812 -145 -358 -272 -683 -289
-742 -14 -47 5 -107 45 -144 81 -74 113 -38 255 286 132 302 127 293 136 270
10 -24 70 -40 103 -27 43 16 72 50 79 92 4 29 12 41 32 49 49 19 176 37 262
38 l86 0 16 -82 c22 -114 44 -271 57 -408 13 -138 25 -185 50 -210 42 -42 107
-37 143 12 40 54 31 245 -32 623 -16 94 -28 193 -27 221 1 37 -4 58 -16 71
-22 24 -50 239 -74 558 -18 250 -38 358 -89 483 -19 47 -35 103 -35 123 0 45
-38 95 -87 115 -41 18 -42 18 -81 -6z m77 -812 c7 -79 21 -207 31 -286 11 -79
20 -144 20 -146 0 -2 -64 -6 -142 -9 -79 -3 -166 -13 -195 -20 l-51 -15 25 67
c14 36 69 188 123 336 53 149 110 295 125 325 l29 55 12 -82 c6 -45 17 -146
23 -225z"/>
<path d="M24365 2792 c-53 -33 -68 -58 -73 -119 -3 -39 -14 -72 -33 -103 -32
-53 -49 -94 -134 -330 -100 -277 -137 -371 -300 -775 -203 -502 -295 -742
-295 -771 0 -59 62 -144 105 -144 51 0 87 57 204 325 62 143 115 262 117 264
2 2 12 -3 21 -11 28 -24 70 -30 107 -14 42 17 66 51 66 92 0 30 4 34 48 48 99
32 342 51 342 26 0 -6 11 -77 25 -158 13 -81 31 -214 40 -297 9 -82 20 -167
26 -187 19 -72 106 -102 154 -54 35 36 47 94 40 200 -7 102 -47 391 -70 512
-8 44 -15 106 -15 139 0 39 -6 69 -16 84 -22 31 -39 160 -69 517 -26 315 -40
390 -94 527 -17 43 -31 92 -31 110 0 88 -100 160 -165 119z m59 -682 c8 -80
18 -181 21 -225 4 -44 13 -124 21 -177 8 -54 14 -113 14 -131 l0 -34 -137 -6
c-76 -3 -162 -12 -190 -20 -29 -8 -53 -13 -53 -11 0 2 13 36 29 77 16 40 68
183 116 317 87 246 143 376 156 362 4 -4 14 -72 23 -152z"/>
<path d="M1530 2753 c-91 -5 -269 -33 -376 -58 -143 -34 -404 -83 -478 -91
l-63 -6 -13 31 c-37 90 -154 76 -181 -21 -6 -24 -20 -59 -30 -79 -24 -47 -24
-96 1 -136 18 -30 18 -41 9 -155 -16 -193 -65 -521 -119 -788 -46 -230 -51
-246 -77 -265 -57 -42 -122 -107 -137 -140 -31 -65 -14 -152 40 -194 l28 -22
-33 -102 c-18 -56 -49 -139 -67 -185 -32 -76 -34 -90 -34 -192 0 -107 1 -111
24 -121 38 -18 92 -3 116 31 56 78 143 315 215 584 l42 160 52 29 c28 16 110
49 181 73 234 80 458 125 694 140 98 6 112 10 138 33 55 49 56 140 3 197 -40
42 -50 42 -280 10 -256 -37 -396 -68 -613 -138 -52 -16 -96 -28 -98 -25 -2 2
11 85 30 183 40 205 80 461 96 614 7 58 15 131 18 164 l7 59 190 32 c105 18
244 45 310 60 151 33 289 53 435 61 127 7 162 20 185 64 48 93 -20 203 -122
198 -21 -1 -63 -3 -93 -5z"/>
<path d="M28715 2731 c-96 -58 -145 -173 -201 -476 -93 -500 -251 -1191 -323
-1415 -17 -52 -32 -114 -33 -137 l-3 -43 -62 0 c-55 0 -64 3 -79 24 -22 35
-76 51 -110 34 -92 -45 -99 -223 -10 -277 45 -28 139 -51 211 -51 68 0 592
103 790 155 657 172 1031 480 1219 1003 101 281 84 584 -45 798 -53 88 -172
194 -270 243 -139 69 -361 101 -689 101 -120 0 -152 -4 -186 -19 -23 -11 -46
-27 -52 -37 -8 -14 -11 -11 -22 22 -15 48 -57 94 -84 94 -12 0 -35 -8 -51 -19z
m193 -294 c22 -11 84 -13 312 -10 387 7 468 -12 600 -134 179 -165 198 -455
51 -758 -180 -369 -516 -621 -982 -735 -138 -34 -497 -95 -505 -87 -4 3 10 59
29 124 63 206 93 334 218 912 115 537 123 565 154 607 18 24 41 66 50 95 l18
52 14 -26 c7 -15 26 -33 41 -40z"/>
<path d="M38950 2733 c-131 -5 -390 -34 -535 -59 -204 -36 -1133 -247 -1196
-272 -73 -29 -107 -129 -70 -205 31 -64 86 -84 132 -49 16 12 58 22 123 30 69
9 154 30 280 71 100 33 205 67 235 75 l54 16 -7 -68 c-3 -37 -15 -224 -26
-417 -31 -538 -39 -659 -56 -805 -18 -158 -54 -348 -89 -475 -34 -125 -33
-185 4 -227 24 -27 36 -33 69 -33 52 0 76 22 103 94 108 287 170 792 189 1526
6 209 14 396 18 415 l8 34 104 18 c259 43 473 66 793 84 121 7 144 18 171 84
20 52 -2 121 -48 149 -35 22 -45 22 -256 14z"/>
<path d="M36199 2576 c-2 -2 -94 -9 -204 -16 -419 -24 -648 -94 -818 -250 -69
-63 -92 -109 -112 -232 -17 -97 -17 -98 5 -143 41 -84 218 -178 685 -364 327
-131 518 -222 600 -289 80 -64 84 -73 60 -119 -30 -57 -113 -136 -175 -166
-149 -73 -401 -95 -715 -62 -88 9 -212 21 -275 26 -63 6 -136 17 -161 25 -53
17 -81 10 -119 -30 -20 -22 -24 -36 -23 -81 3 -119 62 -163 248 -185 146 -17
524 -32 633 -26 307 20 519 90 656 216 155 143 214 335 146 475 -14 29 -55 81
-99 123 -63 62 -94 83 -195 133 -69 33 -225 94 -361 140 -316 107 -414 143
-509 191 -102 51 -188 108 -183 122 6 19 119 94 212 140 183 90 312 116 582
116 l163 0 31 28 c60 53 46 170 -25 213 -32 19 -40 22 -47 15z"/>
</g>
</svg>
