<?xml version="1.0" standalone="no"?>
<!DOCTYPE svg PUBLIC "-//W3C//DTD SVG 20010904//EN"
 "http://www.w3.org/TR/2001/REC-SVG-20010904/DTD/svg10.dtd">
<svg version="1.0" xmlns="http://www.w3.org/2000/svg"
 width="1700.000000pt" height="400.000000pt" viewBox="0 0 1700.000000 400.000000"
 preserveAspectRatio="xMidYMid meet">
<metadata>
Created by potrace 1.16, written by Peter Selinger 2001-2019
</metadata>
<g transform="translate(0.000000,400.000000) scale(0.100000,-0.100000)"
fill="#ffffff" stroke="none">
<path d="M16063 3139 c-120 -20 -259 -97 -320 -177 -43 -56 -73 -142 -73 -205
1 -49 9 -77 60 -209 21 -53 21 -59 7 -82 -18 -27 -82 -44 -267 -70 -58 -8
-137 -22 -175 -31 -79 -18 -379 -109 -439 -133 -33 -13 -47 -13 -85 -3 -54 14
-402 117 -581 171 -69 21 -242 73 -385 115 -143 42 -309 91 -370 110 -492 148
-561 162 -738 152 -56 -3 -127 -14 -157 -23 -108 -32 -264 -125 -243 -144 4
-5 123 -44 263 -88 725 -228 1602 -510 1590 -512 -12 -1 -1834 -611 -1839
-616 -9 -9 65 -64 134 -99 92 -46 184 -65 326 -65 161 0 239 17 579 126 162
53 401 129 530 170 129 42 343 111 475 154 132 43 285 92 341 109 l101 32 78
-32 c173 -69 372 -116 655 -154 237 -33 269 -59 198 -160 -31 -43 -33 -52 -36
-151 -4 -101 -3 -107 27 -169 104 -211 422 -311 694 -217 143 49 245 136 294
250 25 58 22 194 -5 255 -35 78 -89 144 -159 194 -134 95 -261 118 -598 108
-297 -10 -486 16 -609 83 -54 30 -144 107 -177 153 l-21 30 42 53 c76 100 186
168 335 207 72 19 110 22 375 24 331 2 412 14 558 81 100 46 200 144 231 229
57 151 2 343 -124 439 -111 85 -315 125 -492 95z m295 -157 c67 -26 116 -63
150 -114 23 -35 27 -51 27 -117 0 -65 -4 -83 -27 -122 -67 -114 -204 -189
-345 -191 -79 0 -162 22 -218 61 -122 83 -141 280 -39 400 43 50 77 69 164 93
83 23 213 18 288 -10z m-1495 -912 c35 -39 35 -79 1 -113 -66 -67 -194 -29
-194 57 0 32 34 75 70 89 35 14 95 -2 123 -33z m1398 -465 c61 -8 157 -54 210
-102 133 -120 114 -323 -39 -406 -249 -136 -553 -19 -578 221 -16 150 86 267
253 291 32 4 69 6 83 5 14 -2 46 -6 71 -9z"/>
<path d="M3744 2660 c-147 -15 -491 -109 -571 -156 -46 -27 -62 -59 -43 -93
11 -22 54 -29 65 -11 9 14 226 82 243 75 19 -7 12 -57 -29 -200 -52 -183 -62
-194 -164 -195 -64 0 -99 -18 -103 -51 -4 -35 32 -77 73 -85 69 -13 69 -37 -1
-197 -95 -215 -169 -338 -276 -454 -61 -65 -71 -95 -39 -113 81 -43 267 195
394 501 52 127 113 239 131 239 50 0 281 -212 315 -289 11 -26 29 -98 40 -160
24 -136 38 -161 87 -161 92 0 126 66 57 111 -34 22 -38 31 -59 115 -43 179
-133 311 -279 412 -47 33 -47 34 -29 52 10 10 66 44 124 75 145 79 240 147
307 219 61 66 88 116 98 186 6 41 3 49 -29 92 -55 71 -85 89 -163 93 -38 2
-105 0 -149 -5z m227 -127 l22 -21 -23 -47 c-50 -103 -178 -214 -353 -305
-111 -57 -137 -62 -137 -26 0 34 63 250 93 318 40 90 86 108 269 105 95 -2
110 -4 129 -24z"/>
<path d="M6714 2660 c-95 -10 -239 -43 -409 -95 -182 -55 -228 -89 -206 -148
8 -19 18 -27 35 -27 14 0 27 4 31 10 9 14 226 82 243 75 19 -7 12 -64 -28
-199 -54 -186 -62 -196 -160 -196 -66 0 -98 -14 -106 -46 -9 -36 23 -76 71
-90 55 -15 62 -31 41 -95 -25 -78 -146 -325 -198 -405 -25 -38 -75 -102 -111
-142 -69 -75 -81 -104 -48 -122 81 -43 267 195 394 501 52 127 113 239 131
239 32 0 167 -107 254 -201 56 -62 80 -119 102 -250 22 -132 36 -159 86 -159
86 0 130 71 64 105 -37 19 -43 31 -68 131 -43 173 -134 304 -277 402 -47 33
-47 34 -29 52 10 10 66 44 124 75 263 143 387 267 406 407 5 37 2 49 -24 84
-53 72 -91 94 -169 99 -37 2 -105 0 -149 -5z m227 -126 l21 -22 -19 -44 c-25
-56 -119 -157 -198 -213 -77 -55 -248 -145 -276 -145 -20 0 -21 4 -14 46 9 60
61 235 90 300 38 86 87 104 267 101 95 -2 110 -4 129 -23z"/>
<path d="M7553 2585 c-153 -129 -358 -464 -429 -700 -65 -216 -12 -431 123
-496 77 -37 204 -39 308 -4 223 74 403 282 472 543 21 82 26 126 30 288 6 226
-3 277 -63 337 -47 47 -75 54 -254 61 l-145 6 -42 -35z m357 -106 c20 -11 45
-35 56 -52 39 -65 15 -324 -46 -509 -37 -109 -87 -187 -179 -278 -130 -130
-283 -200 -390 -180 -126 23 -187 148 -150 310 34 152 117 345 174 406 29 31
36 33 60 24 40 -15 111 -12 125 5 20 24 4 58 -40 85 -22 14 -40 28 -40 32 0
23 186 132 270 159 73 24 115 23 160 -2z"/>
<path d="M11256 2588 c-8 -18 -28 -98 -46 -178 -70 -317 -201 -626 -347 -820
-68 -91 -148 -170 -171 -170 -52 0 -69 -69 -28 -117 24 -28 24 -28 59 -11 63
30 240 258 370 474 23 38 47 66 64 73 53 21 471 65 513 54 24 -6 25 -1 -2 -92
-28 -102 -32 -319 -6 -367 32 -58 111 -68 197 -24 51 25 68 47 54 68 -8 13
-30 18 -94 22 l-84 5 -3 51 c-4 66 32 239 67 329 15 39 31 82 35 97 7 31 105
236 167 350 l41 76 -17 51 c-9 28 -21 51 -25 51 -21 0 -106 -140 -186 -304
-84 -171 -87 -176 -123 -186 -92 -24 -464 -40 -476 -20 -4 6 9 66 29 133 103
354 115 487 44 487 -12 0 -24 -12 -32 -32z"/>
<path d="M1415 2584 c-11 -3 -51 -12 -90 -20 -38 -9 -154 -38 -257 -66 -108
-29 -198 -48 -211 -44 -13 3 -30 20 -40 41 -9 20 -24 38 -34 42 -22 9 -63 -40
-63 -77 0 -53 -55 -85 -195 -111 -33 -7 -77 -20 -98 -31 -32 -16 -37 -23 -37
-54 0 -23 5 -37 17 -41 9 -4 64 1 121 11 69 12 108 14 114 8 13 -13 -26 -131
-53 -160 -11 -12 -31 -22 -44 -22 -25 0 -55 -23 -55 -43 0 -7 9 -27 20 -45 25
-41 25 -49 -1 -109 -58 -132 -169 -503 -169 -565 0 -31 27 -68 49 -68 24 0 37
32 62 147 43 200 143 468 189 506 32 28 59 31 395 47 284 15 375 31 375 71 0
10 -11 19 -26 23 -14 4 -164 11 -332 16 -169 5 -315 12 -324 15 -13 5 -16 14
-12 34 12 49 65 180 82 201 31 38 298 115 707 203 133 28 150 34 153 53 2 13
-4 24 -15 29 -22 9 -200 16 -228 9z"/>
<path d="M5484 2566 c-56 -13 -164 -41 -240 -62 -215 -57 -230 -60 -250 -43
-9 8 -23 29 -31 47 -25 60 -69 35 -93 -55 -14 -54 -50 -74 -182 -103 -107 -23
-143 -44 -143 -85 0 -44 22 -51 112 -35 43 7 92 14 108 14 28 1 30 -2 28 -32
0 -18 -14 -59 -30 -90 -23 -48 -33 -58 -58 -60 -16 -2 -36 -8 -42 -14 -19 -16
-16 -56 7 -89 l21 -28 -34 -83 c-48 -116 -111 -313 -143 -442 -26 -107 -26
-111 -9 -143 21 -37 49 -43 65 -13 6 11 20 62 31 113 26 124 105 363 149 451
23 46 44 75 61 83 15 7 106 17 205 23 482 28 536 35 542 76 2 16 -4 23 -24 28
-16 4 -163 11 -328 16 -166 5 -309 12 -318 15 -26 10 -22 39 20 144 32 81 42
97 72 112 55 28 289 96 465 134 88 20 204 45 258 57 105 23 131 39 105 65 -12
11 -43 16 -119 19 -85 3 -123 -1 -205 -20z"/>
<path d="M9105 2570 c-49 -11 -174 -43 -277 -71 -109 -30 -198 -49 -211 -45
-13 3 -30 20 -40 41 -9 20 -24 38 -34 42 -22 9 -63 -40 -63 -76 0 -53 -46 -81
-183 -110 -122 -26 -147 -41 -147 -87 0 -23 6 -37 17 -41 9 -4 64 1 121 11 62
10 108 14 113 9 13 -13 -26 -134 -51 -161 -11 -12 -32 -22 -45 -22 -52 0 -68
-57 -29 -101 20 -22 18 -38 -15 -115 -63 -148 -161 -482 -161 -547 0 -30 27
-67 49 -67 24 0 37 32 62 148 44 201 143 466 189 505 32 28 59 31 395 47 116
6 237 15 270 21 60 10 105 31 105 49 0 24 -57 31 -352 40 -172 5 -321 12 -331
16 -22 8 -19 23 25 138 17 44 40 89 52 101 38 38 307 114 701 198 133 28 150
34 153 53 4 29 -16 36 -128 40 -69 3 -119 -2 -185 -16z"/>
<path d="M2124 2556 c-17 -8 -45 -31 -62 -51 -43 -53 -282 -536 -282 -572 0
-15 -9 -71 -20 -123 -42 -198 -71 -490 -54 -534 10 -26 84 -20 166 13 151 60
406 133 721 206 165 39 184 49 152 85 -13 15 -31 20 -66 20 -79 0 -331 -48
-556 -105 -117 -30 -235 -57 -264 -61 l-52 -7 6 104 c6 119 41 303 63 337 8
13 25 27 37 31 12 5 153 32 312 60 275 49 430 82 443 95 3 4 0 12 -7 19 -18
18 -361 13 -540 -7 -97 -11 -148 -13 -155 -6 -26 26 83 241 172 342 l44 48
323 0 c270 0 325 2 335 15 19 23 8 49 -30 67 -69 34 -619 53 -686 24z"/>
<path d="M9873 2550 c-18 -11 -46 -38 -62 -60 -44 -61 -271 -523 -271 -552 0
-14 -9 -70 -20 -124 -45 -216 -72 -509 -51 -543 15 -23 96 -7 266 52 167 59
349 110 618 172 165 39 184 49 152 85 -13 15 -31 20 -66 20 -78 0 -330 -47
-559 -105 -118 -30 -237 -58 -264 -61 l-49 -7 6 104 c7 116 30 252 53 316 12
32 23 44 47 52 18 6 160 33 317 61 271 48 425 81 438 94 3 4 0 12 -7 19 -18
18 -361 13 -539 -7 -79 -9 -148 -14 -153 -11 -17 11 -9 45 24 118 40 85 113
199 158 245 l31 32 317 0 c342 0 361 3 346 49 -4 13 -22 29 -40 37 -42 17
-281 34 -495 34 -146 0 -169 -2 -197 -20z"/>
<path d="M4366 2528 c-17 -58 -171 -710 -191 -807 -71 -340 -72 -495 -5 -516
31 -10 38 5 45 104 15 211 52 397 161 801 58 214 84 328 84 361 0 43 -84 93
-94 57z"/>
</g>
</svg>
