<svg id="icon" xmlns="http://www.w3.org/2000/svg" width="20" height="20"><style>.st0{fill:#767050}</style><path id="パス_154" class="st0" d="M10 1.8c2.7 0 3 0 4 .1.6 0 1.3.1 1.9.3.4.2.8.4 1.1.8.3.3.6.7.7 1.2.3.5.4 1.1.4 1.8 0 1.1.1 1.4.1 4s0 3-.1 4c0 .6-.1 1.3-.3 1.9-.2.4-.4.8-.7 1.2-.3.3-.7.6-1.2.7-.6.2-1.2.3-1.9.3-1.1 0-1.4.1-4 .1s-3 0-4-.1c-.6 0-1.3-.1-1.9-.3-.4-.2-.8-.4-1.2-.7-.3-.3-.6-.7-.7-1.2-.2-.6-.3-1.2-.3-1.9 0-1.1-.1-1.4-.1-4s0-3 .1-4c0-.6.1-1.3.3-1.9.2-.4.4-.8.7-1.1s.7-.6 1.2-.7c.6-.3 1.2-.4 1.9-.4 1-.1 1.3-.1 4-.1M10 0C7.3 0 6.9 0 5.9.1 5 .1 4.2.2 3.4.5c-.6.3-1.2.7-1.7 1.2S.8 2.8.5 3.4C.2 4.2.1 5 .1 5.9 0 6.9 0 7.3 0 10s0 3.1.1 4.1c0 .8.2 1.7.5 2.4s.6 1.3 1.2 1.8c.5.5 1.1.9 1.8 1.2.8.3 1.6.4 2.4.5h4c2.7 0 3.1 0 4.1-.1.8 0 1.7-.2 2.4-.5s1.3-.6 1.8-1.2c.5-.5.9-1.1 1.2-1.8.3-.8.4-1.6.5-2.4 0-1.1.1-1.4.1-4.1s0-3.1-.1-4.1c0-.8-.2-1.7-.5-2.4s-.6-1.3-1.2-1.8c-.5-.5-1.1-.9-1.8-1.2-.8-.3-1.6-.4-2.4-.5-1 .1-1.4.1-4.1.1z"/><path id="パス_155" class="st0" d="M10 4.9c-2.8 0-5.1 2.3-5.1 5.1s2.3 5.1 5.1 5.1 5.1-2.3 5.1-5.1-2.3-5.1-5.1-5.1zm0 8.4c-1.8 0-3.3-1.5-3.3-3.3S8.2 6.7 10 6.7s3.3 1.5 3.3 3.3c0 1.8-1.5 3.3-3.3 3.3z"/><circle id="楕円形_24" class="st0" cx="15.3" cy="4.7" r="1.2"/></svg>