<?xml version="1.0" standalone="no"?>
<!DOCTYPE svg PUBLIC "-//W3C//DTD SVG 20010904//EN"
 "http://www.w3.org/TR/2001/REC-SVG-20010904/DTD/svg10.dtd">
<svg version="1.0" xmlns="http://www.w3.org/2000/svg"
 width="3000.000000pt" height="300.000000pt" viewBox="0 0 3000.000000 300.000000"
 preserveAspectRatio="xMidYMid meet">
<metadata>
Created by potrace 1.16, written by Peter Selinger 2001-2019
</metadata>
<g transform="translate(0.000000,300.000000) scale(0.100000,-0.100000)"
fill="#000000" stroke="none">
<path d="M8890 2730 c-434 -35 -1318 -202 -1462 -276 -69 -36 -88 -95 -43
-139 32 -33 67 -32 174 4 85 30 434 105 542 117 69 8 94 -10 83 -60 -25 -119
-216 -534 -258 -561 -41 -27 -87 -35 -246 -41 -164 -6 -224 -16 -252 -41 -20
-18 -24 -64 -8 -93 18 -34 96 -71 180 -86 106 -18 120 -26 120 -70 0 -43 -33
-109 -118 -239 -218 -330 -475 -612 -684 -749 -111 -73 -168 -123 -168 -150 0
-7 10 -22 23 -34 33 -31 95 -28 185 7 160 64 296 168 484 374 142 156 227 267
306 397 132 220 302 430 347 430 127 0 627 -279 777 -433 67 -69 97 -144 149
-371 33 -144 75 -195 168 -204 89 -8 217 26 248 67 30 39 0 82 -71 100 -85 21
-107 45 -146 161 -60 180 -128 285 -277 432 -128 126 -266 215 -428 278 -33
13 -75 34 -94 48 l-34 26 23 15 c39 26 161 76 282 116 183 61 462 173 593 239
232 118 390 243 445 352 27 55 38 150 21 182 -14 27 -167 136 -246 176 l-60
31 -225 1 c-124 1 -272 -2 -330 -6z m434 -160 c98 -10 170 -34 196 -65 20 -24
-27 -100 -107 -175 -176 -165 -449 -304 -863 -440 -235 -78 -310 -86 -310 -36
0 92 178 481 277 603 23 29 49 48 86 61 122 45 505 73 721 52z"/>
<path d="M16405 2734 c-274 -21 -617 -72 -1052 -159 -338 -67 -458 -102 -515
-153 -27 -23 -23 -83 6 -111 29 -28 80 -26 166 7 59 22 323 81 484 108 153 26
170 8 122 -132 -60 -176 -175 -415 -224 -467 -36 -38 -71 -45 -277 -55 -232
-12 -254 -21 -245 -107 5 -50 85 -95 207 -115 87 -14 108 -33 100 -86 -7 -45
-87 -179 -197 -334 -219 -307 -399 -495 -612 -638 -164 -110 -184 -136 -138
-182 43 -43 163 -15 316 75 191 113 488 429 649 690 101 166 190 288 271 374
l71 76 58 -12 c99 -21 397 -175 575 -297 177 -121 238 -206 281 -392 67 -287
95 -322 249 -311 133 10 200 43 200 97 0 35 -24 53 -98 75 -67 20 -95 55 -127
163 -57 189 -189 368 -381 518 -107 84 -194 134 -320 184 -105 43 -131 60
-119 81 12 18 119 63 296 124 715 246 1069 483 1069 715 0 29 -8 48 -30 73
-35 40 -151 122 -230 163 l-55 28 -225 2 c-124 1 -247 0 -275 -2z m380 -164
c115 -11 188 -41 193 -78 12 -83 -202 -269 -458 -397 -262 -131 -745 -295
-804 -272 -41 16 -2 148 114 385 75 154 133 246 179 285 38 31 127 53 281 67
221 20 361 23 495 10z"/>
<path d="M18555 2647 c-73 -35 -285 -178 -395 -266 -269 -215 -589 -592 -716
-843 -89 -176 -139 -349 -124 -427 24 -130 97 -267 187 -352 104 -100 225
-142 460 -160 324 -26 647 38 958 191 395 194 660 482 759 824 52 178 81 513
57 666 -22 143 -94 246 -215 305 -102 49 -153 56 -461 66 -159 4 -328 11 -375
14 -76 6 -90 4 -135 -18z m772 -191 c77 -21 162 -67 190 -103 59 -77 69 -219
28 -417 -99 -487 -330 -782 -790 -1007 -390 -191 -772 -236 -1008 -117 -76 38
-132 90 -165 152 -24 45 -27 61 -26 146 0 81 5 108 33 185 102 281 326 601
475 677 37 19 47 20 96 10 96 -20 230 -24 285 -10 40 10 52 19 59 41 14 38 -9
58 -113 101 -101 43 -116 53 -99 73 44 54 480 220 673 257 44 8 89 17 100 19
47 10 214 6 262 -7z"/>
<path d="M27815 2659 c-44 -22 -78 -99 -165 -373 -118 -370 -343 -758 -637
-1098 -192 -222 -549 -498 -645 -498 -110 0 -175 -91 -117 -164 87 -110 210
-65 538 197 112 90 420 387 586 566 69 74 114 97 216 111 118 16 692 58 964
71 334 15 338 13 270 -121 -50 -100 -65 -174 -72 -350 -7 -186 6 -248 62 -305
75 -74 243 -85 436 -27 128 38 164 59 164 97 0 51 -26 57 -231 50 -172 -6
-181 -5 -206 15 -38 29 -42 64 -18 180 42 206 100 354 194 493 25 37 50 85 56
106 17 63 252 390 410 571 86 97 100 119 100 150 0 28 -68 150 -83 150 -19 0
-116 -82 -199 -168 -77 -80 -200 -238 -391 -504 -59 -81 -85 -109 -110 -117
-46 -15 -152 -29 -307 -41 -163 -13 -926 -26 -964 -16 -35 9 -31 23 52 201 77
167 157 370 203 515 24 77 33 124 34 177 0 68 -2 75 -30 103 -33 33 -79 45
-110 29z"/>
<path d="M2990 2594 c-160 -22 -753 -120 -955 -159 -402 -77 -405 -76 -513 65
-54 70 -177 5 -198 -104 -17 -93 -125 -133 -468 -177 -185 -23 -266 -41 -322
-73 -32 -18 -40 -27 -42 -57 -2 -26 3 -40 19 -55 18 -16 35 -19 118 -17 53 0
165 10 250 22 183 25 234 26 255 6 13 -14 13 -20 1 -56 -24 -67 -74 -153 -111
-192 -39 -40 -85 -57 -152 -57 -48 0 -96 -21 -106 -45 -13 -36 -4 -59 44 -107
28 -28 50 -55 50 -62 0 -6 -34 -63 -75 -126 -98 -149 -293 -543 -344 -691 -22
-64 -49 -135 -60 -158 -12 -22 -21 -47 -21 -56 0 -9 21 -38 46 -65 38 -40 53
-50 79 -50 55 0 86 47 138 207 52 161 128 334 229 518 131 240 201 334 274
367 70 31 111 33 1149 68 582 20 765 46 765 109 0 11 -9 21 -22 25 -56 15
-339 26 -928 36 -628 10 -771 17 -793 39 -21 21 106 265 185 356 32 36 48 45
115 64 279 77 824 173 1518 266 356 48 506 72 542 86 28 10 30 44 4 58 -58 31
-480 41 -671 15z"/>
<path d="M13500 2604 c-14 -2 -77 -11 -140 -20 -170 -22 -633 -99 -874 -144
-316 -60 -376 -66 -431 -46 -34 13 -52 30 -80 71 -38 58 -59 70 -109 61 -51
-10 -116 -87 -116 -138 0 -30 -42 -72 -93 -93 -64 -26 -195 -53 -367 -75 -206
-26 -310 -53 -350 -90 -38 -35 -38 -54 -1 -91 37 -37 51 -37 343 -2 258 31
284 28 282 -23 -3 -64 -102 -226 -156 -255 -11 -6 -55 -14 -99 -19 -91 -9
-119 -26 -119 -74 0 -23 12 -43 51 -82 l51 -51 -17 -32 c-9 -17 -38 -64 -64
-104 -114 -168 -275 -496 -351 -712 -23 -66 -49 -132 -56 -147 -23 -45 -17
-69 31 -115 54 -51 98 -58 133 -20 25 26 63 112 82 182 56 214 312 707 429
826 45 46 67 61 111 73 62 17 291 30 820 46 641 19 880 36 988 69 91 27 96 65
10 82 -24 5 -270 14 -548 19 -729 14 -1081 27 -1114 39 -24 10 -27 15 -21 39
20 84 174 336 222 363 99 56 832 193 1518 284 356 47 595 84 617 96 10 5 18
20 18 34 0 20 -7 25 -47 35 -47 11 -503 23 -553 14z"/>
<path d="M22545 2603 c-198 -25 -754 -115 -1030 -168 -403 -76 -405 -76 -513
65 -27 34 -65 40 -111 15 -32 -16 -81 -70 -81 -88 0 -7 -5 -29 -10 -49 -21
-74 -154 -120 -456 -158 -193 -24 -274 -42 -330 -74 -33 -18 -39 -27 -42 -58
-3 -29 2 -40 25 -58 26 -21 35 -22 123 -16 52 3 162 15 244 26 221 30 256 27
256 -19 0 -40 -64 -165 -111 -215 -45 -49 -85 -66 -159 -66 -64 0 -110 -30
-110 -71 0 -24 12 -43 50 -82 28 -28 50 -55 50 -61 0 -5 -33 -59 -72 -120 -89
-135 -293 -539 -332 -656 -16 -47 -44 -122 -63 -168 -31 -74 -34 -86 -23 -113
7 -16 30 -43 50 -59 86 -68 139 -25 197 160 86 275 302 698 428 838 88 98 28
92 1230 132 569 20 765 46 765 105 0 8 -9 19 -20 25 -35 19 -281 29 -930 40
-626 10 -772 18 -793 39 -21 21 104 264 185 356 32 36 48 45 115 64 220 61
772 163 1218 225 874 122 850 118 859 142 8 20 -3 42 -24 49 -64 20 -468 33
-585 18z"/>
<path d="M4877 2570 c-112 -29 -205 -102 -338 -268 -56 -70 -117 -143 -135
-162 -17 -19 -98 -129 -179 -245 -81 -115 -166 -230 -189 -255 -39 -41 -43
-52 -54 -125 -6 -44 -30 -139 -52 -210 -79 -246 -158 -667 -146 -774 11 -92
10 -91 145 -91 109 0 136 4 342 54 473 115 953 204 1794 331 165 25 315 50
333 56 66 21 24 79 -73 99 -125 26 -839 -56 -1515 -175 -350 -61 -547 -91
-661 -101 -75 -6 -77 -6 -94 20 -15 22 -17 40 -12 104 13 174 100 504 153 585
45 69 74 75 714 147 763 87 1202 146 1267 171 27 10 30 24 6 34 -44 17 -308
26 -573 21 -307 -7 -529 -18 -845 -41 -249 -19 -316 -19 -340 -2 -17 13 -17
16 7 68 80 170 373 485 518 557 l55 27 745 -3 c410 -2 773 0 807 3 80 8 109
29 94 68 -32 84 -254 105 -1166 112 -347 3 -585 1 -608 -5z"/>
<path d="M24356 2570 c-114 -29 -220 -116 -361 -295 -43 -55 -95 -118 -114
-140 -20 -22 -99 -129 -175 -237 -76 -109 -160 -223 -187 -253 -27 -31 -49
-62 -49 -68 -1 -53 -27 -168 -64 -284 -53 -167 -86 -313 -121 -538 -27 -170
-28 -252 -5 -294 10 -19 19 -21 129 -21 109 0 136 4 342 54 480 117 966 206
1859 341 129 20 250 40 268 46 66 21 23 79 -73 99 -125 26 -839 -56 -1515
-175 -350 -61 -547 -91 -661 -101 -75 -6 -77 -6 -94 20 -15 22 -17 40 -12 106
14 173 99 505 150 581 46 69 85 78 672 144 969 110 1322 161 1332 191 6 19
-24 25 -167 36 -215 16 -760 0 -1265 -37 -250 -19 -316 -19 -340 -1 -18 13
-18 16 13 77 89 179 379 487 522 553 44 21 55 21 845 21 879 0 849 -2 843 58
-9 93 -217 115 -1158 122 -361 3 -589 1 -614 -5z"/>
<path d="M10470 2488 c-6 -24 -71 -198 -142 -388 -424 -1126 -521 -1491 -444
-1674 19 -45 88 -96 132 -96 32 0 34 3 48 53 9 28 23 117 31 197 36 327 112
562 440 1365 117 287 153 386 161 449 6 42 4 48 -28 80 -36 36 -89 56 -149 56
-34 0 -37 -3 -49 -42z"/>
</g>
</svg>
