<?xml version="1.0" standalone="no"?>
<!DOCTYPE svg PUBLIC "-//W3C//DTD SVG 20010904//EN"
 "http://www.w3.org/TR/2001/REC-SVG-20010904/DTD/svg10.dtd">
<svg version="1.0" xmlns="http://www.w3.org/2000/svg"
 width="2103.000000pt" height="2103.000000pt" viewBox="0 0 2103.000000 2103.000000"
 preserveAspectRatio="xMidYMid meet">
<metadata>
Created by potrace 1.16, written by Peter Selinger 2001-2019
</metadata>
<g transform="translate(0.000000,2103.000000) scale(0.100000,-0.100000)"
fill="#ffffff" stroke="none">
<path d="M3635 16359 c-71 -4 -157 -13 -190 -19 -33 -7 -81 -16 -108 -20 -220
-40 -538 -174 -762 -322 -116 -76 -289 -223 -390 -329 -259 -273 -443 -618
-524 -984 -40 -183 -59 -501 -42 -707 6 -83 16 -173 22 -202 6 -28 15 -76 21
-106 6 -30 20 -86 30 -125 11 -38 23 -83 28 -100 68 -245 247 -581 427 -805
126 -155 325 -339 488 -451 71 -49 113 -74 230 -139 86 -47 303 -129 400 -150
297 -64 426 -75 905 -75 228 0 521 6 651 13 396 23 1121 18 1169 -8 9 -5 54
-8 100 -9 47 0 101 -5 120 -11 19 -5 55 -10 80 -10 25 -1 56 -7 70 -15 14 -8
43 -15 65 -15 22 0 51 -7 65 -15 14 -8 40 -14 58 -15 18 0 40 -4 50 -9 27 -13
118 -41 136 -41 14 0 65 -19 108 -41 10 -5 27 -9 37 -9 11 0 23 -4 26 -10 3
-5 14 -10 23 -10 9 0 77 -30 152 -66 306 -151 584 -378 803 -657 102 -130 117
-151 190 -272 77 -126 97 -163 97 -180 0 -8 4 -15 9 -15 37 0 -13 -111 -148
-326 -147 -235 -241 -356 -405 -519 -239 -238 -476 -394 -821 -540 -114 -48
-337 -112 -490 -140 -49 -9 -110 -20 -135 -25 -25 -5 -99 -13 -165 -19 -66 -5
-183 -16 -260 -23 -159 -14 -534 -14 -705 2 -63 5 -194 10 -290 10 -96 0 -191
5 -210 10 -62 19 -560 -23 -770 -65 -47 -9 -107 -20 -135 -24 -27 -4 -60 -12
-72 -19 -12 -7 -31 -12 -42 -12 -11 0 -35 -6 -53 -14 -18 -8 -73 -26 -123 -41
-49 -15 -103 -33 -120 -40 -16 -6 -46 -18 -65 -25 -19 -6 -44 -16 -55 -20 -33
-13 -260 -125 -265 -130 -8 -8 -43 -29 -60 -37 -8 -3 -58 -34 -110 -69 -372
-245 -663 -610 -822 -1029 -25 -66 -51 -140 -58 -165 -7 -25 -16 -56 -20 -70
-31 -97 -55 -253 -71 -457 -16 -202 3 -474 47 -678 74 -344 204 -652 379 -899
101 -141 280 -325 404 -415 131 -94 279 -170 451 -232 123 -44 129 -46 260
-78 47 -12 102 -26 122 -31 20 -6 69 -15 110 -21 40 -5 102 -14 138 -19 103
-15 375 -12 455 4 112 23 189 36 221 36 16 1 40 7 54 15 14 8 42 14 63 15 20
0 37 5 37 10 0 6 13 10 28 10 16 0 37 7 48 15 10 8 28 14 39 15 24 0 121 39
235 94 478 231 839 605 1034 1073 71 171 119 364 147 588 13 107 6 484 -10
565 -6 30 -16 80 -23 110 -14 69 -35 152 -55 210 -9 25 -19 59 -23 75 -4 17
-26 80 -48 140 -22 61 -52 144 -67 185 -14 41 -30 84 -34 95 -20 50 -31 94
-31 123 0 17 -4 34 -10 37 -13 8 -13 212 0 220 6 3 10 14 10 24 0 46 66 129
122 153 15 7 28 16 28 20 0 5 15 8 34 8 18 0 39 7 46 15 7 8 28 15 46 15 19 0
34 5 34 10 0 6 21 10 46 10 27 0 51 6 60 15 9 8 28 15 44 15 16 0 41 5 57 11
23 9 177 42 303 66 24 4 136 27 295 60 39 8 87 17 108 20 20 3 40 9 43 14 3 5
14 9 26 9 28 0 159 30 180 41 10 5 36 9 57 9 22 0 43 5 46 10 3 5 16 10 28 10
12 0 35 7 51 15 15 8 46 15 67 15 22 0 39 5 39 10 0 6 10 10 23 10 12 0 35 7
51 15 15 8 45 15 65 15 20 0 45 7 55 15 11 8 30 15 42 15 13 0 26 5 29 10 3 6
20 10 36 10 17 0 37 7 45 15 9 8 31 15 49 15 19 0 37 5 40 10 3 6 19 10 35 10
15 0 30 7 34 15 3 8 14 15 24 15 16 0 242 78 362 125 19 7 67 25 105 40 39 15
84 33 100 40 17 7 68 27 115 45 47 17 105 41 130 52 25 10 54 23 65 28 86 36
181 79 322 146 51 24 98 44 105 45 7 0 27 9 43 19 47 29 156 80 171 80 8 0 14
5 14 10 0 6 22 10 49 10 28 0 53 -4 56 -10 3 -5 15 -10 25 -10 10 0 31 -6 47
-14 15 -8 42 -19 58 -26 17 -7 43 -18 58 -26 16 -8 37 -14 47 -14 10 0 21 -4
24 -9 3 -4 19 -11 34 -14 27 -6 125 -46 164 -67 10 -6 27 -10 38 -10 11 0 28
-4 38 -10 20 -11 94 -41 197 -80 31 -12 108 -42 130 -50 11 -5 56 -22 100 -39
44 -18 88 -36 97 -41 10 -6 24 -10 32 -10 8 0 27 -6 43 -14 15 -8 42 -19 58
-26 17 -7 43 -18 58 -26 16 -8 37 -14 47 -14 10 0 21 -4 24 -9 3 -4 19 -11 35
-14 16 -4 49 -15 73 -25 24 -11 63 -27 88 -37 25 -9 52 -21 60 -25 9 -4 30
-11 48 -14 17 -4 34 -12 37 -17 4 -5 14 -9 24 -9 10 0 24 -7 31 -15 7 -8 25
-15 41 -15 16 0 29 -4 29 -10 0 -5 10 -10 23 -10 13 0 32 -7 43 -15 10 -8 29
-15 41 -15 12 0 25 -4 28 -10 3 -5 17 -10 30 -10 13 0 26 -4 29 -9 3 -5 29
-16 58 -25 47 -15 87 -31 140 -57 10 -5 23 -9 29 -9 6 0 26 -7 45 -15 19 -8
51 -22 72 -30 20 -9 45 -20 54 -25 10 -6 24 -10 32 -10 8 0 27 -6 43 -14 45
-23 157 -66 171 -66 7 0 20 -4 30 -9 9 -5 37 -17 62 -26 78 -30 114 -46 132
-55 10 -6 22 -10 28 -10 6 0 33 -11 62 -25 28 -14 59 -25 68 -25 9 0 25 -7 36
-15 10 -8 27 -15 36 -15 9 0 31 -8 50 -17 61 -31 68 -33 87 -33 11 0 23 -4 26
-10 3 -6 13 -10 22 -10 8 0 31 -7 51 -16 21 -9 53 -23 72 -32 19 -8 43 -19 52
-23 10 -5 27 -9 37 -9 11 0 23 -4 26 -10 3 -6 13 -10 22 -10 8 0 29 -6 46 -14
18 -7 48 -21 69 -30 20 -9 41 -16 46 -16 6 0 32 -11 58 -25 26 -14 55 -25 65
-25 10 0 21 -4 24 -10 3 -5 16 -10 28 -10 13 0 31 -6 42 -13 11 -7 45 -21 75
-31 30 -10 59 -23 65 -27 5 -5 17 -9 26 -9 9 0 30 -7 45 -15 16 -8 37 -15 47
-15 9 0 17 -4 17 -9 0 -5 13 -12 30 -16 16 -4 32 -11 35 -16 4 -5 17 -9 30 -9
13 0 26 -4 29 -9 3 -5 29 -16 58 -25 55 -18 110 -40 140 -56 10 -6 26 -10 37
-10 10 0 24 -7 31 -15 7 -8 23 -15 36 -15 12 0 26 -4 29 -10 3 -5 16 -10 28
-10 12 0 31 -7 41 -15 11 -8 28 -15 38 -15 18 0 25 -3 86 -33 19 -9 40 -17 48
-17 14 0 22 -3 82 -33 19 -9 40 -17 48 -17 14 0 22 -3 82 -33 19 -9 39 -17 46
-17 12 0 59 -19 98 -41 10 -5 23 -9 29 -9 11 0 67 -22 101 -41 10 -5 26 -9 36
-9 10 0 27 -7 38 -15 10 -8 27 -15 36 -15 9 0 31 -8 50 -17 59 -30 68 -33 80
-33 7 0 36 -11 63 -25 28 -13 57 -25 65 -25 8 0 24 -7 34 -15 11 -8 28 -15 38
-15 10 0 26 -4 36 -9 9 -4 35 -16 57 -26 22 -9 48 -21 57 -26 10 -5 26 -9 36
-9 10 0 27 -7 38 -15 10 -8 29 -15 41 -15 12 0 28 -7 37 -15 8 -8 26 -15 40
-15 14 0 26 -4 26 -10 0 -5 11 -10 24 -10 14 0 28 -4 31 -10 3 -6 15 -10 27
-10 11 0 32 -6 46 -14 15 -8 59 -26 97 -41 39 -15 79 -32 90 -38 11 -6 34 -13
50 -17 17 -4 29 -11 28 -16 -1 -5 13 -10 30 -11 17 -1 35 -7 41 -13 5 -5 19
-10 29 -10 10 0 33 -7 50 -16 58 -30 67 -34 81 -34 8 0 29 -8 48 -17 61 -31
68 -33 87 -33 10 0 24 -7 31 -15 7 -8 23 -15 36 -15 13 0 24 -4 24 -10 0 -5
10 -10 23 -10 13 0 32 -7 43 -15 10 -8 29 -15 41 -15 12 0 24 -4 27 -9 3 -5
22 -12 41 -15 19 -4 35 -11 35 -16 0 -5 15 -10 33 -12 19 -2 31 -8 30 -15 -2
-8 8 -13 27 -13 17 0 38 -4 48 -9 43 -23 92 -41 110 -41 12 0 24 -5 27 -10 3
-6 21 -10 40 -10 19 0 36 -4 39 -9 3 -5 23 -11 43 -14 21 -3 70 -12 108 -21
77 -18 226 -47 350 -68 124 -20 683 -17 795 5 47 10 110 22 140 28 97 19 288
74 355 103 17 8 50 22 75 32 104 43 290 141 358 188 80 55 204 146 212 155 3
3 25 22 50 42 117 94 326 319 317 341 -3 7 -38 26 -78 42 -41 17 -103 43 -139
58 -36 16 -76 34 -90 40 -14 5 -38 16 -55 23 -16 8 -109 45 -205 83 -181 72
-555 226 -632 260 -23 11 -74 32 -113 47 -38 15 -86 34 -105 42 -19 8 -44 18
-55 22 -26 11 -56 24 -128 55 -32 14 -60 26 -63 26 -3 0 -31 12 -62 26 -31 15
-86 37 -122 51 -36 13 -94 37 -130 53 -36 16 -128 54 -205 85 -146 59 -278
114 -355 148 -25 11 -74 31 -110 44 -36 13 -83 33 -105 43 -53 24 -225 96
-300 125 -85 34 -422 173 -472 196 -24 10 -46 19 -49 19 -3 0 -20 7 -37 15
-18 8 -55 23 -83 34 -28 11 -71 29 -95 39 -49 22 -1008 419 -1109 459 -36 14
-87 36 -115 48 -27 13 -124 53 -215 90 -91 37 -181 74 -200 82 -19 8 -45 19
-57 24 -51 21 -71 29 -126 53 -32 14 -60 26 -63 26 -3 0 -31 12 -62 26 -31 14
-79 35 -107 46 -27 10 -69 28 -92 38 -24 11 -46 20 -49 20 -3 0 -22 7 -42 16
-85 37 -114 49 -322 135 -96 39 -193 79 -215 89 -22 9 -60 25 -85 35 -25 10
-69 28 -98 41 -29 13 -59 24 -67 24 -7 0 -16 4 -19 9 -3 5 -17 12 -31 15 -14
4 -50 18 -80 31 -29 14 -56 25 -59 25 -6 0 -30 10 -131 55 -16 7 -48 20 -70
29 -22 10 -48 21 -57 26 -10 6 -22 10 -28 10 -6 0 -33 11 -62 25 -28 14 -55
25 -59 25 -4 0 -38 14 -76 31 -83 37 -90 40 -181 76 -91 35 -92 48 -7 83 17 7
38 16 47 21 10 5 25 9 34 9 8 0 22 7 30 15 9 8 24 15 35 15 10 0 19 5 19 10 0
6 6 10 14 10 8 0 29 8 48 17 61 31 68 33 87 33 10 0 21 7 25 15 3 8 17 15 31
15 14 0 25 4 25 9 0 5 13 12 30 16 16 4 32 11 35 16 4 5 15 9 26 9 11 0 27 7
35 15 9 8 24 15 34 15 10 0 22 5 25 10 3 6 15 10 26 10 10 0 19 4 19 9 0 5 13
12 30 16 16 4 32 11 35 16 4 5 14 9 23 9 9 0 42 12 72 26 30 15 71 34 90 42
19 8 47 21 62 29 14 7 33 13 42 13 9 0 16 5 16 10 0 6 8 10 17 10 10 0 43 12
73 26 30 15 71 34 90 42 19 8 43 19 52 23 10 5 27 9 38 9 11 0 20 4 20 8 0 10
71 42 92 42 9 0 18 7 22 15 3 8 14 15 25 15 11 0 41 11 67 25 26 14 55 25 65
25 11 0 19 5 19 10 0 6 5 10 11 10 6 0 27 7 47 16 21 9 51 22 67 29 17 7 55
25 85 39 30 14 63 26 73 26 9 0 17 4 17 9 0 5 13 12 30 16 16 4 32 11 35 16 4
5 17 9 31 9 13 0 24 4 24 9 0 5 14 12 30 16 17 4 30 11 30 16 0 5 8 9 19 9 10
0 39 11 65 25 26 14 55 25 65 25 10 0 24 7 31 15 7 8 18 15 26 15 7 0 34 11
60 25 26 14 55 25 65 25 11 0 19 5 19 10 0 6 11 10 24 10 13 0 29 7 36 15 7 8
23 15 36 15 13 0 24 5 24 10 0 6 5 10 11 10 6 0 27 7 47 16 56 25 94 41 122
52 14 5 49 21 78 36 30 14 60 26 67 26 7 0 18 7 25 15 7 8 20 15 30 15 10 0
42 12 72 26 52 26 83 40 143 64 28 11 43 18 120 50 17 7 37 16 45 21 8 5 22
12 30 15 8 3 31 13 50 21 19 8 44 18 55 23 11 4 47 20 80 35 57 26 79 36 150
65 50 21 99 42 117 51 10 5 24 9 32 9 7 0 19 7 26 15 7 8 21 15 31 15 18 0 37
8 79 32 8 4 22 11 30 14 8 3 39 17 68 30 29 13 56 24 60 24 4 0 32 12 62 26
30 15 69 32 85 39 17 7 57 25 90 40 33 15 71 32 85 37 52 21 87 36 140 62 30
14 60 26 67 26 6 0 35 12 65 26 51 26 86 41 138 62 14 5 52 22 85 37 75 34
122 54 220 95 11 4 46 20 78 34 32 14 64 26 71 26 7 0 19 7 26 15 7 8 19 15
26 15 8 0 22 4 32 9 9 5 35 17 57 26 22 10 48 22 57 26 10 5 24 9 32 9 7 0 19
7 26 15 7 8 23 15 36 15 13 0 24 5 24 10 0 6 11 10 24 10 13 0 29 7 36 15 7 8
18 15 25 15 8 0 26 6 42 14 28 14 131 61 168 77 46 19 125 54 193 85 41 19 77
34 81 34 4 0 25 8 47 19 21 10 57 26 79 35 86 37 102 44 155 70 30 14 61 26
68 26 7 0 20 4 30 9 32 17 189 88 317 144 33 14 86 37 117 51 31 14 63 26 70
26 8 0 18 4 23 9 6 5 33 19 61 30 28 11 73 30 100 42 161 72 209 93 249 109
76 29 105 47 105 64 0 21 -107 146 -219 255 -65 63 -149 133 -251 209 -38 28
-206 132 -214 132 -3 0 -23 10 -44 23 -32 20 -78 41 -147 67 -49 19 -112 43
-130 51 -118 49 -353 101 -565 125 -182 20 -614 14 -785 -11 -213 -32 -215
-32 -445 -89 -96 -23 -139 -36 -285 -82 -53 -17 -55 -17 -153 -58 -35 -14 -67
-26 -72 -26 -5 0 -38 -13 -73 -30 -36 -16 -68 -30 -71 -30 -4 0 -25 -9 -49
-19 -37 -17 -159 -69 -212 -90 -11 -5 -40 -17 -65 -29 -25 -11 -70 -30 -100
-42 -30 -12 -71 -29 -90 -38 -54 -24 -218 -91 -285 -117 -33 -12 -90 -37 -128
-54 -37 -17 -70 -31 -73 -31 -3 0 -22 -7 -42 -16 -86 -38 -99 -43 -137 -59
-22 -9 -48 -20 -57 -25 -10 -6 -22 -10 -28 -10 -5 0 -33 -11 -62 -24 -29 -13
-100 -43 -158 -66 -58 -24 -109 -47 -114 -52 -6 -4 -16 -8 -22 -8 -7 0 -43
-14 -81 -31 -37 -16 -77 -34 -88 -39 -149 -62 -148 -61 -177 -76 -14 -8 -31
-14 -38 -14 -6 0 -35 -11 -63 -24 -79 -37 -124 -56 -131 -56 -3 0 -40 -16 -82
-35 -41 -19 -80 -35 -85 -35 -5 0 -17 -4 -27 -9 -33 -18 -85 -41 -93 -41 -5 0
-32 -11 -61 -24 -29 -13 -170 -72 -313 -131 -143 -60 -267 -111 -275 -116 -8
-4 -40 -17 -70 -29 -30 -12 -75 -31 -100 -42 -61 -26 -72 -31 -175 -73 -49
-21 -109 -46 -132 -56 -23 -11 -44 -19 -47 -19 -5 0 -60 -24 -163 -71 -24 -10
-46 -19 -49 -19 -3 0 -20 -6 -37 -14 -18 -8 -79 -33 -137 -56 -58 -23 -125
-51 -149 -62 -24 -10 -67 -28 -95 -39 -28 -11 -65 -26 -81 -34 -17 -7 -53 -23
-80 -35 -27 -12 -63 -27 -80 -35 -16 -7 -88 -36 -160 -65 -71 -29 -153 -63
-182 -76 -28 -13 -54 -24 -57 -24 -2 0 -35 -14 -73 -31 -71 -32 -98 -43 -135
-58 -41 -15 -76 -30 -629 -261 -301 -126 -567 -238 -592 -249 -25 -12 -48 -21
-51 -21 -3 0 -31 -12 -63 -26 -82 -36 -83 -36 -236 -99 l-138 -56 -67 38 c-37
20 -85 48 -107 60 -81 46 -413 210 -520 257 -60 27 -128 56 -150 66 -39 17
-138 56 -220 87 -22 9 -49 19 -60 23 -96 37 -162 60 -169 60 -4 0 -22 6 -39
14 -37 16 -164 56 -257 81 -36 9 -76 21 -90 26 -32 11 -363 95 -455 116 -38 8
-88 19 -110 24 -123 28 -546 111 -660 129 -33 5 -96 17 -140 26 -85 17 -152
28 -225 39 -25 3 -70 12 -100 20 -30 7 -80 18 -110 25 -220 46 -393 122 -466
203 -24 27 -44 57 -44 66 0 9 -5 22 -11 28 -18 18 -1 205 26 278 16 46 41 91
62 112 12 13 20 29 17 37 -3 8 -1 17 5 20 6 4 24 35 40 70 16 35 34 67 40 70
6 4 11 16 11 27 0 10 5 19 10 19 6 0 10 13 10 29 0 17 4 32 9 35 5 3 11 20 14
38 3 18 11 56 17 83 41 186 52 312 51 605 0 343 -16 461 -98 710 -90 271 -240
525 -433 732 -58 63 -133 138 -168 168 -35 30 -69 60 -75 65 -119 103 -395
262 -572 330 -188 72 -327 106 -530 130 -130 16 -209 17 -410 4z m245 -728
c117 -10 147 -15 305 -58 98 -27 254 -101 349 -166 230 -158 408 -368 544
-642 38 -77 115 -308 131 -395 5 -30 15 -86 22 -125 17 -91 17 -415 0 -525
-41 -267 -145 -522 -289 -712 -103 -136 -265 -271 -418 -347 -100 -49 -284
-111 -333 -111 -20 0 -42 -5 -48 -11 -16 -16 -191 -28 -313 -23 -301 14 -527
99 -869 327 -117 78 -343 328 -440 487 -162 267 -226 495 -226 805 0 186 8
251 52 430 65 270 173 464 368 661 53 53 205 174 219 174 3 0 30 16 60 35 30
19 57 35 60 35 2 0 33 13 68 29 177 82 392 131 613 139 17 1 82 -3 145 -7z
m5885 -4751 c3 -5 19 -10 34 -10 16 0 34 -7 41 -15 7 -8 21 -15 31 -15 11 0
19 -4 19 -10 0 -5 6 -10 13 -10 7 0 24 -11 39 -25 15 -14 32 -25 38 -25 5 0
10 -5 10 -11 0 -7 11 -21 24 -33 25 -22 45 -54 96 -155 5 -11 12 -34 15 -52 3
-17 10 -40 15 -50 13 -22 13 -173 1 -197 -5 -9 -21 -51 -37 -92 -15 -41 -30
-77 -33 -80 -4 -3 -19 -25 -35 -50 -16 -25 -38 -51 -48 -59 -11 -7 -33 -26
-49 -42 -16 -16 -36 -29 -44 -29 -8 0 -15 -4 -15 -10 0 -5 -8 -10 -19 -10 -10
0 -24 -7 -31 -15 -7 -9 -29 -15 -51 -15 -21 0 -41 -4 -44 -10 -3 -5 -30 -10
-60 -10 -30 0 -57 5 -60 10 -3 6 -21 10 -39 10 -19 0 -39 7 -46 15 -7 8 -19
15 -28 15 -8 0 -30 11 -48 25 -18 14 -36 25 -41 25 -4 1 -24 19 -43 42 -19 22
-45 51 -57 64 -13 13 -23 30 -23 38 0 8 -4 17 -9 21 -14 8 -41 65 -41 86 0 10
-4 20 -9 23 -9 6 -23 99 -22 151 1 53 13 130 22 140 5 5 9 17 9 27 0 23 47
113 80 153 68 81 144 145 174 145 8 0 16 7 20 15 3 9 19 15 41 15 19 0 35 5
35 10 0 6 35 10 84 10 47 0 88 -4 91 -10z m-5605 -2775 c160 -32 201 -47 480
-178 116 -55 286 -204 388 -342 143 -194 235 -460 272 -791 36 -323 -37 -717
-191 -1034 -123 -252 -351 -488 -572 -593 -32 -15 -95 -39 -140 -53 -45 -15
-91 -30 -102 -34 -11 -4 -49 -15 -85 -25 -36 -9 -79 -21 -97 -26 -103 -32
-437 -33 -578 -3 -343 74 -573 192 -786 404 -102 101 -172 202 -237 342 -60
127 -80 194 -106 353 -36 217 -28 472 20 660 52 204 61 230 135 378 108 218
221 364 439 568 36 34 215 163 265 191 80 44 129 68 172 84 27 10 53 21 58 24
6 4 19 10 30 13 11 3 45 13 75 22 182 54 408 70 560 40z"/>
</g>
</svg>
