<?xml version="1.0" standalone="no"?>
<!DOCTYPE svg PUBLIC "-//W3C//DTD SVG 20010904//EN"
 "http://www.w3.org/TR/2001/REC-SVG-20010904/DTD/svg10.dtd">
<svg version="1.0" xmlns="http://www.w3.org/2000/svg"
 width="2998.000000pt" height="652.000000pt" viewBox="0 0 2998.000000 652.000000"
 preserveAspectRatio="xMidYMid meet">
<metadata>
Created by potrace 1.16, written by Peter Selinger 2001-2019
</metadata>
<g transform="translate(0.000000,652.000000) scale(0.100000,-0.100000)"
fill="#000000" stroke="none">
<path d="M7541 6199 c-218 -100 -379 -345 -431 -652 -10 -57 -48 -660 -115
-1807 l-26 -435 -47 -40 c-102 -86 -258 -245 -331 -335 -42 -52 -130 -172
-194 -267 -129 -188 -190 -253 -234 -253 -34 0 -58 19 -113 90 -53 69 -85 93
-185 140 -107 50 -170 64 -269 58 -96 -6 -204 -46 -295 -107 -198 -135 -311
-408 -267 -649 27 -151 103 -281 211 -357 117 -84 217 -116 359 -116 175 1
315 58 437 180 85 85 141 179 210 351 69 174 164 375 215 457 57 93 187 225
267 272 67 39 191 78 264 83 l48 3 43 -65 c85 -129 117 -250 109 -415 -8 -189
-34 -265 -200 -605 -94 -192 -121 -297 -121 -470 -1 -204 42 -318 165 -442 81
-80 196 -141 314 -163 96 -19 141 -19 230 0 112 24 185 67 276 163 132 139
189 286 190 485 1 171 -57 308 -174 413 -97 87 -207 128 -374 139 -116 8 -158
19 -178 48 -22 31 -19 52 25 236 72 302 110 567 110 780 l0 124 52 56 c28 31
126 133 217 226 142 146 654 675 789 815 24 25 156 161 294 302 283 291 317
332 381 456 96 185 116 364 62 541 -16 51 -32 90 -36 89 -5 -2 -90 -84 -191
-183 -952 -938 -1491 -1465 -1500 -1465 -8 0 -9 35 -4 113 10 187 25 461 46
897 11 228 29 595 40 815 11 220 21 428 23 463 4 74 1 75 -92 31z m-211 -2896
c50 -53 60 -106 31 -166 -39 -80 -142 -112 -211 -64 -100 68 -105 191 -10 255
29 20 44 23 94 20 53 -4 62 -8 96 -45z m-1609 -823 c130 -25 241 -104 300
-212 33 -61 34 -67 34 -173 0 -105 -2 -114 -33 -177 -90 -184 -355 -303 -538
-241 -65 21 -146 75 -189 126 -57 66 -79 136 -79 252 -1 95 1 104 36 177 64
134 163 215 298 244 71 16 105 16 171 4z m1850 -810 c122 -49 228 -150 269
-258 42 -111 18 -270 -58 -388 -147 -227 -411 -257 -597 -68 -133 135 -181
352 -110 497 51 106 162 208 255 234 60 17 174 9 241 -17z"/>
<path d="M14225 4346 c-139 -23 -296 -71 -525 -161 -190 -75 -273 -125 -296
-180 -16 -38 -8 -98 15 -119 14 -13 22 -11 70 19 76 48 269 128 311 129 l35 1
3 -50 c2 -27 -2 -79 -8 -115 -19 -113 -81 -381 -106 -461 -28 -87 -42 -98
-139 -106 -136 -10 -165 -25 -165 -88 0 -60 33 -110 87 -135 83 -37 78 -31 77
-111 -1 -63 -12 -104 -67 -271 -126 -375 -247 -639 -368 -801 -38 -50 -73
-106 -79 -123 -14 -43 2 -84 32 -84 73 0 171 119 282 340 101 203 160 349 220
547 55 181 139 401 167 437 20 25 21 25 52 9 77 -39 284 -272 365 -410 60
-101 78 -174 107 -422 18 -158 28 -199 56 -235 26 -33 73 -35 120 -3 69 46 72
113 8 151 -46 27 -56 52 -79 191 -25 150 -71 298 -134 429 -78 160 -134 233
-274 358 -23 21 -42 46 -42 56 0 25 57 77 185 168 273 194 421 347 505 526 37
78 64 197 57 254 -6 53 -53 135 -122 212 l-51 55 -109 3 c-61 2 -146 -3 -190
-10z m289 -176 c17 -8 38 -29 48 -46 17 -28 17 -35 2 -90 -17 -67 -65 -160
-130 -251 -117 -165 -487 -453 -550 -429 -14 6 -16 17 -11 79 9 120 70 392
128 572 39 125 62 143 204 171 90 17 269 13 309 -6z"/>
<path d="M18287 4344 c-117 -18 -209 -44 -407 -116 -366 -133 -456 -203 -411
-321 14 -37 35 -39 78 -7 43 32 189 98 276 126 53 17 59 17 74 1 15 -15 15
-26 4 -110 -15 -114 -83 -428 -112 -515 -27 -80 -45 -92 -158 -101 -118 -10
-141 -25 -141 -89 0 -67 28 -108 95 -138 72 -31 82 -53 66 -141 -7 -36 -37
-141 -67 -232 -114 -341 -235 -614 -336 -756 -109 -153 -118 -168 -118 -192 0
-65 44 -81 101 -36 74 57 130 139 217 313 102 204 164 356 228 565 52 173 138
395 162 425 16 19 18 19 52 2 76 -37 291 -280 369 -417 49 -86 75 -185 96
-370 23 -207 44 -285 80 -299 70 -26 155 29 155 101 0 27 -7 38 -39 61 -21 15
-44 36 -51 46 -7 11 -23 80 -36 155 -54 318 -178 572 -359 738 -62 56 -85 84
-85 101 0 31 42 71 164 156 392 273 576 518 576 766 0 59 -4 73 -37 128 -60
98 -108 150 -151 162 -50 13 -177 11 -285 -6z m266 -165 c20 -5 49 -22 63 -37
22 -24 25 -33 20 -77 -12 -110 -140 -311 -282 -444 -94 -88 -259 -209 -336
-247 -49 -24 -59 -26 -73 -14 -14 11 -16 25 -10 69 19 164 114 557 156 646 29
62 82 87 229 109 56 8 197 5 233 -5z"/>
<path d="M19466 4219 c-126 -139 -283 -403 -394 -664 -123 -289 -186 -495
-227 -741 -31 -181 -30 -233 10 -407 65 -290 184 -399 420 -384 135 8 243 57
368 167 261 229 421 578 477 1040 18 145 24 605 11 701 -23 153 -82 258 -169
300 -39 19 -71 24 -187 30 -77 4 -165 11 -196 14 l-55 7 -58 -63z m477 -176
c79 -55 107 -142 107 -336 0 -250 -52 -581 -127 -812 -79 -242 -228 -462 -406
-596 -96 -72 -163 -106 -244 -121 -205 -38 -352 165 -327 452 27 314 180 807
279 900 22 21 24 21 69 6 53 -18 118 -21 146 -6 24 13 33 55 19 83 -7 12 -36
44 -65 70 -30 27 -54 55 -54 63 0 23 87 110 180 181 83 62 219 137 270 146 49
10 114 -3 153 -30z"/>
<path d="M24543 4268 c-20 -25 -34 -87 -78 -352 -56 -339 -115 -577 -216 -879
-116 -349 -225 -583 -370 -793 -59 -86 -97 -123 -135 -132 -80 -21 -81 -176
-2 -225 21 -14 52 11 114 89 103 131 330 542 430 778 39 94 85 140 149 154 83
18 464 70 561 78 77 5 93 4 107 -11 21 -21 21 -22 -2 -120 -58 -239 -63 -612
-11 -720 42 -86 129 -97 241 -30 62 38 94 82 84 116 -11 34 -40 41 -139 33
-88 -6 -95 -5 -105 14 -17 32 -13 178 10 340 23 172 37 235 83 392 18 63 40
145 49 181 19 79 124 366 207 565 33 78 60 154 60 167 0 37 -40 158 -50 152
-16 -10 -92 -151 -132 -245 -22 -52 -80 -205 -129 -339 -48 -134 -96 -252
-105 -262 -22 -24 -65 -36 -194 -54 -126 -18 -431 -31 -483 -21 -34 6 -37 9
-37 42 0 19 20 121 44 227 70 301 125 624 126 730 0 67 -31 136 -61 137 -4 0
-11 -6 -16 -12z"/>
<path d="M11045 4206 c-93 -21 -312 -92 -518 -167 -103 -38 -202 -69 -221 -69
-41 0 -60 20 -89 96 -17 43 -28 59 -42 59 -28 0 -63 -69 -71 -139 -12 -103
-77 -152 -256 -197 -138 -34 -198 -76 -198 -139 0 -42 24 -80 50 -80 10 0 73
13 139 29 126 31 156 31 164 0 11 -42 -52 -273 -84 -308 -9 -10 -36 -21 -59
-25 -35 -5 -43 -12 -55 -40 -16 -37 -11 -66 24 -133 11 -23 21 -50 21 -59 0
-10 -18 -74 -41 -143 -57 -176 -141 -512 -184 -736 -51 -265 -51 -265 -27
-311 55 -108 76 -77 117 169 35 202 66 348 120 547 80 299 124 409 174 434 34
18 140 31 366 46 535 34 645 54 653 122 6 48 -39 54 -513 68 -195 6 -351 16
-380 23 l-50 12 2 50 c3 60 64 289 97 361 22 47 29 53 107 91 124 61 413 165
600 218 489 138 489 138 489 176 0 32 -61 51 -175 55 -62 2 -123 -1 -160 -10z"/>
<path d="M16760 4213 c-75 -13 -352 -103 -668 -218 -43 -15 -88 -25 -110 -23
-39 3 -39 4 -96 128 -7 14 -18 25 -26 25 -20 0 -58 -61 -65 -104 -3 -20 -8
-52 -11 -71 -12 -73 -91 -121 -282 -171 -100 -26 -158 -65 -167 -111 -8 -44 9
-86 38 -93 13 -4 81 7 152 24 142 33 165 31 165 -18 0 -46 -47 -219 -72 -264
-20 -35 -30 -43 -62 -48 -46 -8 -76 -39 -76 -79 0 -16 13 -56 29 -90 16 -34
28 -67 26 -74 -76 -223 -188 -663 -236 -926 -37 -200 -37 -215 -10 -269 50
-97 74 -57 111 184 28 177 82 413 146 638 57 202 93 294 128 325 39 37 114 46
546 72 314 19 439 41 481 86 26 28 20 50 -18 65 -16 6 -138 15 -273 20 -339
13 -591 27 -617 35 -12 3 -24 12 -27 19 -10 27 51 269 97 384 15 37 33 63 55
77 96 65 492 206 847 303 300 82 322 92 289 139 -22 32 -192 52 -294 35z"/>
<path d="M21665 4206 c-93 -21 -281 -82 -503 -162 -112 -41 -218 -74 -236 -74
-41 0 -60 20 -89 96 -17 43 -28 59 -42 59 -27 0 -63 -68 -71 -135 -6 -55 -24
-93 -53 -118 -32 -26 -119 -62 -201 -83 -140 -34 -200 -76 -200 -139 0 -42 24
-80 50 -80 10 0 73 13 139 29 120 30 155 31 165 5 14 -36 -52 -277 -85 -313
-11 -12 -28 -21 -39 -21 -81 0 -105 -72 -56 -169 14 -28 26 -58 26 -67 0 -10
-18 -73 -40 -141 -77 -237 -189 -718 -227 -974 -5 -37 21 -103 51 -128 12 -10
17 -8 30 11 20 31 30 76 61 263 29 177 117 540 172 710 45 141 76 201 112 219
34 18 140 31 366 46 535 34 645 54 653 122 6 48 -39 54 -513 68 -195 6 -351
16 -380 23 l-50 12 2 50 c3 59 64 289 97 360 21 46 29 53 107 92 174 85 417
167 879 297 90 26 174 53 187 61 35 24 29 53 -14 72 -52 21 -221 27 -298 9z"/>
<path d="M12057 4175 c-22 -7 -49 -22 -60 -34 -61 -57 -155 -269 -306 -691
-48 -135 -98 -267 -110 -293 -16 -34 -25 -81 -31 -160 -6 -62 -18 -166 -29
-232 -28 -171 -48 -349 -66 -582 -15 -203 -13 -299 10 -329 24 -34 82 -20 235
55 256 125 447 195 1055 388 110 35 120 40 123 64 2 20 -5 33 -30 54 -30 25
-37 27 -90 21 -170 -17 -428 -85 -774 -202 -289 -97 -379 -119 -395 -93 -33
52 31 669 83 802 19 50 45 59 449 151 638 147 758 198 510 217 -132 10 -382
-5 -612 -36 -257 -35 -257 -35 -219 106 61 232 233 571 305 601 23 10 125 12
442 10 284 -2 419 0 433 8 30 16 27 74 -5 104 -48 44 -151 60 -490 76 -289 13
-382 12 -428 -5z"/>
<path d="M22677 4175 c-49 -17 -74 -40 -115 -108 -42 -69 -175 -397 -263 -649
-38 -109 -81 -223 -95 -255 -19 -44 -28 -86 -35 -172 -5 -63 -18 -166 -29
-230 -24 -147 -45 -332 -65 -582 -15 -198 -13 -295 10 -325 24 -34 82 -20 235
55 250 122 520 221 1053 387 65 20 121 43 124 50 10 26 -6 59 -38 78 -36 21
-78 19 -244 -15 -186 -39 -329 -79 -611 -175 -289 -97 -379 -119 -395 -93 -29
46 23 596 72 761 27 95 15 89 384 174 583 134 733 180 697 216 -35 35 -403 27
-723 -17 -231 -32 -245 -29 -235 40 23 150 190 530 275 627 38 42 40 43 117
49 44 3 237 3 429 1 392 -5 395 -5 395 54 0 91 -91 114 -515 134 -289 13 -382
12 -428 -5z"/>
<path d="M15097 4123 c-4 -3 -7 -16 -7 -27 0 -12 -43 -250 -95 -531 -187 -997
-229 -1282 -229 -1550 -1 -202 3 -224 52 -269 41 -36 45 -17 62 269 20 341 54
556 210 1335 110 555 124 638 115 686 -10 55 -82 113 -108 87z"/>
</g>
</svg>
