<?xml version="1.0" standalone="no"?>
<!DOCTYPE svg PUBLIC "-//W3C//DTD SVG 20010904//EN"
 "http://www.w3.org/TR/2001/REC-SVG-20010904/DTD/svg10.dtd">
<svg version="1.0" xmlns="http://www.w3.org/2000/svg"
 width="2103.000000pt" height="2103.000000pt" viewBox="0 0 2103.000000 2103.000000"
 preserveAspectRatio="xMidYMid meet">
<metadata>
Created by potrace 1.16, written by Peter Selinger 2001-2019
</metadata>
<g transform="translate(0.000000,2103.000000) scale(0.100000,-0.100000)"
fill="#000000" stroke="none">
<path d="M16975 16760 c-27 -9 -90 -20 -230 -39 -27 -4 -60 -12 -72 -19 -12
-7 -38 -12 -57 -12 -20 0 -36 -4 -36 -10 0 -5 -13 -10 -28 -10 -16 0 -37 -7
-48 -15 -10 -8 -28 -14 -39 -15 -37 0 -254 -97 -370 -164 -180 -104 -417 -289
-520 -407 -308 -351 -466 -704 -526 -1174 -13 -106 -7 -493 10 -575 6 -30 16
-80 23 -110 14 -69 35 -152 55 -210 9 -25 19 -58 23 -75 4 -16 29 -88 55 -160
103 -285 125 -351 125 -382 0 -17 5 -35 10 -38 6 -3 10 -52 10 -110 0 -58 -4
-107 -10 -110 -5 -3 -10 -14 -10 -24 0 -46 -66 -129 -122 -153 -15 -7 -28 -16
-28 -20 0 -5 -15 -8 -34 -8 -18 0 -39 -7 -46 -15 -7 -8 -28 -15 -46 -15 -19 0
-34 -4 -34 -10 0 -5 -21 -10 -46 -10 -27 0 -51 -6 -60 -15 -9 -8 -28 -15 -44
-15 -16 0 -41 -5 -57 -11 -23 -9 -177 -42 -303 -66 -24 -4 -136 -27 -295 -60
-38 -8 -87 -17 -108 -20 -20 -3 -40 -9 -43 -14 -3 -5 -14 -9 -26 -9 -28 0
-159 -30 -180 -41 -10 -5 -36 -9 -57 -9 -22 0 -43 -4 -46 -10 -3 -5 -16 -10
-28 -10 -12 0 -35 -7 -51 -15 -15 -8 -46 -15 -67 -15 -21 0 -41 -4 -44 -10 -3
-5 -14 -10 -23 -10 -9 0 -30 -7 -46 -15 -15 -8 -45 -15 -65 -15 -20 0 -45 -7
-55 -15 -11 -8 -30 -15 -42 -15 -13 0 -26 -4 -29 -10 -3 -5 -20 -10 -36 -10
-17 0 -37 -7 -45 -15 -9 -8 -31 -15 -49 -15 -19 0 -37 -4 -40 -10 -3 -5 -19
-10 -35 -10 -15 0 -30 -7 -34 -15 -3 -8 -14 -15 -24 -15 -16 0 -242 -78 -362
-125 -19 -7 -66 -25 -105 -40 -38 -15 -83 -33 -100 -40 -16 -7 -68 -27 -115
-45 -47 -17 -105 -41 -130 -52 -25 -10 -54 -23 -65 -28 -86 -36 -181 -79 -322
-146 -51 -24 -98 -44 -105 -45 -7 0 -26 -9 -43 -19 -47 -29 -156 -80 -171 -80
-8 0 -14 -4 -14 -10 0 -5 -22 -10 -49 -10 -28 0 -53 5 -56 10 -3 6 -15 10 -25
10 -10 0 -31 6 -47 14 -15 8 -41 19 -58 26 -16 7 -43 18 -58 26 -16 8 -37 14
-47 14 -10 0 -22 5 -25 10 -3 6 -13 10 -22 10 -8 0 -30 7 -49 15 -37 16 -98
42 -129 54 -11 5 -38 14 -60 21 -22 7 -53 18 -70 25 -28 12 -96 38 -140 55
-31 12 -108 42 -130 50 -11 5 -56 22 -100 39 -44 18 -88 36 -97 41 -10 6 -24
10 -32 10 -8 0 -27 6 -43 14 -15 8 -41 19 -58 26 -16 7 -43 18 -58 26 -16 8
-37 14 -47 14 -10 0 -22 5 -25 10 -3 6 -13 10 -22 10 -8 0 -31 7 -51 16 -21 9
-46 20 -57 24 -53 21 -112 43 -130 50 -11 4 -37 15 -58 24 -21 9 -44 16 -51
16 -8 0 -19 7 -26 15 -7 8 -25 15 -41 15 -16 0 -29 5 -29 10 0 6 -10 10 -23
10 -13 0 -32 7 -43 15 -10 8 -29 15 -41 15 -12 0 -25 5 -28 10 -3 6 -17 10
-30 10 -13 0 -26 4 -29 9 -3 5 -29 16 -58 25 -47 15 -87 31 -140 57 -10 5 -23
9 -29 9 -6 0 -25 6 -42 14 -18 7 -50 21 -72 30 -22 9 -48 21 -57 26 -10 6 -24
10 -32 10 -8 0 -27 6 -43 14 -45 23 -157 66 -171 66 -7 0 -20 4 -30 9 -9 5
-37 17 -62 26 -78 30 -114 46 -132 55 -10 6 -22 10 -28 10 -6 0 -33 11 -62 25
-28 14 -59 25 -68 25 -9 0 -25 7 -36 15 -10 8 -27 15 -36 15 -9 0 -31 8 -50
17 -61 31 -68 33 -87 33 -11 0 -23 5 -26 10 -3 6 -13 10 -22 10 -8 0 -31 7
-51 16 -21 9 -53 23 -72 32 -19 8 -43 19 -52 23 -10 5 -27 9 -37 9 -11 0 -23
5 -26 10 -3 6 -13 10 -22 10 -15 0 -67 21 -115 46 -14 8 -33 14 -42 14 -8 0
-36 11 -62 25 -26 14 -55 25 -65 25 -10 0 -21 5 -24 10 -3 6 -16 10 -28 10
-13 0 -31 6 -42 13 -11 7 -45 21 -75 31 -30 10 -59 23 -64 27 -6 5 -19 9 -30
9 -12 0 -30 7 -40 15 -11 8 -30 15 -43 15 -13 0 -23 4 -23 9 0 5 -13 12 -30
16 -16 4 -32 11 -35 16 -4 5 -17 9 -30 9 -13 0 -26 4 -29 9 -3 5 -29 16 -58
25 -55 18 -110 40 -140 56 -10 6 -26 10 -37 10 -10 0 -24 7 -31 15 -7 8 -23
15 -36 15 -12 0 -26 5 -29 10 -3 6 -16 10 -28 10 -12 0 -31 7 -41 15 -11 8
-28 15 -38 15 -18 0 -25 3 -86 33 -19 9 -40 17 -48 17 -14 0 -22 3 -82 33 -19
9 -40 17 -48 17 -14 0 -22 3 -82 33 -19 9 -39 17 -46 17 -12 0 -59 19 -98 41
-10 5 -23 9 -29 9 -11 0 -67 22 -101 41 -10 5 -26 9 -36 9 -10 0 -27 7 -38 15
-10 8 -27 15 -36 15 -9 0 -31 8 -50 17 -60 30 -68 33 -81 33 -8 0 -35 11 -61
25 -26 14 -55 25 -64 25 -9 0 -26 7 -36 15 -11 8 -28 15 -38 15 -10 0 -26 4
-36 9 -9 4 -35 16 -57 26 -22 9 -48 21 -57 26 -10 5 -26 9 -36 9 -10 0 -27 7
-38 15 -10 8 -29 15 -41 15 -12 0 -28 7 -37 15 -8 8 -26 15 -40 15 -14 0 -26
5 -26 10 0 6 -11 10 -24 10 -14 0 -28 5 -31 10 -3 6 -15 10 -27 10 -11 0 -32
6 -46 14 -28 14 -48 22 -122 51 -25 9 -54 22 -65 28 -11 6 -33 13 -50 17 -16
4 -29 11 -28 16 1 6 -13 11 -30 12 -17 2 -36 7 -41 12 -6 6 -19 10 -29 10 -10
0 -33 7 -50 16 -58 30 -67 34 -81 34 -8 0 -29 8 -48 17 -61 31 -68 33 -87 33
-10 0 -24 7 -31 15 -7 8 -23 15 -36 15 -13 0 -24 5 -24 10 0 6 -10 10 -23 10
-13 0 -32 7 -43 15 -10 8 -29 15 -41 15 -12 0 -24 4 -27 9 -3 5 -22 12 -41 15
-19 4 -35 11 -35 16 0 5 -15 10 -33 12 -19 2 -31 8 -29 16 1 7 -9 12 -28 12
-17 0 -38 4 -48 9 -43 23 -92 41 -110 41 -12 0 -24 5 -27 10 -3 6 -21 10 -40
10 -19 0 -36 4 -39 9 -3 5 -23 11 -43 14 -21 3 -69 12 -108 21 -67 16 -181 38
-345 68 -117 21 -688 17 -800 -5 -47 -10 -110 -22 -140 -28 -101 -19 -285 -73
-360 -105 -19 -9 -44 -19 -55 -23 -123 -48 -412 -208 -423 -233 -2 -5 -8 -8
-14 -8 -8 0 -128 -89 -148 -110 -3 -3 -27 -22 -53 -44 -116 -92 -323 -316
-314 -338 3 -7 38 -26 78 -42 41 -17 103 -43 139 -58 36 -16 76 -34 90 -40 14
-5 39 -16 55 -23 83 -36 332 -135 338 -135 3 0 30 -11 59 -24 29 -14 130 -56
224 -94 94 -39 190 -79 215 -90 24 -11 76 -32 114 -47 76 -30 129 -51 208 -84
12 -6 48 -21 80 -35 32 -14 60 -26 63 -26 3 0 31 -12 62 -26 31 -15 84 -37
118 -49 33 -13 92 -37 130 -53 38 -17 132 -56 209 -87 147 -59 279 -114 355
-148 25 -11 74 -31 110 -44 36 -13 83 -33 105 -43 53 -24 225 -96 300 -125 85
-34 422 -173 472 -196 24 -10 46 -19 49 -19 3 0 20 -7 37 -15 18 -8 55 -23 83
-34 28 -11 71 -29 95 -39 94 -42 918 -383 1109 -459 36 -14 88 -36 115 -48 28
-12 75 -32 105 -45 30 -12 73 -30 95 -40 33 -14 129 -54 273 -111 37 -15 64
-27 125 -53 32 -14 60 -26 63 -26 3 0 29 -11 57 -24 29 -13 77 -34 107 -46 30
-12 74 -31 97 -41 24 -11 46 -19 49 -19 3 0 22 -7 42 -16 36 -16 70 -30 122
-53 14 -5 54 -22 90 -36 145 -59 283 -116 323 -134 23 -10 89 -38 147 -61 58
-23 119 -48 137 -56 17 -8 34 -14 37 -14 3 0 30 -11 60 -25 30 -14 57 -25 60
-25 6 0 30 -10 131 -55 17 -7 48 -20 70 -29 22 -10 48 -21 57 -26 10 -6 22
-10 28 -10 5 0 35 -12 67 -26 83 -37 113 -50 158 -69 22 -9 49 -20 60 -25 11
-5 53 -21 93 -37 91 -35 92 -48 7 -83 -16 -7 -38 -16 -47 -21 -10 -5 -25 -9
-34 -9 -8 0 -22 -7 -30 -15 -9 -8 -24 -15 -35 -15 -10 0 -19 -4 -19 -10 0 -5
-6 -10 -14 -10 -8 0 -29 -8 -48 -17 -61 -31 -68 -33 -87 -33 -10 0 -21 -7 -25
-15 -3 -8 -17 -15 -31 -15 -14 0 -25 -4 -25 -10 0 -5 -8 -10 -18 -10 -10 0
-27 -7 -38 -15 -10 -8 -29 -15 -41 -15 -13 0 -23 -4 -23 -9 0 -5 -13 -12 -30
-16 -16 -4 -32 -11 -35 -16 -4 -5 -15 -9 -26 -9 -10 0 -19 -4 -19 -9 0 -5 -13
-12 -30 -16 -16 -4 -32 -11 -35 -16 -4 -5 -19 -9 -36 -9 -16 0 -29 -4 -29 -8
0 -5 -19 -16 -42 -26 -58 -24 -107 -46 -140 -63 -14 -7 -33 -13 -42 -13 -9 0
-16 -4 -16 -10 0 -5 -8 -10 -17 -10 -10 0 -43 -12 -73 -26 -30 -15 -71 -34
-90 -42 -19 -8 -43 -19 -52 -23 -10 -5 -27 -9 -38 -9 -11 0 -20 -4 -20 -8 0
-10 -71 -42 -93 -42 -10 0 -17 -4 -17 -10 0 -5 -12 -13 -27 -16 -16 -4 -48
-18 -72 -31 -24 -12 -52 -23 -62 -23 -11 0 -19 -4 -19 -10 0 -5 -5 -10 -11
-10 -6 0 -27 -7 -47 -16 -21 -9 -50 -22 -67 -29 -16 -7 -55 -25 -85 -39 -30
-14 -63 -26 -73 -26 -9 0 -17 -4 -17 -10 0 -5 -8 -10 -18 -10 -10 0 -27 -7
-38 -15 -10 -8 -29 -15 -41 -15 -13 0 -23 -4 -23 -10 0 -5 -9 -10 -19 -10 -11
0 -26 -7 -35 -15 -8 -8 -21 -15 -29 -15 -8 0 -35 -11 -61 -25 -26 -14 -55 -25
-65 -25 -10 0 -24 -7 -31 -15 -7 -8 -21 -15 -31 -15 -10 0 -21 -4 -24 -10 -3
-5 -14 -10 -24 -10 -10 0 -24 -7 -31 -15 -7 -8 -23 -15 -36 -15 -12 0 -26 -4
-29 -10 -3 -5 -14 -10 -24 -10 -10 0 -24 -7 -31 -15 -7 -8 -23 -15 -36 -15
-13 0 -24 -4 -24 -10 0 -5 -5 -10 -11 -10 -6 0 -25 -6 -42 -14 -18 -7 -50 -21
-72 -30 -22 -10 -51 -22 -65 -28 -14 -6 -37 -17 -52 -24 -14 -8 -33 -14 -42
-14 -9 0 -16 -4 -16 -10 0 -5 -8 -10 -19 -10 -10 0 -24 -7 -31 -15 -7 -8 -21
-15 -31 -15 -18 0 -37 -8 -79 -32 -8 -4 -22 -11 -30 -14 -20 -8 -81 -35 -102
-45 -10 -5 -26 -9 -37 -9 -10 0 -24 -7 -31 -15 -7 -8 -19 -15 -26 -15 -13 0
-34 -9 -74 -32 -8 -4 -22 -11 -30 -14 -8 -3 -31 -13 -50 -21 -19 -8 -44 -18
-55 -23 -11 -4 -47 -20 -80 -35 -57 -26 -79 -36 -150 -65 -50 -21 -99 -42
-117 -51 -10 -5 -24 -9 -32 -9 -7 0 -19 -7 -26 -15 -7 -8 -21 -15 -31 -15 -18
0 -37 -8 -79 -32 -8 -4 -22 -11 -30 -14 -8 -3 -39 -17 -68 -30 -29 -13 -56
-24 -60 -24 -4 0 -32 -12 -62 -26 -30 -15 -68 -32 -85 -39 -16 -7 -55 -25 -85
-39 -30 -14 -59 -26 -63 -26 -9 0 -85 -34 -172 -76 -28 -13 -55 -24 -62 -24
-6 0 -35 -12 -65 -26 -51 -26 -86 -41 -138 -62 -14 -5 -52 -22 -85 -37 -75
-34 -118 -52 -220 -95 -26 -11 -94 -39 -125 -52 -14 -6 -32 -14 -40 -19 -8 -5
-22 -12 -30 -15 -65 -25 -135 -55 -152 -64 -10 -6 -24 -10 -32 -10 -7 0 -19
-7 -26 -15 -7 -8 -23 -15 -36 -15 -13 0 -24 -4 -24 -10 0 -5 -11 -10 -24 -10
-13 0 -29 -7 -36 -15 -7 -8 -18 -15 -25 -15 -8 0 -26 -6 -42 -14 -28 -14 -131
-61 -168 -77 -46 -19 -125 -54 -193 -85 -41 -19 -77 -34 -81 -34 -4 0 -25 -8
-47 -19 -21 -10 -57 -26 -79 -35 -86 -37 -102 -44 -155 -70 -30 -14 -61 -26
-68 -26 -7 0 -20 -4 -30 -9 -24 -13 -152 -72 -182 -83 -14 -6 -32 -14 -40 -19
-8 -5 -22 -12 -30 -15 -22 -8 -118 -49 -182 -78 -31 -14 -63 -26 -70 -26 -8 0
-18 -4 -23 -9 -6 -5 -33 -19 -61 -30 -28 -11 -73 -30 -100 -42 -27 -12 -68
-30 -92 -40 -23 -11 -63 -28 -90 -40 -26 -11 -56 -24 -67 -29 -78 -30 -105
-47 -105 -63 0 -48 293 -341 450 -450 114 -79 143 -97 225 -142 121 -67 159
-83 350 -152 75 -27 87 -31 210 -61 381 -95 957 -98 1360 -6 221 50 358 86
495 131 51 17 60 21 148 57 35 14 67 26 72 26 5 0 38 14 73 30 36 17 68 30 71
30 4 0 25 9 49 19 35 16 134 58 212 90 11 5 54 23 95 41 41 17 84 35 95 40 11
4 52 21 90 38 39 17 97 41 130 53 33 12 65 25 70 30 6 4 32 15 58 24 26 9 82
32 123 51 41 19 77 34 80 34 6 0 32 11 109 45 26 11 59 25 130 55 11 4 52 20
90 35 39 15 88 36 110 45 22 10 65 28 95 40 30 13 59 27 65 32 5 4 15 8 21 8
7 0 43 14 81 31 37 16 77 34 88 39 149 62 148 61 177 76 14 8 31 14 38 14 6 0
35 11 63 24 78 36 124 56 131 56 3 0 31 12 63 26 62 27 75 33 138 58 22 10 48
21 57 26 10 6 22 10 28 10 5 0 33 11 62 24 29 13 69 29 88 36 19 7 63 26 98
42 35 15 69 28 76 28 6 0 16 4 22 9 5 4 72 34 149 66 76 32 146 61 155 65 8 5
40 18 70 30 30 12 75 31 100 42 61 26 72 31 175 73 50 21 109 46 132 56 23 11
44 19 47 19 5 0 56 22 153 66 17 8 34 14 37 14 3 0 25 8 49 19 23 10 89 38
147 61 58 23 125 51 149 62 24 10 67 28 95 39 28 11 65 26 81 34 17 7 53 23
80 35 27 12 63 27 80 34 16 8 89 37 160 66 72 28 144 58 160 65 17 8 46 20 65
28 19 9 62 27 95 42 33 14 69 30 80 34 11 5 31 13 45 18 61 25 114 47 631 263
301 126 567 238 592 249 25 12 48 21 52 21 3 0 24 9 48 19 23 11 120 52 215
91 l173 71 57 -32 c31 -18 73 -41 92 -52 76 -43 148 -82 200 -108 140 -70 362
-174 427 -200 40 -16 81 -33 90 -38 37 -19 412 -161 427 -161 4 0 22 -6 39
-14 30 -13 142 -48 252 -80 28 -7 82 -23 120 -34 39 -12 156 -42 260 -67 316
-76 366 -87 540 -120 77 -14 158 -30 180 -35 22 -6 94 -19 160 -31 148 -25
193 -33 275 -48 36 -7 90 -17 120 -22 114 -20 315 -64 370 -81 175 -55 278
-107 336 -171 24 -27 44 -57 44 -66 0 -9 5 -22 11 -28 18 -18 1 -205 -26 -278
-16 -46 -41 -91 -58 -107 -10 -9 -19 -23 -21 -30 -3 -22 -75 -166 -86 -173 -5
-3 -10 -15 -10 -26 0 -10 -4 -19 -10 -19 -5 0 -10 -13 -10 -29 0 -17 -4 -32
-9 -35 -5 -3 -11 -20 -14 -38 -3 -18 -10 -53 -16 -78 -33 -150 -41 -208 -51
-395 -11 -203 1 -524 24 -645 28 -150 35 -177 77 -295 92 -266 242 -516 429
-717 58 -63 133 -138 168 -168 35 -30 69 -60 75 -65 71 -64 290 -201 417 -262
161 -77 350 -143 472 -164 27 -4 51 -10 56 -13 4 -2 76 -12 160 -21 134 -15
177 -16 355 -6 111 7 222 17 247 22 25 5 70 13 100 19 214 36 543 174 760 318
262 175 484 398 639 645 175 278 279 569 311 869 37 355 17 657 -62 943 -11
39 -23 84 -28 100 -54 196 -176 445 -318 655 -81 119 -135 185 -226 280 -147
152 -235 228 -371 321 -71 49 -111 73 -230 139 -52 28 -204 91 -284 116 -165
53 -241 66 -630 109 -102 11 -700 5 -967 -10 -427 -25 -1194 -21 -1244 5 -9 5
-54 8 -100 9 -47 0 -101 5 -120 11 -19 5 -55 10 -81 10 -25 0 -54 7 -65 15
-10 8 -39 15 -64 15 -25 0 -56 7 -70 15 -14 8 -40 14 -58 15 -18 0 -40 4 -50
9 -27 13 -118 41 -136 41 -14 0 -65 19 -108 41 -10 5 -25 9 -33 9 -8 0 -23 4
-33 9 -9 4 -33 15 -52 23 -264 109 -535 294 -735 500 -61 62 -119 125 -130
138 -82 100 -143 179 -160 206 -11 17 -33 51 -49 75 -16 24 -45 71 -64 104
-19 33 -43 75 -53 93 -11 18 -19 39 -19 47 0 8 -4 15 -9 15 -37 0 13 111 148
326 146 234 239 354 405 519 353 352 806 587 1311 680 50 9 110 20 135 25 25
5 104 14 175 20 72 6 186 15 255 22 145 13 545 12 705 -2 61 -6 190 -10 287
-10 103 0 188 -5 205 -11 50 -19 562 24 773 66 47 9 108 20 135 24 28 4 60 12
72 19 12 7 31 12 42 12 11 0 35 6 53 14 18 8 74 26 123 41 50 15 104 33 120
40 17 6 46 18 65 25 56 20 68 25 213 96 75 37 142 73 148 81 6 7 16 13 21 13
17 0 201 127 283 195 104 87 157 137 230 220 33 38 67 75 75 84 24 26 156 214
181 257 87 154 184 372 210 472 5 17 14 49 20 70 118 415 113 910 -12 1347
-64 226 -139 404 -240 574 -160 267 -388 503 -618 639 -128 74 -339 164 -476
202 -152 42 -185 50 -295 70 -36 6 -87 16 -115 22 -67 14 -471 20 -510 8z
m525 -756 c115 -27 232 -60 262 -75 10 -5 23 -9 28 -9 20 0 181 -81 249 -124
222 -142 374 -313 479 -538 60 -129 80 -193 106 -353 44 -265 28 -495 -54
-790 -28 -102 -115 -293 -183 -400 -71 -113 -250 -329 -310 -374 -10 -7 -33
-27 -50 -44 -31 -30 -232 -177 -242 -177 -3 0 -22 -10 -43 -23 -31 -19 -129
-65 -207 -97 -68 -28 -169 -55 -278 -75 -135 -26 -367 -13 -502 26 -94 27
-109 33 -365 152 -63 29 -192 126 -260 196 -232 235 -353 518 -400 937 -26
229 9 536 86 773 86 262 198 455 363 622 89 91 245 209 276 209 7 0 15 4 17 8
4 10 134 63 198 82 25 7 54 16 65 20 11 4 49 15 85 25 36 9 81 21 100 27 104
29 454 30 580 2z m-6085 -4834 c3 -5 21 -10 39 -10 19 0 39 -7 46 -15 7 -8 19
-15 28 -15 8 0 30 -11 48 -25 18 -14 36 -25 41 -25 4 -1 24 -19 43 -42 19 -22
45 -51 58 -64 12 -13 22 -30 22 -38 0 -8 4 -17 9 -21 14 -8 41 -65 41 -86 0
-10 4 -20 9 -23 9 -6 23 -99 22 -151 -1 -53 -13 -130 -22 -139 -5 -6 -9 -18
-9 -28 0 -23 -47 -113 -80 -153 -68 -81 -144 -145 -174 -145 -8 0 -16 -7 -20
-15 -3 -9 -19 -15 -41 -15 -19 0 -35 -4 -35 -10 0 -6 -35 -10 -84 -10 -47 0
-88 5 -91 10 -3 6 -19 10 -34 10 -16 0 -34 7 -41 15 -7 8 -21 15 -31 15 -11 0
-19 5 -19 10 0 6 -6 10 -13 10 -7 0 -24 11 -39 25 -15 14 -32 25 -38 25 -5 0
-10 5 -10 11 0 7 -11 21 -24 33 -25 22 -45 54 -96 155 -5 11 -12 34 -15 52 -3
17 -10 40 -15 50 -13 22 -13 173 -1 197 5 9 21 51 37 92 15 41 30 77 33 80 4
3 19 25 35 50 16 25 38 51 48 59 11 7 33 26 49 42 16 16 36 29 44 29 8 0 15 5
15 10 0 6 8 10 19 10 10 0 24 7 31 15 7 9 29 15 51 15 21 0 41 5 44 10 3 6 30
10 60 10 30 0 57 -4 60 -10z m5975 -2677 c221 -40 407 -124 677 -305 22 -14
90 -74 151 -133 208 -199 361 -435 445 -685 57 -170 72 -271 72 -475 0 -217
-22 -352 -91 -569 -60 -188 -200 -404 -357 -550 -45 -42 -182 -146 -192 -146
-3 0 -29 -15 -58 -33 -29 -18 -83 -46 -122 -62 -38 -16 -74 -32 -80 -35 -18
-12 -98 -37 -170 -54 -38 -9 -86 -21 -105 -26 -117 -31 -441 -30 -574 1 -267
62 -430 142 -626 307 -164 139 -299 316 -408 537 -38 77 -115 308 -131 395 -5
30 -15 87 -22 125 -17 91 -17 415 0 525 41 265 145 524 287 710 149 195 358
342 599 420 39 12 80 26 93 31 13 5 40 9 60 9 21 0 43 5 49 11 29 29 352 30
503 2z"/>
</g>
</svg>
