<?xml version="1.0" standalone="no"?>
<!DOCTYPE svg PUBLIC "-//W3C//DTD SVG 20010904//EN"
 "http://www.w3.org/TR/2001/REC-SVG-20010904/DTD/svg10.dtd">
<svg version="1.0" xmlns="http://www.w3.org/2000/svg"
 width="1700.000000pt" height="400.000000pt" viewBox="0 0 1700.000000 400.000000"
 preserveAspectRatio="xMidYMid meet">
<metadata>
Created by potrace 1.16, written by Peter Selinger 2001-2019
</metadata>
<g transform="translate(0.000000,400.000000) scale(0.100000,-0.100000)"
fill="#ffffff" stroke="none">
<path d="M2327 3750 c-9 -30 -25 -132 -37 -227 -12 -94 -25 -184 -29 -200 l-8
-28 -11 26 c-19 46 -35 189 -28 247 4 32 14 79 22 105 9 27 14 51 11 53 -3 3
-11 -12 -17 -33 -7 -21 -17 -41 -23 -44 -5 -4 -12 -61 -15 -128 -3 -67 -9
-124 -13 -127 -5 -3 -9 12 -10 33 0 39 -16 129 -18 105 -2 -28 -19 1 -51 88
-17 50 -34 89 -36 87 -2 -2 12 -50 31 -108 46 -135 41 -156 -9 -37 -45 108
-68 143 -32 48 43 -114 41 -107 22 -90 -19 18 -52 102 -69 174 -10 42 -14 47
-25 34 -9 -12 -10 -23 -2 -43 8 -22 8 -26 -4 -22 -9 4 -16 -3 -21 -20 -5 -23
-10 -25 -46 -20 -29 4 -39 2 -39 -9 0 -8 3 -14 8 -14 4 0 25 -17 47 -37 22
-21 43 -36 48 -35 4 1 12 -9 17 -23 7 -19 30 -35 80 -58 63 -29 86 -47 60 -47
-6 0 -63 22 -128 49 -131 56 -179 70 -168 52 4 -6 15 -12 24 -12 9 -1 4 -4
-12 -8 -26 -5 -12 -12 95 -48 133 -44 224 -82 216 -89 -3 -3 -39 2 -81 10 -41
9 -90 16 -108 16 -19 0 -58 7 -88 15 -94 25 -107 26 -62 6 23 -11 42 -25 42
-30 0 -6 -21 -17 -47 -25 -64 -20 -40 -20 43 0 l68 15 151 -37 c186 -46 183
-45 168 -51 -6 -2 -63 3 -125 11 -142 19 -275 30 -268 23 3 -3 91 -15 195 -27
105 -12 197 -24 205 -28 23 -9 -84 -19 -302 -27 -161 -7 -196 -11 -187 -21 6
-7 9 -17 6 -21 -3 -4 32 -9 76 -9 113 -2 247 -20 407 -56 137 -30 190 -49 159
-56 -20 -4 -212 28 -408 69 -79 16 -149 29 -155 28 -28 -1 77 -31 250 -69 104
-23 191 -44 193 -46 2 -2 -85 -4 -195 -5 -115 -1 -188 -4 -174 -9 14 -4 63 -8
110 -9 170 -2 444 -33 455 -51 10 -16 -11 -17 -145 -4 -134 14 -354 15 -440 4
l-45 -6 45 -7 c25 -3 128 -8 230 -11 102 -3 232 -10 290 -16 95 -11 108 -15
134 -41 17 -15 27 -31 24 -34 -3 -3 -42 3 -87 15 -105 26 -262 48 -376 51
-197 5 -241 -7 -59 -16 118 -6 280 -28 358 -48 85 -21 67 -33 -58 -40 -128 -7
-289 -37 -374 -70 -50 -19 -53 -22 -29 -25 15 -2 27 -8 27 -13 0 -5 9 -9 21
-9 12 0 19 -5 16 -12 -2 -9 17 -17 61 -25 112 -21 116 -47 10 -59 -32 -4 -58
-10 -58 -14 0 -11 49 -18 210 -30 215 -17 450 -55 450 -73 0 -10 -169 -6 -460
9 -63 4 -113 4 -110 1 14 -15 162 -28 453 -41 297 -13 367 -22 352 -46 -3 -4
-29 -11 -58 -15 -152 -19 -673 -109 -705 -121 -37 -14 -37 -14 28 -8 36 3 162
21 280 39 435 69 510 75 510 41 0 -9 -25 -15 -92 -19 -97 -6 -272 -41 -393
-77 -38 -11 -109 -24 -157 -27 -56 -4 -85 -10 -81 -16 3 -6 -7 -21 -23 -33
l-28 -23 59 14 c69 17 115 19 115 6 0 -5 -21 -14 -47 -21 -27 -6 -59 -18 -73
-26 l-25 -15 30 5 c171 29 436 54 755 72 l115 6 39 -41 c22 -22 36 -44 32 -48
-4 -4 -109 -11 -234 -14 -187 -6 -249 -11 -352 -33 -154 -31 -219 -51 -245
-72 -20 -16 -20 -16 0 -9 11 4 67 17 125 30 169 38 349 57 557 58 169 2 194 0
209 -15 24 -23 15 -25 -131 -32 -193 -8 -549 -80 -670 -136 -59 -27 -22 -24
116 10 142 34 363 72 572 96 133 15 150 15 164 2 13 -14 11 -16 -24 -22 -78
-14 -502 -118 -617 -152 -114 -34 -208 -73 -176 -74 9 0 54 11 100 24 141 41
713 186 731 186 10 0 31 -11 46 -25 l28 -24 -27 -1 c-53 0 -287 -51 -450 -96
-146 -41 -387 -139 -374 -152 3 -2 58 14 123 36 263 91 618 182 706 182 40 0
49 -4 77 -37 l30 -38 -102 -7 c-180 -14 -394 -64 -603 -142 -100 -38 -158 -65
-140 -66 11 0 151 40 325 93 195 59 521 105 555 77 8 -7 15 -16 15 -20 0 -4
-65 -10 -144 -13 -174 -8 -277 -26 -432 -73 -121 -36 -277 -103 -259 -110 6
-2 74 16 152 40 215 68 494 116 675 116 75 0 68 -15 -11 -23 -133 -14 -689
-170 -707 -198 -9 -15 12 -10 280 63 191 52 477 118 513 118 14 0 73 -48 73
-59 0 -5 -51 -11 -112 -14 -127 -6 -265 -39 -528 -126 -175 -57 -242 -91 -130
-65 36 8 94 23 130 34 297 86 586 147 647 135 47 -9 40 -23 -14 -30 -108 -14
-202 -43 -543 -165 -147 -53 -217 -88 -155 -76 17 3 48 8 70 11 l40 6 -38 -24
c-20 -13 -40 -27 -44 -30 -7 -8 62 12 167 48 81 28 152 36 504 60 248 16 241
17 316 -60 l35 -36 -30 8 c-54 15 -490 7 -615 -11 -126 -18 -203 -36 -182 -43
7 -3 86 3 175 13 215 24 637 26 681 4 53 -27 42 -37 -51 -43 -48 -4 -223 -18
-388 -32 -165 -13 -308 -25 -318 -25 -10 0 -15 -4 -12 -10 3 -5 37 -10 76 -10
39 0 69 -4 69 -10 0 -5 -15 -10 -32 -10 -29 -1 -31 -2 -14 -12 36 -21 365 -12
669 19 147 14 159 14 183 -2 14 -9 23 -20 19 -23 -4 -4 -34 -12 -68 -18 -34
-6 -161 -32 -282 -57 -121 -25 -269 -53 -330 -63 -133 -20 -163 -33 -81 -34
116 0 554 80 752 139 20 5 39 5 56 -3 32 -14 117 -78 118 -88 0 -5 -37 -8 -82
-8 -111 0 -298 -24 -498 -65 l-165 -34 115 4 c63 2 176 13 250 24 74 11 183
25 243 31 59 6 117 15 130 19 16 6 32 3 60 -12 37 -21 48 -37 25 -37 -7 0 -69
-7 -138 -15 -69 -8 -210 -21 -315 -30 -232 -19 -276 -25 -269 -36 9 -16 362
-5 522 17 75 10 67 -10 -15 -36 -89 -29 -372 -138 -392 -151 -12 -7 -6 -9 22
-6 32 3 36 1 31 -15 -3 -10 -4 -18 -2 -18 2 0 50 14 108 30 58 17 226 53 375
80 l270 49 53 -36 c88 -61 88 -63 -25 -63 -111 0 -233 -18 -338 -51 -79 -24
-195 -78 -195 -90 0 -5 6 -7 13 -4 6 2 48 15 92 29 115 37 193 53 336 71 157
19 227 21 242 6 8 -8 5 -11 -14 -11 -14 0 -131 -20 -260 -45 -129 -25 -260
-49 -292 -52 -90 -9 -78 -23 20 -23 104 0 278 28 456 72 143 36 146 35 227
-32 l35 -30 -140 6 c-139 7 -279 -5 -344 -27 -43 -15 -39 -30 7 -23 21 3 147
7 280 7 224 2 242 1 259 -17 17 -18 17 -18 -7 -12 -44 12 -276 19 -265 9 12
-11 135 -31 268 -42 84 -7 99 -11 143 -42 l49 -34 -55 -9 c-48 -7 -52 -10 -31
-17 25 -10 109 -2 131 11 9 6 7 15 -9 37 -13 17 -26 57 -32 98 -13 87 -35 116
-25 35 3 -30 9 -66 13 -79 9 -34 -16 -23 -45 19 -46 68 -68 175 -88 423 -12
153 -34 61 -34 -142 0 -68 -4 -111 -9 -105 -13 13 -57 142 -65 189 -4 22 0
114 9 204 20 215 14 225 -29 51 l-24 -95 -1 78 c-2 132 -25 88 -51 -98 -13
-97 -12 -200 4 -268 7 -31 9 -57 5 -57 -5 0 -25 15 -45 33 l-36 33 -1 169 c-1
169 7 229 59 423 12 45 -15 21 -34 -30 -53 -142 -66 -209 -66 -348 -1 -74 3
-150 8 -167 10 -38 2 -41 -34 -13 l-25 19 0 298 c-1 292 -9 423 -26 423 -5 0
-9 -105 -9 -232 0 -247 -8 -369 -21 -313 -4 17 -7 140 -8 275 -1 233 -9 309
-25 243 -14 -56 -19 -427 -7 -517 13 -94 9 -114 -16 -81 -12 17 -14 61 -10
295 4 233 8 288 26 360 24 98 24 103 11 95 -15 -9 -49 -131 -65 -230 -21 -138
-27 -291 -16 -389 6 -50 9 -92 6 -94 -2 -2 -31 15 -64 39 -57 42 -60 46 -56
79 33 253 53 351 119 564 20 66 35 124 33 130 -11 33 -121 -265 -152 -414 -9
-41 -19 -123 -22 -182 -3 -60 -9 -108 -14 -108 -11 0 -59 60 -59 73 0 7 7 75
15 152 8 77 19 220 25 317 5 97 15 197 22 222 7 25 9 49 5 52 -11 11 -17 0
-32 -56 -13 -48 -19 -100 -45 -390 -21 -227 -26 -236 -54 -115 -20 87 -36 227
-36 321 0 39 -3 107 -7 150 -11 119 -20 52 -22 -151 -1 -193 23 -366 61 -442
18 -37 5 -35 -40 5 l-42 37 -10 120 c-5 66 -10 199 -10 295 0 193 12 273 56
370 15 33 25 63 22 66 -7 6 -68 -77 -93 -126 -34 -65 -26 -13 15 106 46 133
49 175 5 63 -16 -41 -64 -152 -108 -248 -43 -96 -92 -209 -109 -250 -45 -114
-52 -113 -44 9 13 195 31 270 105 438 53 119 61 148 26 98 -46 -65 -124 -238
-145 -322 -25 -98 -38 -310 -21 -342 16 -31 3 -27 -43 12 l-39 33 11 214 c13
253 29 326 102 478 28 57 49 106 46 108 -15 15 -111 -163 -150 -279 -33 -97
-51 -302 -37 -413 8 -70 8 -98 -2 -84 -1 2 -18 22 -36 43 l-34 40 7 130 c14
271 46 432 121 605 19 46 34 86 32 88 -7 6 -64 -89 -95 -157 -64 -141 -93
-299 -94 -499 l0 -143 -31 31 c-37 36 -37 40 -8 238 28 189 65 366 90 433 23
62 69 139 119 200 48 57 26 50 -46 -16 -66 -59 -160 -192 -211 -295 -42 -89
-82 -230 -88 -316 -3 -40 -7 -73 -10 -73 -12 0 -53 34 -53 44 0 20 96 275 134
359 53 115 108 191 215 296 90 87 93 92 51 71 -66 -34 -174 -143 -241 -244
-62 -94 -128 -249 -158 -369 -10 -40 -22 -70 -27 -67 -12 7 -6 146 12 255 27
164 114 383 203 515 36 52 40 71 10 44 -49 -44 -137 -195 -179 -306 -34 -94
-71 -261 -76 -353 -7 -116 -10 -124 -31 -102 -19 19 -19 33 -4 212 20 222 59
329 206 560 l38 60 -37 -35 c-52 -48 -142 -186 -176 -268 -37 -89 -60 -229
-60 -369 0 -62 -3 -113 -7 -112 -5 0 -23 18 -40 41 -39 48 -40 58 -14 258 23
173 55 280 157 518 41 95 74 176 74 179 0 18 -126 -119 -166 -180 -55 -82
-114 -254 -146 -420 -13 -64 -27 -117 -32 -117 -5 0 -6 43 -3 103 6 112 66
361 114 472 40 93 75 197 69 203 -8 7 -110 -210 -135 -287 -43 -130 -74 -311
-75 -434 l-1 -119 -26 32 c-34 40 -39 82 -29 238 13 180 55 369 126 553 19 51
33 97 31 103 -13 37 -112 -218 -153 -394 -19 -79 -26 -147 -31 -273 l-6 -168
-23 22 c-13 12 -30 37 -39 56 -16 33 -16 44 9 209 24 153 36 201 102 395 42
121 74 223 71 225 -8 8 -42 -55 -72 -131 -89 -224 -120 -355 -132 -557 -3 -60
-9 -108 -13 -108 -4 0 -15 8 -24 19 -16 17 -16 27 4 161 25 176 86 405 151
569 54 137 52 131 41 131 -5 0 -20 -21 -35 -47 -87 -161 -197 -551 -197 -698
0 -30 -4 -55 -8 -55 -15 0 -62 56 -62 74 0 44 74 306 113 403 54 131 121 332
114 339 -11 11 -37 -46 -113 -241 -93 -242 -110 -297 -124 -399 -5 -44 -12
-81 -14 -84 -8 -7 -66 87 -66 106 0 22 58 178 88 239 21 41 142 387 142 406 0
26 -22 -14 -65 -123 -43 -105 -172 -438 -189 -485 -7 -19 -8 -19 -20 -2 -9 12
-11 28 -5 55 4 20 13 84 19 142 6 58 34 192 61 297 57 223 63 284 12 133 -54
-162 -102 -363 -113 -468 -6 -53 -12 -98 -15 -101 -16 -15 -30 26 -28 82 2 70
88 420 128 518 31 76 33 105 5 69 -27 -34 -27 -7 0 61 22 56 21 73 -2 37 -17
-26 -81 -184 -123 -301 -15 -42 -31 -79 -35 -82 -11 -7 15 84 70 243 23 68 39
126 36 129 -17 17 -146 -337 -171 -468 -17 -91 -20 -98 -37 -81 -8 8 0 54 31
178 40 163 92 299 149 393 16 25 32 55 36 66 17 47 -41 -27 -82 -103 -71 -134
-133 -314 -157 -457 l-7 -40 -19 24 c-10 13 -19 30 -19 38 0 61 139 381 216
499 58 88 59 93 12 43 -77 -82 -238 -406 -238 -481 0 -30 -9 -35 -28 -16 -15
15 -16 60 -1 75 6 6 28 54 50 107 38 95 126 263 179 341 43 64 47 73 27 56
-28 -22 -107 -148 -180 -286 -98 -186 -108 -192 -53 -29 41 122 53 145 116
228 57 76 51 89 -9 19 -59 -69 -128 -212 -156 -327 -14 -55 -27 -101 -29 -104
-3 -2 -10 6 -16 18 -8 15 -8 30 -1 53 6 18 24 99 41 181 32 158 63 273 86 319
8 15 10 27 5 27 -18 0 -54 -110 -103 -319 -28 -119 -55 -220 -59 -225 -4 -4
-15 4 -24 18 -19 29 -21 7 20 355 9 74 20 143 26 153 6 10 8 27 6 36 -2 9 -11
-8 -20 -38z m1068 -1098 c-69 -173 -103 -320 -112 -474 -7 -128 -10 -132 -53
-62 l-21 33 27 78 c14 43 37 128 49 190 13 62 41 154 63 205 40 95 90 184 98
175 3 -3 -20 -68 -51 -145z m-783 110 c7 -7 -11 -12 -58 -17 -38 -4 -125 -13
-194 -21 -133 -15 -322 -18 -354 -5 -13 5 23 15 110 29 71 12 140 24 154 26
47 9 331 -1 342 -12z m1064 -830 c-15 -100 -26 -202 -26 -227 0 -25 -3 -45 -6
-45 -8 0 -58 61 -66 82 -4 10 3 61 17 115 31 124 99 306 103 277 2 -12 -8
-103 -22 -202z m534 -461 c0 -131 5 -262 10 -291 6 -29 8 -55 6 -57 -2 -2 -29
17 -61 43 l-58 47 6 131 c3 72 11 156 18 186 14 68 58 180 70 180 5 0 9 -105
9 -239z"/>
<path d="M9515 3140 c-38 -10 -94 -28 -124 -40 -97 -38 -312 -152 -349 -184
-44 -39 -65 -88 -56 -130 12 -55 21 -58 72 -20 62 48 201 117 220 109 20 -8
13 -102 -28 -340 -35 -211 -54 -281 -78 -294 -9 -4 -43 -12 -75 -16 -68 -8
-97 -31 -97 -75 0 -51 25 -95 71 -127 l44 -29 -2 -65 c-2 -105 -118 -529 -203
-749 -23 -57 -65 -147 -95 -200 -30 -53 -55 -108 -55 -122 0 -92 54 -73 129
47 65 104 174 416 240 688 65 267 108 397 131 397 17 0 90 -84 146 -168 136
-204 164 -285 189 -549 20 -212 34 -263 75 -263 26 0 77 46 82 74 6 28 -16 86
-31 86 -21 0 -39 57 -51 155 -30 264 -135 548 -244 665 -42 45 -66 81 -66 99
0 8 65 78 143 155 256 251 352 416 364 622 l6 92 -44 82 c-59 110 -73 120
-168 119 -42 0 -107 -8 -146 -19z m219 -140 c15 -5 34 -25 43 -44 15 -32 15
-40 0 -99 -19 -77 -70 -188 -129 -277 -73 -111 -282 -310 -326 -310 -22 0 -11
144 27 350 42 226 69 318 103 343 54 40 218 62 282 37z"/>
<path d="M15625 3140 c-96 -25 -157 -50 -309 -127 -143 -73 -199 -117 -216
-169 -13 -37 -6 -87 14 -103 10 -8 18 -6 31 9 28 31 191 121 222 123 l28 2 -2
-75 c-2 -68 -44 -344 -73 -479 -16 -72 -33 -86 -111 -94 -48 -5 -68 -12 -81
-28 -38 -46 -12 -133 51 -173 24 -15 43 -37 47 -52 9 -36 -20 -177 -82 -399
-88 -316 -140 -453 -243 -635 -51 -91 -37 -166 23 -127 84 56 215 379 310 767
59 240 113 410 130 410 36 0 189 -207 261 -354 43 -87 60 -164 80 -371 8 -88
19 -175 25 -193 19 -68 49 -79 99 -36 39 32 44 93 10 122 -35 29 -47 64 -63
189 -35 268 -142 550 -246 648 -33 31 -60 75 -60 97 0 7 60 72 133 143 217
211 314 354 357 521 31 120 27 187 -15 272 -20 39 -49 84 -64 101 -28 30 -32
31 -108 30 -43 0 -109 -8 -148 -19z m219 -140 c14 -5 32 -23 41 -40 23 -44 6
-118 -54 -245 -73 -152 -172 -276 -307 -385 -41 -33 -82 -60 -91 -60 -24 0
-11 156 31 380 57 299 66 317 166 344 63 17 177 20 214 6z"/>
<path d="M6754 3055 c-24 -37 -15 -95 54 -356 32 -123 65 -246 71 -273 7 -28
30 -97 53 -155 22 -58 49 -140 59 -181 25 -98 19 -125 -82 -397 -134 -362
-188 -561 -189 -696 0 -75 11 -117 30 -117 11 0 26 48 40 133 31 194 123 447
433 1192 123 297 236 576 252 619 32 95 43 179 26 200 -30 37 -61 -16 -162
-275 -150 -386 -241 -582 -268 -577 -10 2 -27 40 -48 108 -41 130 -142 498
-176 643 -25 105 -47 157 -67 157 -5 0 -17 -11 -26 -25z"/>
<path d="M6405 3054 c-95 -49 -234 -265 -389 -600 -150 -325 -295 -725 -336
-922 -53 -262 -27 -502 62 -577 92 -77 264 -42 418 85 160 133 373 378 436
501 30 60 45 154 23 147 -8 -3 -50 -52 -95 -109 -90 -115 -292 -315 -400 -397
-90 -68 -155 -92 -247 -92 -40 0 -89 3 -109 6 l-38 7 0 101 c0 55 7 144 15
196 52 335 236 826 443 1180 197 338 282 390 364 223 l33 -67 5 -203 c3 -139
9 -206 17 -214 10 -10 15 -6 23 17 48 126 57 322 20 439 -50 155 -141 295
-193 295 -12 0 -35 -7 -52 -16z"/>
<path d="M14055 3061 c-3 -6 -21 -97 -40 -203 -20 -106 -67 -348 -105 -538
-77 -381 -108 -576 -116 -738 -6 -96 -4 -113 16 -167 44 -116 104 -148 199
-105 153 70 320 246 495 523 95 149 102 152 81 31 -22 -126 -48 -423 -42 -484
13 -136 77 -240 148 -240 41 0 98 36 119 75 13 25 13 28 -5 41 -12 9 -39 13
-77 11 -80 -3 -99 17 -106 111 -6 97 8 210 98 752 94 564 101 618 103 735 1
92 -11 134 -47 164 -24 20 -34 -18 -46 -177 -38 -475 -222 -928 -484 -1188
-99 -98 -193 -165 -269 -190 -91 -30 -124 2 -112 111 21 192 115 694 196 1042
59 253 70 352 44 406 -17 36 -38 47 -50 28z"/>
<path d="M11612 3023 c-5 -10 -12 -63 -16 -118 -21 -334 -152 -993 -251 -1261
-58 -157 -149 -335 -199 -389 -41 -44 -48 -47 -79 -41 -52 10 -65 -11 -42 -71
10 -26 29 -58 41 -70 22 -22 25 -23 53 -8 36 18 125 126 174 210 78 135 178
443 252 782 25 114 59 271 76 348 17 77 37 154 44 170 l13 30 11 -28 c12 -31
113 -510 172 -814 35 -182 57 -327 88 -571 12 -93 25 -125 49 -120 28 5 51 61
87 207 63 257 85 364 120 576 56 345 179 873 210 904 13 13 23 13 77 2 119
-26 115 -26 134 10 10 19 18 55 18 81 1 67 -24 90 -129 118 -47 12 -87 26 -90
31 -3 4 -12 6 -20 3 -24 -10 -70 -182 -141 -521 -57 -276 -200 -896 -221 -959
-22 -67 -30 -73 -42 -28 -19 66 -178 836 -221 1069 -60 322 -68 358 -98 417
-28 56 -54 71 -70 41z"/>
<path d="M10319 2996 c-55 -32 -124 -217 -244 -656 -31 -113 -62 -223 -70
-245 -7 -22 -17 -83 -20 -135 -4 -52 -10 -124 -15 -160 -35 -252 -67 -751 -53
-820 13 -69 39 -66 169 15 123 78 368 200 539 269 275 111 265 106 265 130 0
38 -28 66 -66 66 -80 0 -321 -77 -508 -162 -159 -72 -253 -108 -280 -108 -34
0 -39 41 -26 233 17 251 40 439 60 491 14 37 59 56 321 134 319 96 417 136
406 165 -13 33 -233 34 -427 1 -47 -8 -112 -19 -144 -25 -83 -14 -93 -3 -77
83 30 153 121 420 177 515 21 37 29 43 71 49 26 4 153 4 283 0 267 -8 290 -5
290 44 0 17 -4 39 -10 49 -24 46 -150 68 -434 76 -149 5 -186 3 -207 -9z"/>
<path d="M13102 3000 c-57 -25 -128 -213 -258 -680 -31 -113 -63 -227 -70
-255 -8 -27 -14 -72 -14 -100 0 -27 -9 -124 -20 -215 -25 -216 -50 -548 -50
-681 0 -166 20 -174 181 -69 122 80 368 199 594 290 99 39 186 78 194 85 12
11 12 19 1 44 -15 36 -43 46 -103 38 -75 -11 -278 -78 -407 -134 -230 -101
-295 -126 -330 -127 l-35 -1 -3 65 c-7 147 38 591 66 650 22 46 46 57 302 134
353 106 459 150 420 175 -46 31 -249 24 -477 -15 -78 -13 -149 -21 -159 -17
-14 5 -16 15 -11 62 13 120 126 458 182 543 18 28 34 39 62 44 20 4 147 4 282
0 276 -8 301 -5 301 42 0 38 -32 78 -73 91 -88 28 -527 52 -575 31z"/>
<path d="M8014 2900 c-222 -55 -397 -152 -444 -246 -24 -48 -25 -82 -4 -112
23 -33 50 -27 79 18 34 54 102 101 209 145 106 43 185 55 205 31 16 -19 3 -87
-66 -336 -66 -241 -77 -266 -123 -290 -60 -30 -69 -88 -30 -185 19 -49 13
-127 -29 -380 -62 -373 -86 -656 -59 -683 41 -41 65 27 78 216 5 81 23 228 39
327 35 204 97 535 102 540 2 1 54 12 114 24 146 27 257 82 385 189 107 89 175
168 216 251 24 46 29 69 29 131 0 66 -4 84 -34 145 -45 91 -110 156 -186 184
-91 34 -243 71 -289 70 -22 0 -109 -18 -192 -39z m384 -146 c95 -21 158 -52
197 -95 56 -62 45 -136 -37 -232 -126 -150 -296 -263 -436 -289 -89 -17 -93
-13 -77 71 13 66 142 558 150 571 5 8 119 -6 203 -26z"/>
</g>
</svg>
