<?xml version="1.0" encoding="UTF-8" standalone="no"?>
<!DOCTYPE svg PUBLIC "-//W3C//DTD SVG 20010904//EN" "http://www.w3.org/TR/2001/REC-SVG-20010904/DTD/svg10.dtd">
<svg version="1.0" xmlns="http://www.w3.org/2000/svg" width="1652.000000pt" height="372.000000pt" viewBox="0 0 1652.000000 372.000000" preserveAspectRatio="xMidYMid meet">
<metadata>
Created by potrace 1.16, written by Peter Selinger 2001-2019
</metadata>
<g transform="translate(0.000000,372.000000) scale(0.100000,-0.100000)" fill="#ffffff" stroke="none">
<path d="M7803 3465 c-89 -38 -164 -114 -239 -240 -58 -98 -51 -75 -274 -895 -65 -239 -126 -463 -136 -498 -15 -52 -23 -66 -53 -84 -89 -55 -211 -173 -371 -358 -81 -94 -99 -109 -128 -110 -17 0 -27 10 -41 43 -20 47 -62 87 -124 119 -54 27 -171 22 -234 -10 -65 -34 -166 -134 -201 -200 -87 -163 -80 -325 18 -423 64 -64 135 -86 227 -71 139 23 240 107 354 296 199 327 315 437 468 440 l55 1 12 -40 c22 -70 17 -188 -10 -268 -25 -74 -92 -194 -157 -282 -50 -67 -103 -166 -131 -245 -35 -97 -33 -235 5 -306 52 -101 146 -150 268 -142 84 6 132 33 215 120 163 169 190 404 61 530 -38 36 -72 50 -170 69 -33 6 -61 17 -64 25 -6 17 14 74 73 205 39 87 124 351 140 434 5 26 25 49 92 107 83 70 178 152 740 642 139 121 252 223 252 227 0 4 17 25 39 48 49 50 116 188 131 266 13 70 10 150 -6 150 -7 0 -81 -59 -165 -131 -157 -133 -247 -209 -354 -299 -34 -27 -110 -91 -170 -141 -61 -51 -168 -140 -240 -200 -71 -59 -140 -116 -151 -126 l-22 -19 19 68 c41 146 339 1290 339 1301 0 16 -27 15 -67 -3z m-485 -1697 c7 -7 12 -29 12 -49 0 -29 -7 -43 -31 -63 -37 -31 -62 -33 -89 -6 -27 27 -25 62 6 99 28 33 78 43 102 19z m-891 -464 c82 -47 106 -157 56 -261 -67 -142 -225 -226 -337 -179 -123 51 -127 244 -9 376 89 99 190 121 290 64z m801 -510 c92 -38 139 -122 121 -218 -31 -170 -183 -300 -306 -263 -154 47 -165 304 -19 433 73 64 133 78 204 48z"/>
<path d="M4619 3450 c-143 -13 -389 -70 -604 -141 -154 -50 -198 -87 -181 -152 9 -38 38 -42 99 -14 61 29 250 87 284 87 19 0 23 -5 23 -33 0 -38 -57 -251 -91 -341 -34 -93 -48 -102 -163 -111 -130 -9 -158 -34 -121 -105 17 -33 38 -46 99 -64 36 -10 41 -16 44 -43 4 -38 -45 -158 -139 -343 -91 -179 -155 -275 -256 -382 -74 -78 -84 -92 -81 -121 2 -26 8 -33 30 -35 119 -14 321 248 483 623 58 135 91 197 132 252 l24 33 42 -21 c106 -54 314 -244 355 -325 24 -47 48 -136 57 -214 18 -150 50 -197 127 -187 56 7 93 36 93 72 0 22 -10 35 -45 60 -39 27 -47 39 -57 86 -37 159 -95 283 -183 394 -48 60 -142 140 -201 170 -63 33 -49 48 126 140 346 182 499 327 521 492 8 64 -7 93 -84 165 -77 71 -112 77 -333 58z m251 -138 c44 -21 49 -48 20 -107 -53 -109 -214 -244 -422 -353 -116 -61 -176 -81 -187 -63 -13 20 7 105 60 266 67 200 85 230 152 249 71 20 94 23 227 24 92 2 122 -2 150 -16z"/>
<path d="M9539 3450 c-106 -10 -214 -31 -384 -76 -320 -85 -405 -124 -405 -185 0 -39 16 -69 37 -69 9 0 39 11 67 25 69 33 269 90 289 82 26 -10 21 -51 -24 -208 -47 -165 -79 -243 -106 -257 -10 -5 -60 -13 -112 -17 -71 -6 -98 -12 -112 -26 -45 -45 -5 -114 83 -140 l53 -15 -1 -41 c-1 -46 -47 -161 -136 -336 -83 -162 -163 -282 -256 -380 -86 -90 -97 -109 -82 -138 31 -58 163 19 259 151 85 117 186 293 235 411 50 120 127 272 154 302 8 9 23 17 33 17 30 0 163 -96 262 -191 123 -116 149 -165 177 -339 24 -142 43 -191 81 -204 58 -20 149 22 149 70 0 17 -11 31 -38 48 -54 34 -58 40 -85 152 -51 207 -173 384 -337 489 -39 25 -70 49 -70 54 0 15 50 47 191 121 174 93 258 150 352 239 82 79 130 158 142 238 9 57 -13 100 -85 166 -75 70 -111 76 -331 57z m251 -138 c44 -21 48 -48 19 -107 -58 -116 -228 -255 -444 -364 -108 -55 -158 -70 -169 -52 -16 25 77 338 131 444 37 74 103 94 313 96 91 1 122 -3 150 -17z"/>
<path d="M10635 3395 c-46 -25 -189 -170 -265 -270 -168 -223 -289 -464 -345 -691 -31 -125 -31 -170 1 -280 57 -198 136 -264 333 -280 232 -18 499 126 665 359 141 198 203 453 194 798 -4 173 -20 228 -81 287 -55 53 -97 65 -262 73 -82 4 -163 10 -180 13 -19 4 -41 1 -60 -9z m357 -145 c45 -13 93 -52 114 -91 35 -69 27 -251 -21 -463 -42 -184 -116 -332 -224 -448 -191 -204 -448 -307 -596 -237 -100 47 -153 152 -140 276 20 187 137 479 235 583 23 25 35 31 53 26 12 -4 49 -9 83 -12 75 -8 104 5 104 46 0 25 -9 35 -55 65 -30 19 -55 39 -55 44 0 33 267 181 371 206 68 17 85 17 131 5z"/>
<path d="M15238 3367 c-9 -18 -33 -107 -53 -198 -100 -446 -272 -821 -497 -1087 -77 -90 -112 -119 -167 -137 -49 -17 -67 -54 -52 -107 13 -43 45 -64 83 -55 31 8 154 131 237 236 36 47 116 159 176 250 86 129 118 170 145 183 47 23 371 60 535 62 l130 1 -1 -25 c-1 -14 -11 -61 -23 -105 -18 -63 -23 -110 -24 -220 -2 -153 7 -196 49 -236 38 -35 137 -34 216 3 64 30 85 57 68 89 -10 19 -19 20 -105 18 -115 -3 -125 3 -125 77 0 103 55 335 100 424 10 19 23 55 30 79 16 60 93 223 178 374 78 138 84 165 56 233 -22 52 -21 52 -50 19 -62 -75 -116 -165 -209 -350 -75 -149 -106 -203 -125 -212 -48 -23 -157 -34 -392 -40 l-238 -6 0 25 c0 14 16 75 36 137 96 305 134 523 100 576 -24 37 -58 33 -78 -8z"/>
<path d="M1580 3336 c-58 -13 -214 -52 -348 -86 -231 -59 -244 -61 -267 -46 -14 9 -33 33 -43 54 -24 52 -63 57 -92 10 -11 -18 -20 -45 -20 -59 0 -62 -73 -106 -225 -134 -142 -27 -195 -55 -195 -105 0 -55 32 -61 195 -33 56 9 109 14 119 10 21 -8 18 -27 -15 -117 -29 -81 -49 -102 -100 -109 -33 -5 -47 -12 -58 -33 -14 -25 -13 -29 16 -76 l30 -49 -29 -69 c-70 -162 -150 -400 -192 -574 -32 -131 -32 -143 2 -180 50 -57 73 -22 113 164 43 204 178 555 231 604 34 31 92 38 473 57 314 15 419 26 465 48 28 14 39 46 19 58 -19 12 -140 18 -499 28 -179 5 -333 13 -344 17 -14 5 -17 14 -13 38 9 53 79 225 102 250 42 45 355 134 777 220 147 30 276 60 287 66 26 13 27 45 4 55 -10 5 -79 10 -153 11 -113 3 -152 0 -240 -20z"/>
<path d="M6800 3336 c-58 -13 -214 -52 -348 -86 -234 -60 -244 -61 -268 -45 -14 9 -32 32 -40 50 -7 19 -19 37 -24 40 -34 21 -90 -35 -90 -88 0 -60 -74 -104 -225 -132 -142 -27 -195 -55 -195 -105 0 -55 33 -61 196 -33 121 20 138 16 129 -29 -24 -110 -74 -188 -120 -188 -68 0 -86 -55 -41 -121 l25 -36 -35 -79 c-77 -177 -214 -617 -214 -691 0 -31 50 -86 72 -78 22 9 42 61 63 165 20 103 108 371 164 500 22 52 53 107 69 123 37 36 77 42 477 62 315 16 420 27 465 48 28 14 39 46 19 58 -19 12 -140 18 -499 28 -179 5 -333 12 -342 16 -10 4 -18 15 -18 25 0 26 47 153 81 222 26 52 33 58 86 78 151 57 419 125 748 190 236 48 275 60 275 88 0 30 -23 35 -170 38 -113 3 -152 0 -240 -20z"/>
<path d="M12535 3340 c-49 -11 -171 -41 -270 -66 -354 -91 -334 -87 -361 -69 -13 8 -33 33 -44 55 -36 71 -89 46 -112 -52 -5 -23 -14 -48 -20 -56 -23 -27 -93 -54 -201 -77 -166 -34 -197 -51 -197 -104 0 -57 32 -61 227 -30 56 9 86 10 93 3 13 -13 -12 -101 -47 -166 -22 -40 -32 -49 -62 -53 -49 -8 -64 -18 -75 -48 -8 -21 -4 -33 17 -64 15 -22 27 -46 27 -55 0 -9 -13 -44 -30 -80 -73 -155 -210 -601 -210 -682 0 -29 39 -86 59 -86 21 0 43 44 61 121 74 304 182 605 242 669 38 41 57 43 493 65 308 16 409 27 458 52 29 15 36 47 12 57 -24 9 -169 16 -512 26 -188 5 -319 13 -332 19 -19 11 -19 13 -5 61 27 91 86 220 108 235 56 40 422 140 764 209 275 56 302 63 309 82 3 9 -2 23 -11 32 -26 27 -263 28 -381 2z"/>
<path d="M2575 3327 c-72 -33 -132 -128 -327 -517 -67 -133 -108 -227 -108 -246 0 -17 -13 -96 -30 -175 -53 -261 -83 -556 -61 -611 17 -44 66 -37 285 37 220 74 407 126 667 185 351 80 364 84 367 107 5 35 -33 53 -110 53 -102 0 -404 -55 -693 -127 -143 -35 -288 -66 -321 -70 -57 -5 -62 -4 -69 16 -20 64 53 480 92 523 24 27 54 33 427 98 453 78 556 101 556 125 0 8 -15 17 -36 21 -59 11 -518 -3 -673 -20 -170 -19 -186 -17 -177 27 17 84 165 334 241 407 l36 35 417 5 c229 3 418 7 420 8 2 1 2 17 0 35 -7 69 -103 85 -563 93 -254 4 -316 2 -340 -9z"/>
<path d="M13515 3327 c-71 -33 -170 -188 -329 -517 -36 -74 -75 -151 -86 -170 -11 -19 -20 -47 -20 -63 0 -16 -14 -97 -30 -180 -58 -288 -85 -580 -60 -628 17 -31 82 -24 211 22 239 85 475 149 984 267 129 30 145 42 106 81 -17 17 -34 21 -86 21 -128 0 -417 -53 -745 -136 -118 -30 -243 -58 -277 -61 -62 -6 -62 -6 -69 22 -8 31 17 257 41 370 25 120 41 151 85 169 21 8 197 42 392 76 455 78 558 101 558 124 0 8 -10 16 -22 20 -45 12 -428 6 -589 -10 -90 -8 -189 -16 -219 -17 l-55 -2 2 33 c3 70 128 292 223 396 l48 51 410 3 c443 3 442 3 428 56 -14 58 -130 75 -561 82 -253 4 -316 2 -340 -9z"/>
<path d="M5331 3048 c-255 -1008 -293 -1245 -214 -1338 27 -33 57 -39 67 -14 3 9 13 90 21 179 23 249 54 388 216 977 45 164 81 316 82 346 2 48 -1 56 -26 78 -15 13 -40 24 -55 24 -27 0 -27 0 -91 -252z"/>
</g>
</svg>
