<?xml version="1.0" standalone="no"?>
<!DOCTYPE svg PUBLIC "-//W3C//DTD SVG 20010904//EN"
 "http://www.w3.org/TR/2001/REC-SVG-20010904/DTD/svg10.dtd">
<svg version="1.0" xmlns="http://www.w3.org/2000/svg"
 width="300.000000pt" height="3000.000000pt" viewBox="0 0 300.000000 3000.000000"
 preserveAspectRatio="xMidYMid meet">
<metadata>
Created by potrace 1.16, written by Peter Selinger 2001-2019
</metadata>
<g transform="translate(0.000000,3000.000000) scale(0.100000,-0.100000)"
fill="#000000" stroke="none">
<path d="M430 29594 c-40 -38 -50 -53 -50 -79 0 -55 47 -86 207 -138 161 -52
334 -128 518 -229 240 -131 334 -201 367 -274 31 -70 33 -111 68 -1149 20
-582 46 -765 109 -765 11 0 21 9 25 23 15 55 26 338 36 927 10 628 17 771 39
793 21 21 265 -106 356 -185 36 -32 45 -48 64 -115 77 -279 173 -824 266
-1518 48 -356 72 -506 86 -542 10 -28 44 -30 58 -4 32 59 41 460 16 658 -21
162 -118 749 -160 968 -77 402 -76 405 65 513 70 54 5 177 -104 198 -93 17
-133 125 -177 468 -23 185 -41 266 -73 322 -18 32 -27 40 -57 42 -26 2 -40 -3
-55 -19 -16 -18 -19 -35 -17 -118 0 -53 10 -165 22 -250 25 -183 26 -234 6
-255 -14 -13 -20 -13 -56 -1 -67 24 -153 74 -192 111 -40 39 -57 85 -57 152 0
48 -21 96 -45 106 -36 13 -59 4 -107 -44 -28 -27 -55 -50 -62 -50 -6 0 -63 34
-126 75 -149 98 -543 293 -691 344 -64 22 -135 49 -158 60 -22 12 -47 21 -56
21 -9 0 -38 -21 -65 -46z"/>
<path d="M494 26211 c-54 -13 -54 -14 -54 -140 0 -109 4 -136 54 -342 115
-473 204 -953 331 -1794 25 -165 50 -315 56 -332 21 -67 79 -25 99 72 26 125
-56 839 -175 1515 -61 350 -91 547 -101 661 -6 75 -6 77 20 94 22 15 40 17
104 12 174 -13 504 -100 585 -153 69 -45 75 -74 147 -714 87 -763 146 -1202
171 -1267 10 -27 24 -30 34 -5 17 43 26 307 21 572 -7 307 -18 529 -41 845
-19 249 -19 316 -2 340 13 17 16 17 68 -7 170 -80 485 -373 557 -518 l27 -55
-3 -745 c-2 -410 0 -773 3 -807 8 -80 29 -109 68 -94 85 33 110 298 111 1211
l1 565 -31 65 c-46 97 -100 157 -242 271 -70 56 -143 117 -162 135 -19 17
-129 98 -245 179 -115 81 -230 166 -255 189 -41 39 -52 43 -125 54 -44 6 -144
31 -222 56 -168 53 -319 87 -538 121 -165 26 -208 28 -261 16z"/>
<path d="M312 23227 c-31 -33 -28 -95 7 -185 64 -160 168 -296 374 -484 156
-142 267 -227 397 -306 220 -132 430 -302 430 -347 0 -127 -279 -627 -433
-777 -69 -67 -144 -97 -371 -149 -144 -33 -195 -75 -204 -168 -8 -89 26 -217
67 -248 39 -30 82 0 100 71 21 85 45 107 161 146 180 60 285 128 432 277 126
128 215 266 278 428 13 33 34 75 48 94 l26 34 15 -23 c26 -39 76 -161 116
-282 61 -183 173 -462 239 -593 118 -232 243 -390 352 -445 55 -27 150 -38
182 -21 27 14 137 168 176 246 29 59 30 64 34 237 9 371 -37 751 -173 1425
-44 215 -82 358 -111 415 -36 69 -95 88 -139 43 -33 -32 -32 -67 4 -174 30
-85 105 -434 117 -542 8 -69 -10 -94 -60 -83 -119 25 -534 216 -561 258 -27
41 -35 87 -41 246 -6 164 -16 224 -41 253 -18 19 -64 23 -93 7 -34 -18 -71
-96 -86 -180 -18 -106 -26 -120 -70 -120 -43 0 -109 33 -239 118 -330 218
-612 475 -749 684 -73 111 -123 168 -150 168 -7 0 -22 -10 -34 -23z m1633
-1488 c140 -43 417 -180 509 -253 74 -57 98 -160 117 -482 17 -294 -6 -474
-66 -524 -24 -20 -100 27 -175 107 -165 176 -304 449 -440 863 -78 235 -86
310 -36 310 13 0 54 -9 91 -21z"/>
<path d="M467 20129 c-56 -13 -74 -25 -107 -71 -19 -26 -30 -53 -30 -74 0 -32
3 -34 53 -48 28 -9 117 -23 197 -31 327 -36 562 -112 1365 -440 287 -117 386
-153 449 -161 42 -6 48 -4 80 28 36 36 56 89 56 149 0 34 -3 37 -42 49 -24 6
-198 71 -388 142 -1067 402 -1433 504 -1633 457z"/>
<path d="M423 19165 c-51 -54 -58 -98 -20 -133 26 -25 112 -63 182 -82 214
-56 707 -312 826 -429 46 -45 61 -67 73 -111 17 -62 30 -291 46 -820 19 -641
36 -880 69 -988 27 -91 65 -96 82 -10 5 24 14 270 19 548 14 729 27 1081 39
1114 10 24 15 27 39 21 84 -20 336 -174 363 -222 56 -99 193 -832 284 -1518
47 -356 84 -595 96 -617 5 -10 20 -18 34 -18 40 0 50 75 50 370 0 197 -4 281
-18 370 -50 318 -112 685 -147 874 -60 316 -66 376 -46 431 13 34 30 52 71 80
58 38 70 59 61 109 -10 51 -87 116 -138 116 -30 0 -72 42 -93 93 -26 64 -53
195 -75 367 -26 206 -53 310 -90 350 -35 38 -54 38 -91 1 -37 -37 -37 -51 -2
-343 31 -258 28 -284 -23 -282 -64 3 -226 102 -255 156 -6 11 -14 55 -19 99
-9 91 -26 119 -74 119 -23 0 -43 -12 -82 -51 l-51 -51 -32 17 c-17 9 -64 38
-104 64 -168 114 -496 275 -712 351 -66 23 -132 49 -147 56 -45 23 -69 17
-115 -31z"/>
<path d="M310 15770 c-43 -43 -15 -163 75 -316 113 -191 429 -488 690 -649
166 -101 288 -190 374 -271 l76 -71 -12 -58 c-21 -99 -175 -397 -297 -575
-121 -177 -206 -238 -392 -281 -287 -67 -322 -95 -311 -249 10 -133 43 -200
97 -200 35 0 53 24 75 98 20 67 55 95 163 127 189 57 368 189 518 381 84 107
134 194 184 320 43 105 60 131 81 119 18 -12 63 -119 124 -296 246 -715 483
-1069 715 -1069 29 0 48 8 73 30 39 34 121 150 163 230 l29 55 0 270 c-1 378
-36 656 -160 1282 -67 338 -102 458 -153 516 -23 26 -83 22 -111 -7 -28 -29
-26 -80 7 -166 22 -59 81 -323 108 -484 26 -153 8 -170 -132 -122 -176 60
-415 175 -467 224 -38 36 -45 71 -55 277 -12 232 -21 254 -107 245 -50 -5 -95
-85 -115 -207 -14 -87 -33 -108 -86 -100 -45 7 -179 87 -334 197 -307 219
-495 399 -638 612 -110 164 -136 184 -182 138z m1673 -1500 c110 -40 351 -158
425 -209 33 -22 71 -54 85 -70 43 -52 68 -208 82 -516 12 -260 -22 -444 -83
-453 -83 -12 -269 202 -397 458 -131 262 -295 745 -272 804 10 25 65 20 160
-14z"/>
<path d="M1105 12680 c-125 -25 -263 -100 -346 -187 -100 -104 -142 -225 -160
-460 -26 -324 38 -647 191 -958 194 -395 482 -660 824 -759 178 -52 513 -81
666 -57 143 22 246 94 305 215 49 102 56 153 66 461 4 160 11 327 15 371 6 74
4 86 -18 135 -34 73 -174 283 -267 399 -102 128 -310 336 -451 450 -253 206
-477 328 -694 380 -45 11 -83 19 -86 19 -3 -1 -23 -5 -45 -9z m190 -270 c277
-98 601 -325 677 -474 19 -37 20 -47 10 -96 -20 -96 -24 -230 -10 -285 10 -40
19 -52 41 -59 38 -14 58 9 101 113 43 101 53 116 73 99 51 -42 213 -461 258
-668 23 -106 31 -284 15 -351 -18 -78 -70 -178 -107 -206 -77 -59 -219 -69
-417 -28 -487 99 -782 330 -1007 790 -191 390 -236 772 -117 1008 48 97 115
158 208 188 51 17 181 2 275 -31z"/>
<path d="M459 10145 c-14 -8 -38 -30 -52 -49 -64 -83 -19 -136 163 -193 275
-86 698 -302 838 -428 98 -88 92 -28 132 -1230 20 -569 46 -765 105 -765 8 0
19 9 25 20 19 35 29 281 40 930 10 626 18 772 39 793 21 21 264 -104 356 -185
36 -32 45 -48 64 -115 61 -220 163 -772 225 -1218 122 -874 118 -850 142 -859
19 -7 41 2 48 21 17 45 28 238 23 423 -4 161 -12 246 -36 400 -49 311 -99 601
-136 795 -76 403 -76 405 65 513 34 27 40 65 15 111 -16 32 -70 81 -88 81 -7
0 -29 5 -49 10 -74 21 -120 154 -158 456 -24 193 -42 274 -74 330 -18 33 -27
39 -58 42 -29 3 -40 -2 -58 -25 -21 -26 -22 -35 -16 -123 3 -52 15 -162 26
-244 30 -221 27 -256 -19 -256 -40 0 -165 64 -215 111 -49 45 -66 85 -66 159
0 64 -30 110 -71 110 -24 0 -43 -12 -82 -50 -28 -27 -56 -50 -61 -50 -6 0 -63
34 -126 76 -147 96 -540 291 -695 345 -66 23 -137 50 -157 60 -44 22 -54 23
-89 4z"/>
<path d="M480 6727 l-35 -12 -3 -120 c-3 -115 -1 -127 52 -345 117 -483 206
-967 341 -1860 20 -129 40 -250 46 -267 21 -67 79 -24 99 72 26 125 -56 839
-175 1515 -61 350 -91 547 -101 661 -6 75 -6 77 20 94 22 15 40 17 106 12 173
-14 505 -99 581 -150 69 -46 78 -85 144 -672 110 -969 161 -1322 191 -1332 19
-6 25 24 36 167 16 215 0 760 -37 1265 -19 250 -19 316 -1 340 13 18 16 18 77
-13 179 -89 487 -379 553 -522 21 -44 21 -55 21 -845 0 -878 -2 -849 58 -843
23 2 36 12 50 35 50 86 70 422 71 1178 l1 561 -39 78 c-45 91 -112 164 -261
281 -55 43 -118 95 -140 114 -22 20 -129 99 -237 175 -109 76 -223 160 -253
187 -31 27 -62 49 -68 49 -53 1 -168 27 -284 64 -167 53 -314 86 -534 120
-182 29 -227 31 -279 13z"/>
<path d="M526 3749 c-110 -87 -65 -210 197 -538 90 -112 387 -420 566 -586 74
-69 97 -114 111 -216 16 -118 58 -692 71 -964 15 -334 13 -338 -121 -270 -100
50 -174 65 -350 72 -186 7 -248 -6 -305 -62 -74 -75 -85 -243 -27 -436 38
-128 59 -164 97 -164 51 0 57 26 50 231 -6 172 -5 181 15 206 29 38 64 42 180
18 206 -42 354 -100 493 -194 37 -25 85 -50 106 -56 63 -17 390 -252 571 -410
97 -86 119 -100 150 -100 28 0 150 68 150 83 0 19 -82 116 -168 199 -80 77
-238 200 -504 391 -81 59 -109 85 -117 110 -15 46 -29 152 -41 307 -13 163
-26 926 -16 964 9 35 23 31 201 -52 167 -77 370 -157 515 -203 77 -24 124 -33
177 -34 65 0 74 2 102 29 54 52 50 112 -12 152 -36 25 -140 64 -331 124 -370
118 -758 343 -1098 637 -222 192 -498 549 -498 645 0 110 -91 175 -164 117z"/>
</g>
</svg>
