<?xml version="1.0" standalone="no"?>
<!DOCTYPE svg PUBLIC "-//W3C//DTD SVG 20010904//EN"
 "http://www.w3.org/TR/2001/REC-SVG-20010904/DTD/svg10.dtd">
<svg version="1.0" xmlns="http://www.w3.org/2000/svg"
 width="2103.000000pt" height="2103.000000pt" viewBox="0 0 2103.000000 2103.000000"
 preserveAspectRatio="xMidYMid meet">
<metadata>
Created by potrace 1.16, written by Peter Selinger 2001-2019
</metadata>
<g transform="translate(0.000000,2103.000000) scale(0.100000,-0.100000)"
fill="#000000" stroke="none">
<path d="M13900 19406 c-58 -8 -121 -17 -140 -20 -90 -17 -151 -30 -215 -48
-38 -11 -83 -23 -100 -28 -196 -54 -445 -176 -655 -318 -119 -81 -185 -135
-280 -226 -152 -147 -228 -235 -321 -371 -49 -71 -73 -111 -139 -230 -28 -52
-91 -204 -116 -284 -52 -164 -66 -243 -109 -630 -11 -102 -5 -700 10 -967 25
-427 21 -1194 -5 -1244 -5 -9 -8 -54 -9 -100 0 -47 -5 -101 -11 -120 -5 -19
-10 -55 -10 -81 0 -25 -7 -54 -15 -65 -8 -10 -15 -39 -15 -64 0 -25 -7 -56
-15 -70 -8 -14 -14 -40 -15 -58 0 -18 -4 -40 -9 -50 -13 -27 -41 -118 -41
-136 0 -14 -19 -65 -41 -108 -5 -10 -9 -25 -9 -33 0 -8 -4 -23 -9 -33 -4 -9
-15 -33 -23 -52 -109 -264 -294 -535 -500 -735 -62 -61 -125 -119 -138 -130
-100 -82 -179 -143 -206 -160 -17 -11 -51 -33 -75 -49 -24 -16 -71 -45 -104
-64 -33 -19 -75 -43 -93 -53 -18 -11 -39 -19 -47 -19 -8 0 -15 -4 -15 -9 0
-37 -111 13 -326 148 -234 146 -354 239 -519 405 -352 353 -587 806 -680 1311
-9 50 -20 110 -25 135 -5 25 -14 104 -20 175 -6 72 -15 186 -22 255 -13 145
-12 545 2 705 6 61 10 190 10 287 0 103 5 188 11 205 19 50 -24 562 -66 773
-9 47 -20 108 -24 135 -4 28 -12 60 -19 72 -7 12 -12 31 -12 42 0 11 -6 35
-14 53 -8 18 -26 74 -41 123 -15 50 -33 104 -40 120 -6 17 -18 46 -25 65 -20
56 -25 68 -96 213 -37 75 -73 142 -81 148 -7 6 -13 16 -13 21 0 17 -127 201
-195 283 -87 104 -137 157 -220 230 -38 33 -75 67 -84 75 -26 24 -214 156
-257 181 -154 87 -372 184 -471 210 -18 5 -50 14 -70 20 -416 118 -911 113
-1348 -12 -226 -64 -404 -139 -574 -240 -267 -160 -503 -388 -639 -618 -74
-128 -164 -339 -202 -476 -42 -152 -50 -185 -70 -295 -6 -36 -16 -87 -22 -115
-6 -27 -13 -140 -15 -249 -5 -157 -2 -215 10 -275 25 -121 37 -195 37 -227 1
-16 7 -40 15 -54 8 -14 14 -42 15 -62 0 -21 5 -38 10 -38 6 0 10 -13 10 -28 0
-16 7 -37 15 -48 8 -10 14 -28 15 -39 0 -37 97 -254 164 -370 104 -180 289
-417 407 -520 351 -308 704 -466 1174 -526 106 -13 493 -7 575 10 30 6 80 16
110 23 69 14 152 35 210 55 25 9 59 19 75 23 17 4 89 29 160 55 285 103 351
125 382 125 17 0 35 5 38 10 3 6 52 10 110 10 58 0 107 -4 110 -10 3 -5 14
-10 24 -10 46 0 129 -66 153 -122 7 -15 16 -28 20 -28 5 0 8 -15 8 -34 0 -18
7 -39 15 -46 8 -7 15 -28 15 -46 0 -19 5 -34 10 -34 6 0 10 -21 10 -46 0 -27
6 -51 15 -60 8 -9 15 -28 15 -44 0 -16 5 -41 11 -57 9 -23 42 -177 66 -303 4
-24 27 -136 60 -295 8 -38 17 -87 20 -108 3 -20 9 -40 14 -43 5 -3 9 -14 9
-26 0 -28 30 -159 41 -180 5 -10 9 -36 9 -57 0 -22 5 -43 10 -46 6 -3 10 -16
10 -28 0 -12 7 -35 15 -51 8 -15 15 -46 15 -67 0 -21 5 -41 10 -44 6 -3 10
-14 10 -23 0 -9 7 -30 15 -46 8 -15 15 -45 15 -65 0 -20 7 -45 15 -55 8 -11
15 -30 15 -42 0 -13 5 -26 10 -29 6 -3 10 -20 10 -36 0 -17 7 -37 15 -45 8 -9
15 -31 15 -49 0 -19 5 -37 10 -40 6 -3 10 -19 10 -35 0 -15 7 -30 15 -34 8 -3
15 -14 15 -24 0 -16 78 -242 125 -362 7 -19 25 -66 40 -105 15 -38 33 -83 40
-100 7 -16 27 -68 45 -115 17 -47 41 -105 52 -130 10 -25 23 -54 28 -65 36
-86 79 -181 146 -322 24 -51 44 -98 45 -105 0 -7 9 -26 19 -43 29 -47 80 -156
80 -171 0 -8 5 -14 10 -14 6 0 10 -22 10 -49 0 -28 -4 -53 -10 -56 -5 -3 -10
-15 -10 -25 0 -10 -6 -31 -14 -47 -8 -15 -19 -41 -26 -58 -7 -16 -18 -43 -26
-58 -8 -16 -14 -37 -14 -47 0 -10 -4 -22 -10 -25 -5 -3 -10 -13 -10 -22 0 -8
-7 -30 -15 -49 -16 -37 -42 -98 -54 -129 -5 -11 -14 -38 -21 -60 -7 -22 -18
-53 -25 -70 -12 -28 -38 -96 -55 -140 -12 -31 -42 -108 -50 -130 -5 -11 -22
-56 -39 -100 -18 -44 -36 -88 -41 -97 -6 -10 -10 -24 -10 -32 0 -8 -6 -27 -14
-43 -8 -15 -19 -41 -26 -58 -7 -16 -18 -43 -26 -58 -8 -16 -14 -37 -14 -47 0
-10 -4 -22 -10 -25 -5 -3 -10 -13 -10 -22 0 -8 -7 -31 -16 -51 -9 -21 -20 -46
-24 -57 -21 -53 -43 -112 -50 -130 -4 -11 -15 -37 -24 -58 -9 -21 -16 -44 -16
-51 0 -8 -7 -19 -15 -26 -8 -7 -15 -25 -15 -41 0 -16 -4 -29 -10 -29 -5 0 -10
-10 -10 -23 0 -13 -7 -32 -15 -43 -8 -10 -15 -29 -15 -41 0 -12 -4 -25 -10
-28 -5 -3 -10 -17 -10 -30 0 -13 -4 -26 -9 -29 -5 -3 -16 -29 -25 -58 -15 -47
-31 -87 -57 -140 -5 -10 -9 -23 -9 -29 0 -6 -7 -27 -16 -47 -9 -21 -23 -53
-31 -72 -8 -19 -18 -43 -23 -52 -6 -10 -10 -24 -10 -32 0 -8 -6 -27 -14 -43
-23 -45 -66 -157 -66 -171 0 -7 -4 -20 -9 -30 -5 -9 -17 -37 -26 -62 -30 -78
-46 -114 -55 -132 -6 -10 -10 -22 -10 -28 0 -6 -11 -33 -25 -62 -14 -28 -25
-59 -25 -68 0 -9 -7 -25 -15 -36 -8 -10 -15 -27 -15 -36 0 -9 -8 -31 -17 -50
-31 -61 -33 -68 -33 -87 0 -11 -4 -23 -10 -26 -5 -3 -10 -13 -10 -22 0 -8 -7
-31 -16 -51 -9 -21 -23 -53 -32 -72 -8 -19 -19 -43 -23 -52 -5 -10 -9 -27 -9
-37 0 -11 -4 -23 -10 -26 -6 -3 -10 -13 -10 -22 0 -15 -21 -67 -46 -115 -8
-14 -14 -33 -14 -42 0 -8 -11 -36 -25 -62 -14 -26 -25 -55 -25 -65 0 -10 -5
-21 -10 -24 -6 -3 -10 -16 -10 -28 0 -13 -6 -31 -13 -42 -7 -11 -21 -45 -31
-75 -10 -30 -23 -59 -27 -64 -5 -6 -9 -19 -9 -30 0 -12 -7 -30 -15 -40 -8 -11
-15 -30 -15 -43 0 -13 -4 -23 -9 -23 -5 0 -12 -13 -16 -30 -4 -16 -11 -32 -16
-35 -5 -4 -9 -17 -9 -30 0 -13 -4 -26 -9 -29 -5 -3 -16 -29 -25 -58 -18 -55
-40 -110 -56 -140 -6 -10 -10 -26 -10 -37 0 -10 -7 -24 -15 -31 -8 -7 -15 -23
-15 -36 0 -12 -4 -26 -10 -29 -5 -3 -10 -16 -10 -28 0 -12 -7 -31 -15 -41 -8
-11 -15 -28 -15 -38 0 -18 -3 -25 -33 -86 -9 -19 -17 -40 -17 -48 0 -14 -3
-22 -33 -82 -9 -19 -17 -40 -17 -48 0 -14 -3 -22 -33 -82 -9 -19 -17 -39 -17
-46 0 -12 -19 -59 -41 -98 -5 -10 -9 -23 -9 -29 0 -11 -22 -67 -41 -101 -5
-10 -9 -26 -9 -36 0 -10 -7 -27 -15 -38 -8 -10 -15 -27 -15 -36 0 -9 -8 -31
-17 -50 -30 -60 -33 -68 -33 -81 0 -8 -11 -35 -25 -61 -14 -26 -25 -55 -25
-64 0 -9 -7 -26 -15 -36 -8 -11 -15 -28 -15 -38 0 -10 -4 -26 -9 -36 -4 -9
-16 -35 -26 -57 -9 -22 -21 -48 -26 -57 -5 -10 -9 -26 -9 -36 0 -10 -7 -27
-15 -38 -8 -10 -15 -29 -15 -41 0 -12 -7 -28 -15 -37 -8 -8 -15 -26 -15 -40 0
-14 -4 -26 -10 -26 -5 0 -10 -11 -10 -24 0 -14 -4 -28 -10 -31 -6 -3 -10 -15
-10 -27 0 -11 -6 -32 -14 -46 -14 -28 -22 -48 -51 -122 -9 -25 -22 -54 -28
-65 -6 -11 -13 -33 -17 -50 -4 -16 -11 -29 -16 -28 -6 1 -11 -13 -12 -30 -2
-17 -7 -36 -12 -41 -6 -6 -10 -19 -10 -29 0 -10 -7 -33 -16 -50 -30 -58 -34
-67 -34 -81 0 -8 -8 -29 -17 -48 -31 -61 -33 -68 -33 -87 0 -10 -7 -24 -15
-31 -8 -7 -15 -23 -15 -36 0 -13 -4 -24 -10 -24 -5 0 -10 -10 -10 -23 0 -13
-7 -32 -15 -43 -8 -10 -15 -29 -15 -41 0 -12 -4 -24 -9 -27 -5 -3 -12 -22 -15
-41 -4 -19 -11 -35 -16 -35 -5 0 -10 -15 -12 -33 -2 -19 -8 -31 -15 -30 -8 2
-13 -8 -13 -27 0 -17 -4 -38 -9 -48 -23 -43 -41 -92 -41 -110 0 -12 -4 -24
-10 -27 -5 -3 -10 -21 -10 -40 0 -19 -4 -36 -9 -39 -5 -3 -11 -23 -14 -43 -3
-21 -12 -69 -21 -108 -16 -67 -38 -181 -68 -345 -21 -117 -17 -688 5 -800 10
-47 22 -110 28 -140 19 -101 73 -285 105 -360 9 -19 19 -44 23 -55 48 -123
208 -412 234 -423 4 -2 7 -8 7 -14 0 -8 89 -128 110 -148 3 -3 22 -27 44 -53
92 -116 316 -323 338 -314 7 3 26 38 42 78 17 41 43 103 58 139 16 36 34 76
40 90 5 14 16 39 23 55 36 83 135 332 135 338 0 3 11 30 24 59 14 29 56 130
94 224 39 94 79 190 90 215 11 24 32 76 47 114 30 76 51 129 84 208 6 12 21
48 35 80 14 32 26 60 26 63 0 3 12 31 26 62 15 31 37 84 49 118 13 33 37 92
53 130 17 38 56 132 87 209 59 147 114 279 148 355 11 25 31 74 44 110 13 36
33 83 43 105 24 53 96 225 125 300 34 85 173 422 196 472 10 24 19 46 19 49 0
3 7 20 15 37 8 18 23 55 34 83 11 28 29 71 39 95 42 94 383 918 459 1109 14
36 36 88 48 115 12 28 32 75 45 105 12 30 30 73 40 95 14 33 54 129 111 273
15 37 27 64 53 125 14 32 26 60 26 63 0 3 11 29 24 57 13 29 34 77 46 107 12
30 31 74 41 97 11 24 19 46 19 49 0 3 7 22 16 42 16 36 30 70 53 122 5 14 22
54 36 90 59 145 116 283 134 323 10 23 38 89 61 147 23 58 48 119 56 137 8 17
14 34 14 37 0 3 11 30 25 60 14 30 25 57 25 60 0 6 10 30 55 131 7 17 20 48
29 70 10 22 21 48 26 57 6 10 10 22 10 28 0 5 12 35 26 67 37 83 50 113 69
158 9 22 20 49 25 60 5 11 21 53 37 93 35 91 48 92 83 7 7 -16 16 -38 21 -47
5 -10 9 -25 9 -34 0 -8 7 -22 15 -30 8 -9 15 -24 15 -35 0 -10 5 -19 10 -19 6
0 10 -6 10 -14 0 -8 8 -29 17 -48 31 -61 33 -68 33 -87 0 -10 7 -21 15 -25 8
-3 15 -17 15 -31 0 -14 5 -25 10 -25 6 0 10 -8 10 -18 0 -10 7 -27 15 -38 8
-10 15 -29 15 -41 0 -13 4 -23 9 -23 5 0 12 -13 16 -30 4 -16 11 -32 16 -35 5
-4 9 -15 9 -26 0 -10 4 -19 9 -19 5 0 12 -13 16 -30 4 -16 11 -32 16 -35 5 -4
9 -19 9 -36 0 -16 4 -29 8 -29 5 0 16 -19 26 -43 24 -57 46 -106 63 -139 7
-14 13 -33 13 -42 0 -9 5 -16 10 -16 6 0 10 -8 10 -17 0 -10 12 -43 26 -73 15
-30 34 -71 42 -90 8 -19 19 -43 23 -52 5 -10 9 -27 9 -38 0 -11 4 -20 8 -20
10 0 42 -71 42 -93 0 -10 4 -17 10 -17 5 0 13 -12 16 -27 4 -16 18 -48 31 -72
12 -24 23 -52 23 -62 0 -11 5 -19 10 -19 6 0 10 -5 10 -11 0 -6 7 -27 16 -47
9 -21 22 -50 29 -67 7 -16 25 -55 39 -85 14 -30 26 -63 26 -73 0 -9 5 -17 10
-17 6 0 10 -8 10 -18 0 -10 7 -27 15 -38 8 -10 15 -29 15 -41 0 -13 5 -23 10
-23 6 0 10 -9 10 -19 0 -11 7 -26 15 -35 8 -8 15 -21 15 -29 0 -8 11 -35 25
-61 14 -26 25 -55 25 -65 0 -10 7 -24 15 -31 8 -7 15 -21 15 -31 0 -10 5 -21
10 -24 6 -3 10 -14 10 -24 0 -10 7 -24 15 -31 8 -7 15 -23 15 -36 0 -12 5 -26
10 -29 6 -3 10 -14 10 -24 0 -10 7 -24 15 -31 8 -7 15 -23 15 -36 0 -13 5 -24
10 -24 6 0 10 -5 10 -11 0 -6 7 -26 15 -45 8 -19 22 -51 31 -71 32 -79 37 -89
50 -115 8 -14 14 -33 14 -42 0 -9 5 -16 10 -16 6 0 10 -8 10 -19 0 -10 7 -24
15 -31 8 -7 15 -21 15 -31 0 -18 8 -37 32 -79 4 -8 11 -22 14 -30 8 -20 35
-81 45 -102 5 -10 9 -26 9 -37 0 -10 7 -24 15 -31 8 -7 15 -19 15 -26 0 -13 9
-34 32 -74 4 -8 11 -22 14 -30 3 -8 13 -31 21 -50 8 -19 18 -44 23 -55 4 -11
20 -47 35 -80 26 -57 36 -79 65 -150 21 -50 42 -99 51 -117 5 -10 9 -24 9 -32
0 -7 7 -19 15 -26 8 -7 15 -21 15 -31 0 -18 8 -37 32 -79 4 -8 11 -22 14 -30
3 -8 17 -39 30 -68 13 -29 24 -56 24 -60 0 -4 12 -32 26 -62 15 -30 32 -68 39
-85 7 -16 25 -55 39 -85 14 -30 26 -59 26 -63 0 -9 34 -85 76 -172 13 -28 24
-55 24 -62 0 -6 12 -35 26 -65 26 -51 41 -86 62 -138 5 -14 22 -52 37 -85 34
-75 52 -118 95 -220 11 -26 39 -94 52 -125 6 -14 14 -32 19 -40 5 -8 12 -22
15 -30 25 -65 55 -135 64 -152 6 -10 10 -24 10 -32 0 -7 7 -19 15 -26 8 -7 15
-23 15 -36 0 -13 5 -24 10 -24 6 0 10 -11 10 -24 0 -13 7 -29 15 -36 8 -7 15
-18 15 -25 0 -8 6 -26 14 -42 14 -28 61 -131 77 -168 19 -46 54 -125 85 -193
19 -41 34 -77 34 -81 0 -4 8 -25 19 -47 10 -21 26 -57 35 -79 37 -86 44 -102
70 -155 14 -30 26 -61 26 -68 0 -7 4 -20 9 -30 13 -24 72 -152 83 -182 6 -14
14 -32 19 -40 5 -8 12 -22 15 -30 8 -22 49 -118 78 -182 14 -31 26 -63 26 -70
0 -8 4 -18 9 -23 5 -6 19 -33 30 -61 11 -28 30 -73 42 -100 12 -27 30 -68 40
-91 11 -24 28 -64 40 -90 11 -27 24 -57 29 -68 30 -78 47 -105 63 -105 48 0
341 293 450 450 79 114 97 143 142 225 67 121 83 159 152 350 27 75 31 87 61
210 95 381 98 957 6 1360 -50 221 -86 358 -131 495 -17 51 -21 60 -57 148 -14
35 -26 67 -26 72 0 5 -13 38 -30 73 -16 36 -30 68 -30 71 0 4 -9 25 -19 49
-16 35 -58 134 -90 212 -5 11 -23 54 -41 95 -17 41 -35 84 -40 95 -4 11 -21
52 -38 90 -17 39 -41 97 -53 130 -12 33 -25 65 -30 70 -4 6 -15 32 -24 58 -9
26 -32 82 -51 123 -19 41 -34 77 -34 80 0 3 -7 22 -16 42 -8 21 -21 51 -28 67
-7 17 -18 41 -24 55 -21 49 -40 96 -67 165 -15 39 -36 88 -45 110 -10 22 -28
65 -40 95 -13 30 -27 59 -32 65 -4 5 -8 15 -8 21 0 7 -14 43 -31 81 -16 37
-34 77 -39 88 -62 149 -61 148 -76 177 -8 14 -14 31 -14 38 0 6 -11 35 -24 63
-36 78 -56 124 -56 131 0 3 -12 31 -26 63 -27 62 -33 75 -58 138 -10 22 -21
48 -26 57 -6 10 -10 22 -10 28 0 5 -11 33 -24 62 -13 29 -29 69 -36 88 -7 19
-26 63 -42 98 -15 35 -28 69 -28 76 0 6 -4 16 -9 22 -4 5 -34 72 -66 149 -32
76 -61 146 -65 155 -5 8 -18 40 -30 70 -12 30 -31 75 -42 100 -26 61 -31 72
-73 175 -21 50 -46 109 -56 132 -11 23 -19 44 -19 47 0 5 -22 56 -66 153 -8
17 -14 34 -14 37 0 3 -8 25 -19 49 -10 23 -38 89 -61 147 -23 58 -51 125 -62
149 -10 24 -28 67 -39 95 -11 28 -26 65 -34 81 -7 17 -23 53 -35 80 -12 27
-27 63 -34 80 -8 16 -37 89 -66 160 -28 72 -58 144 -65 160 -8 17 -20 46 -28
65 -9 19 -27 62 -42 95 -30 68 -41 95 -54 128 -15 40 -30 75 -261 628 -126
301 -238 567 -249 592 -12 25 -21 48 -21 52 0 3 -9 24 -19 48 -11 23 -52 120
-91 215 l-71 173 32 57 c18 31 41 73 52 92 43 76 82 148 108 200 70 140 174
362 200 427 16 40 33 81 38 90 9 17 21 48 84 213 51 134 77 206 77 214 0 4 6
22 14 39 13 30 48 142 80 252 7 28 23 82 34 120 12 39 42 156 67 260 76 316
87 366 120 540 14 77 30 158 35 180 6 22 19 94 31 160 25 148 33 193 48 275 7
36 17 90 22 120 20 114 64 315 81 370 55 175 107 278 171 336 27 24 57 44 66
44 9 0 22 5 28 11 18 18 205 1 278 -26 46 -16 91 -41 107 -58 9 -10 23 -19 30
-21 22 -3 166 -75 173 -86 3 -5 15 -10 26 -10 10 0 19 -4 19 -10 0 -5 13 -10
29 -10 17 0 32 -4 35 -9 3 -5 20 -11 38 -14 18 -3 53 -10 78 -16 150 -33 208
-41 395 -51 203 -11 524 1 645 24 150 28 177 35 295 77 266 92 516 242 717
429 63 58 138 133 168 168 30 35 60 69 65 75 64 71 201 290 262 417 77 161
143 350 164 472 4 27 10 51 13 56 2 4 12 76 21 160 15 134 16 177 6 355 -7
111 -17 222 -22 247 -5 25 -13 70 -19 100 -36 214 -174 543 -318 760 -175 262
-398 484 -645 639 -278 175 -566 278 -869 311 -161 18 -473 20 -588 6z m495
-686 c97 -18 224 -49 309 -76 188 -60 404 -200 550 -357 42 -45 146 -182 146
-192 0 -3 15 -29 33 -58 18 -29 46 -83 62 -122 16 -38 32 -74 35 -80 12 -18
37 -98 54 -170 9 -38 21 -86 26 -105 31 -117 30 -441 -1 -574 -62 -267 -142
-430 -307 -626 -139 -164 -316 -299 -537 -408 -77 -38 -308 -115 -395 -131
-30 -5 -86 -15 -125 -22 -91 -17 -415 -17 -525 0 -265 41 -524 145 -710 287
-195 149 -342 358 -420 599 -12 39 -26 80 -31 93 -5 13 -9 40 -9 60 0 21 -5
43 -11 49 -15 15 -27 185 -22 313 11 295 99 529 325 867 14 22 74 90 133 151
283 295 626 472 1005 516 62 7 353 -2 415 -14z m-7830 -79 c303 -26 619 -149
875 -342 77 -58 224 -190 249 -222 7 -10 27 -33 44 -50 30 -31 177 -232 177
-242 0 -3 10 -22 23 -43 19 -31 65 -129 97 -207 28 -68 55 -169 75 -278 26
-135 13 -367 -26 -502 -27 -94 -33 -109 -152 -365 -29 -63 -126 -192 -196
-260 -235 -232 -518 -353 -937 -400 -229 -26 -536 9 -773 86 -262 86 -455 198
-622 363 -91 89 -209 245 -209 276 0 7 -4 15 -8 17 -10 4 -63 134 -82 198 -7
25 -16 54 -20 65 -4 11 -15 49 -25 85 -9 36 -20 79 -25 95 -32 104 -34 439 -4
580 23 109 59 235 75 267 5 10 9 23 9 28 0 20 81 181 124 249 96 150 234 295
358 379 81 55 256 141 326 160 222 62 419 81 647 63z m3895 -6828 c25 -3 49
-9 55 -14 5 -5 17 -9 27 -9 23 0 113 -47 153 -80 81 -68 145 -144 145 -174 0
-8 7 -16 15 -20 9 -3 15 -19 15 -41 0 -19 5 -35 10 -35 6 0 10 -35 10 -84 0
-47 -4 -88 -10 -91 -5 -3 -10 -19 -10 -34 0 -16 -7 -34 -15 -41 -8 -7 -15 -21
-15 -31 0 -11 -4 -19 -10 -19 -5 0 -10 -6 -10 -13 0 -7 -11 -24 -25 -39 -14
-15 -25 -32 -25 -38 0 -5 -5 -10 -11 -10 -7 0 -21 -11 -33 -24 -22 -25 -54
-45 -155 -96 -11 -5 -34 -12 -52 -15 -17 -3 -40 -10 -50 -15 -22 -13 -173 -13
-197 -1 -9 5 -51 21 -92 37 -41 15 -77 30 -80 33 -3 4 -25 19 -50 35 -25 16
-51 38 -59 48 -7 11 -26 33 -42 49 -16 16 -29 36 -29 44 0 8 -4 15 -10 15 -5
0 -10 8 -10 19 0 10 -7 24 -15 31 -9 7 -15 29 -15 51 0 21 -4 41 -10 44 -5 3
-10 30 -10 60 0 30 5 57 10 60 6 3 10 21 10 39 0 19 7 39 15 46 8 7 15 19 15
28 0 8 11 30 25 48 14 18 25 36 25 41 1 4 19 24 42 43 22 19 51 45 64 58 13
12 30 22 38 22 8 0 17 4 21 9 8 14 65 41 86 41 10 0 21 5 24 10 3 6 25 10 48
11 23 0 51 4 62 9 11 5 34 7 50 4 17 -3 50 -8 75 -11z"/>
</g>
</svg>
